<svg xmlns="http://www.w3.org/2000/svg" viewBox="0 0 577.03 630.41"><defs><style>.cls-1{fill:#3f3d56;}.cls-2{fill:#f1f1f1;}.cls-3{fill:#e5e5e5;}.cls-4{fill:#fff;}.cls-5{fill:#e3e3e3;}.cls-6{fill:#ffb5b5;}.cls-7{fill:#2f2e41;}.cls-8{fill:#f86126;}.cls-9{opacity:0.4;}.cls-10,.cls-9{isolation:isolate;}.cls-10{opacity:0.17;}</style></defs><title>Recurso 2</title><g id="Capa_2" data-name="Capa 2"><g id="Capa_2-2" data-name="Capa 2"><path class="cls-1" d="M13.15,177.19c7.22-4.94,16.52,5.94,11.46,12.72s-16.28,4.91-20.13-2.09c-4.91-8.92,0-19.54,7.89-24.72,9-5.89,20-6.22,30.38-5.67s20.71,1.3,31.15-.2A104.89,104.89,0,0,0,99.6,150a109.18,109.18,0,0,0,43.16-32.7c5.33-6.76,10.3-14.35,13.35-22.44,2.35-6.23,3.46-14.42.14-20.52A10.45,10.45,0,0,0,142.13,70a9.92,9.92,0,0,0-1.77,1.18c-5.54,4.54-7,13-2.8,18.85,4.55,6.31,13.13,8.47,20.53,7.33,10.27-1.6,18.59-8.85,26.45-15.1L242.79,36c9.6-7.62,19.11-15.4,28.84-22.86,7.91-6.08,17.56-12,27.86-8.72,4.16,1.31,8.34,4.4,9.38,8.85a11.41,11.41,0,0,1-4.08,11,7,7,0,0,1-9.88-.81c-.13-.15-.25-.31-.37-.48-2.17-3-2.35-7.35-1.1-10.77,3.34-9.14,15.61-10.1,23.79-9.36a66.8,66.8,0,0,1,27.33,9c17.3,10,30.09,26.39,37.59,44.76C390.46,77,393,99.54,392.69,121.39c-.07,4.46-.38,9.39-2.89,13.23s-6.74,4.9-10.59,2.38c-1.25-.82-2.86-2.41-2.53-4.1.41-2.11,4.62-2.13,6.31-2.05a19.73,19.73,0,0,1,12.29,5.69c7.87,7.46,8.48,18.88,7.45,29-1.12,11.14-4.33,22.23-3.06,33.51,2.09,18.48,17.26,28.75,32.15,37.24,7.63,4.36,15.42,8.52,22.28,14.05a92,92,0,0,1,18.17,19.77,99.88,99.88,0,0,1,17.05,49.5,91.55,91.55,0,0,1-2.08,26.4c-2,8.46-5,19.13-13.18,23.68a10.91,10.91,0,0,1-12.43-1.12c-3.3-2.65-4.91-7.34-1.5-10.64,2.82-2.74,7.33-2.16,10.73-1,4.1,1.34,7.29,3.84,10.34,6.79,5.82,5.63,12.64,12.55,21.49,10.75,1.64-.33.95-2.84-.69-2.51-10.69,2.17-17.13-10.25-25-15-5.71-3.47-15.45-6-19.91.71-4.82,7.29,2.92,15.15,10.11,16.09,9.35,1.22,15.84-7.92,19-15.47,7.28-17.5,7.5-38,3-56.25a100.33,100.33,0,0,0-27.75-48.61c-6.91-6.58-14.82-11.62-23.08-16.32s-17-9.28-24.15-15.79A36.23,36.23,0,0,1,402,193.35c.08-12.13,4-23.9,3.73-36-.2-10.07-3.62-19.91-12.38-25.58A20.11,20.11,0,0,0,381,128.29c-1.77.15-4.26.45-5.72,1.56-1.17.89-1.4,3-1.16,4.34.56,3.21,3.6,5.44,6.55,6.33a9.39,9.39,0,0,0,10.14-3c2.83-3.27,3.82-7.64,4.22-11.85a124.42,124.42,0,0,0,0-17.27c-1-23.22-5.61-47-17.67-67.14-10.25-17.14-26.2-31.51-45.32-37.86-9-3-19.7-4.79-29-2.07-8,2.35-14.12,8.93-12.8,17.65,1.11,7.38,8.76,12.48,15.5,7.83a13.43,13.43,0,0,0,3.41-18.69,12.64,12.64,0,0,0-1.26-1.56c-6.51-6.82-17.13-6.78-25.26-3.31a61.68,61.68,0,0,0-13.41,8.47c-5.33,4.14-10.59,8.38-15.87,12.58L189.7,74.87c-5,4-10,8.12-15.17,11.9-4.85,3.52-10.19,6.78-16.16,7.91-8.4,1.59-21.7-2.59-20.68-13.24.39-4.14,3.13-8.71,7.32-9.9s8,1.48,9.52,5.22c3.36,8.25-.59,17.68-4.52,24.92a105.93,105.93,0,0,1-71.74,52.18C67,156.07,56,155.64,44.68,155c-11-.67-22.56-.6-32.37,5.13-8,4.71-13.41,13.23-12.12,22.74,1.12,8.25,7.74,14.55,16.27,13.86,7.17-.59,14.36-6.71,11.82-14.48-2.1-6.43-10.23-11.5-16.44-7.25-1.37.93-.07,3.18,1.31,2.24Z"/><path class="cls-2" d="M563.37,364.64h-62.9a3.71,3.71,0,0,0-3.71,3.71v39.16a3.71,3.71,0,0,0,3.71,3.71h62.9a3.71,3.71,0,0,0,3.71-3.71V368.35A3.71,3.71,0,0,0,563.37,364.64Z"/><path class="cls-3" d="M563.37,364.64h-62.9a3.71,3.71,0,0,0-3.71,3.71v39.16a3.71,3.71,0,0,0,3.71,3.71h62.9a3.71,3.71,0,0,0,3.71-3.71V368.35A3.71,3.71,0,0,0,563.37,364.64Zm1.22,28.13a15.23,15.23,0,0,1-15,15.18c-6.38.09,3.53.12-4.17.12-17.6,0-36-.17-42.81-.28a3.45,3.45,0,0,1-3.38-3.44v-36a1.22,1.22,0,0,1,1.22-1.22h62.9a1.22,1.22,0,0,1,1.22,1.22Z"/><path class="cls-3" d="M555.63,342.09H507.7a2.05,2.05,0,0,0-1.93,1.36l-7.41,20.77a2.06,2.06,0,0,0,1.25,2.63,2,2,0,0,0,.69.12l64.28.11h0a2.06,2.06,0,0,0,2.06-2.05,2,2,0,0,0-.17-.81l-.11,0,.11,0-9-20.89A2.06,2.06,0,0,0,555.63,342.09Z"/><path class="cls-3" d="M566.64,364.67a2.1,2.1,0,0,1-.17.81l-9,16.07a2.06,2.06,0,0,1-1.89,1.24H507.7a2,2,0,0,1-1.93-1.36l-7.4-16a2,2,0,0,1,1.24-2.62h0a2.27,2.27,0,0,1,.69-.12h11.05l42.17-.07h11.06A2.06,2.06,0,0,1,566.64,364.67Z"/><path class="cls-3" d="M505.18,394c.95,0,14,.8,14,1.75s-13.06,1.69-14,1.69a1.72,1.72,0,0,1,0-3.44Z"/><path class="cls-2" d="M552.65,329.45H512.23a4.09,4.09,0,0,0-4.08,4.09v49.25h47.48a2,2,0,0,0,1.1-.32V333.54A4.09,4.09,0,0,0,552.65,329.45Z"/><path class="cls-4" d="M537.22,332.77H515.07a3.73,3.73,0,0,0-3.72,3.72v46.3h42.17V349.07A16.32,16.32,0,0,0,537.22,332.77Z"/><path class="cls-5" d="M546.34,378.68h-27.8a.91.91,0,0,0-.91.91.9.9,0,0,0,.9.9h27.81a.9.9,0,0,0,.91-.9.91.91,0,0,0-.91-.91Z"/><path class="cls-5" d="M546.34,375.1h-27.8a.91.91,0,1,0,0,1.81h27.8a.91.91,0,0,0,0-1.81Z"/><path class="cls-5" d="M530.59,371.52H518.54a.91.91,0,1,0,0,1.81h12.06a.91.91,0,1,0,0-1.81Z"/><path class="cls-5" d="M546.34,364h-27.8a.91.91,0,0,0-.91.91.93.93,0,0,0,.91.91h27.8a.91.91,0,0,0,0-1.82Z"/><path class="cls-5" d="M546.34,360.43h-27.8a.91.91,0,0,0,0,1.81h27.81a.91.91,0,1,0,0-1.81Z"/><path class="cls-5" d="M530.59,356.85H518.54a.91.91,0,0,0-.91.91.92.92,0,0,0,.91.9h12.05a.91.91,0,0,0,0-1.81Z"/><path class="cls-5" d="M546.34,349.34h-27.8a.91.91,0,0,0-.91.91.93.93,0,0,0,.91.91h27.8a.91.91,0,0,0,0-1.82Z"/><path class="cls-5" d="M546.34,345.76h-27.8a.91.91,0,1,0,0,1.81h27.8a.91.91,0,1,0,0-1.81Z"/><path class="cls-5" d="M530.59,342.18H518.54a.91.91,0,0,0-.91.91.92.92,0,0,0,.91.9h12.05a.91.91,0,0,0,0-1.81Z"/><circle class="cls-6" cx="231.18" cy="145.51" r="26.83"/><path class="cls-7" d="M261.81,130.15c-2.83-4.37-8.12-7.28-13.25-6.46a18.1,18.1,0,0,0-30.32-10.55,5.61,5.61,0,0,0-5.51-.55,11.64,11.64,0,0,0-4.47,3.58,26,26,0,0,0-3.64,26.49c-.63-2.28,1.66-4.42,4-4.93s4.73,0,7.07-.37c3-.42,5.7-2.16,8.71-2.56a20,20,0,0,1,7.53,1,20.41,20.41,0,0,0,7.53,1c2.53-.3,5.79,9.29,5.74,16.05,0,1.28.26,2.92,1.51,3.19,1.54.34,2.43-1.79,3.9-2.37a2.72,2.72,0,0,1,3.33,1.77,4.43,4.43,0,0,1-.85,4,13,13,0,0,1-3.17,2.75l.61.5c1,1.33,3.08,1.38,4.53.56a9.69,9.69,0,0,0,3.26-3.7c2.68-4.46,5-9.21,6-14.32S264.63,134.51,261.81,130.15Z"/><polygon class="cls-6" points="262.65 615.29 248.16 615.29 241.27 559.41 262.66 559.41 262.65 615.29"/><path class="cls-7" d="M263.16,630.41H218.61v-.57A17.34,17.34,0,0,1,236,612.5h0l8.14-6.17,15.18,6.17h3.89Z"/><polygon class="cls-6" points="288.78 589.71 277.41 598.7 237.35 559.13 254.12 545.87 288.78 589.71"/><path class="cls-7" d="M298.55,601.25,263.6,628.88l-.35-.44a17.35,17.35,0,0,1,2.85-24.36h0l2.56-9.89,15.74-4.57,3.05-2.41Z"/><polygon class="cls-7" points="187.73 353.34 186.85 369.65 191.15 374.85 190.66 391.16 194.83 401.83 197.77 435.8 238.88 577.52 275.93 565.64 235.47 433.53 284.15 432.31 285.8 357.82 277.17 341.14 187.73 353.34"/><polygon class="cls-7" points="279.47 421.08 284.15 432.31 266.05 590.45 240.65 592.3 229.69 415.51 279.47 421.08"/><polygon class="cls-8" points="254.58 188.04 246.24 176.5 219.31 177.58 218.79 186.47 200.91 355.43 218.47 355.03 240.28 360.12 282.22 345.44 254.58 188.04"/><path class="cls-1" d="M207.81,358.55H166.52l10.77-76.05,4.37-30.83s-3.09-22-4.59-33.54a6.5,6.5,0,0,1,.61-3.58,11.93,11.93,0,0,1,1.9-2.87c5-5.79,16.32-10.81,23.41-13.56,3.65-1.41,6.18-2.22,6.18-2.22l9.62-9.43C232.6,203.72,207.81,358.55,207.81,358.55Z"/><path class="cls-1" d="M249.35,181.76l13.1,7.51s38.8,6.37,42.57,20.95l-14.28,43.11v90.61l-34.62,13.88S226.25,211.44,249.35,181.76Z"/><polyline class="cls-9" points="236.09 411.85 229.69 485.99 240.58 572.28"/><path class="cls-6" d="M81.54,273.73a9,9,0,0,1,13.36,3.42l31.74-3.59-7.52,14.8-29,1.14a9,9,0,0,1-8.59-15.77Z"/><polygon class="cls-1" points="214.77 208.94 223.85 214.36 172.98 286.03 110.88 291.31 108.41 273.58 154.16 259.85 176.78 216.02 214.77 208.94"/><path class="cls-6" d="M399.92,267.67a9,9,0,0,0-12.54,2.06,8.87,8.87,0,0,0-.81,1.36l-31.74-3.59,7.52,14.8,29,1.14a9,9,0,0,0,8.58-15.77Z"/><polygon class="cls-1" points="266.69 202.88 257.61 208.31 308.49 279.98 370.58 285.25 373.05 267.52 327.3 253.8 304.69 209.96 266.69 202.88"/><path class="cls-3" d="M143,186v-1H127.13V163h-.94v22.1H108V168c-.32.25-.63.51-.95.78v16.29H95c-.14.31-.27.63-.39,1h12.41v18.56H91.64c0,.32,0,.63.07.95H107v14.81H95.55c.15.32.29.63.45.94h11v12.46H108V221.28h18.2v12.46h.94V221.28H143v-.94H127.13a14.81,14.81,0,0,1,14.81-14.81H143v-.95H127.13V186Zm-16.82,34.32H108V205.53h18.2Zm0-15.76H108v-.37A18.19,18.19,0,0,1,126.19,186h0Z"/><path class="cls-1" d="M281,54.92a.51.51,0,0,1-.66-.28L279,51.47a.51.51,0,0,1,.94-.39l1.31,3.18A.51.51,0,0,1,281,54.92Z"/><path class="cls-1" d="M307.49,31.38h0l-3.93-9.48a5.94,5.94,0,0,0-7.76-3.22h0L275.71,27a6,6,0,0,0-3.22,7.76h0l21.53,52A5.94,5.94,0,0,0,301.78,90h0l20.1-8.31a5.94,5.94,0,0,0,3.21-7.76h0l-14.81-35.8h0a.37.37,0,0,0,.2-.49h0L308,31.58a.37.37,0,0,0-.49-.2Z"/><path class="cls-8" d="M302.41,22.42l21.5,52a4.44,4.44,0,0,1-2.36,5.78l0,0-20.19,8.35a4.44,4.44,0,0,1-5.8-2.4l-21.5-52a4.44,4.44,0,0,1,2.41-5.79h0l2.44-1a2.12,2.12,0,0,0,2.12,2.1,2.16,2.16,0,0,0,.8-.17l11.51-4.76a2,2,0,0,0,.67-.45,2.1,2.1,0,0,0,0-3h0L296.62,20A4.44,4.44,0,0,1,302.41,22.42Z"/><path class="cls-1" d="M278.72,49.5a.52.52,0,0,1-.66-.28l-1.31-3.17a.5.5,0,1,1,.93-.39L279,48.84A.51.51,0,0,1,278.72,49.5Z"/><path class="cls-1" d="M276.08,43.37a.5.5,0,0,1-.66-.27l-1.32-3.18a.51.51,0,0,1,.28-.66.5.5,0,0,1,.66.27h0l1.31,3.18A.5.5,0,0,1,276.08,43.37Z"/><path class="cls-4" d="M283.48,26.08a.5.5,0,0,1,.27-.66l3.18-1.32a.51.51,0,0,1,.66.28.5.5,0,0,1-.27.66l-3.18,1.31A.5.5,0,0,1,283.48,26.08Z"/><circle class="cls-4" cx="288.9" cy="23.83" r="0.51"/><path class="cls-8" d="M398.57,248.71h-.19a4.66,4.66,0,0,1-3.75-2.13,52.64,52.64,0,0,0-11.1-12c-2.6-2.08-5.32-4-8-5.89-6.78-4.83-13.18-9.37-16.72-15.65-7.74-13.7,1.37-32.78,14.39-41.33,14.6-9.6,33.8-11.1,52.38-11.3l5.79,0h0a552.13,552.13,0,0,1,99.8,9.12c10.95,2,22.4,4.5,31.61,10.5s14.72,15.37,14.18,24c-.8,12.52-14.07,21.88-26.16,24.32-11.52,2.33-23.49.76-36.16-.91-2.8-.37-5.69-.75-8.55-1.08-31.09-3.59-89.49,7.49-92,8l-2.45.47-9.51,12.24A4.56,4.56,0,0,1,398.57,248.71Z"/><path class="cls-4" d="M537,187.62H405.61a2.86,2.86,0,0,1,0-5.72H537a2.86,2.86,0,1,1,0,5.72Z"/><path class="cls-4" d="M537,205.17H405.61a2.86,2.86,0,0,1,0-5.72H537a2.86,2.86,0,1,1,0,5.72Z"/><path class="cls-4" d="M420.92,222.72H405.61a2.86,2.86,0,0,1,0-5.72h15.31a2.86,2.86,0,0,1,0,5.72Z"/><circle class="cls-4" cx="400.19" cy="254.75" r="13.9"/><path class="cls-1" d="M400.19,268.81a14.07,14.07,0,1,1,14.07-14.06A14.05,14.05,0,0,1,400.19,268.81Z"/><path class="cls-4" d="M399.15,260.3h-.09a1.8,1.8,0,0,1-1.34-.7l-2.33-3a1.83,1.83,0,0,1,.32-2.55h0l.09-.06a1.82,1.82,0,0,1,2.55.31h0a1.33,1.33,0,0,0,1.86.23l.15-.14,4.71-5a1.82,1.82,0,0,1,2.57-.07l.08.07a1.82,1.82,0,0,1,.07,2.57h0l-7.32,7.72A1.79,1.79,0,0,1,399.15,260.3Z"/><path class="cls-1" d="M140.72,75.12,132.21,24a4,4,0,0,1,3.26-4.55L174.08,13a4,4,0,0,1,4.55,3.25l8.5,51.13A4,4,0,0,1,183.88,72l-38.61,6.42A4,4,0,0,1,140.72,75.12Z"/><path class="cls-4" d="M141.11,59.18l-5.47-32.87a3.71,3.71,0,0,1,3.05-4.26l33.19-5.52a3.71,3.71,0,0,1,4.26,3l7.56,45.49a3.71,3.71,0,0,1-3,4.27L160.1,72.75A16.51,16.51,0,0,1,141.11,59.18Z"/><path class="cls-8" d="M142.54,34.59a3.64,3.64,0,0,1,3-4.17l23-3.83a3.62,3.62,0,1,1,1.19,7.15l-23,3.83A3.64,3.64,0,0,1,142.54,34.59Z"/><path class="cls-8" d="M144.39,45.7a3.62,3.62,0,0,1,3-4.16l23-3.83a3.62,3.62,0,0,1,1.19,7.14h0l-23,3.83A3.62,3.62,0,0,1,144.39,45.7Z"/><path class="cls-8" d="M146.24,56.81a3.61,3.61,0,0,1,3-4.16l23-3.83A3.62,3.62,0,0,1,173.42,56l-23,3.83A3.61,3.61,0,0,1,146.24,56.81Z"/><path class="cls-1" d="M90.65,266.81c-6.42-.13-40.88-1.12-46.54-.88-.32-1.12-11,12.61-11.29,12.7a1.56,1.56,0,0,0,.06,2.21,1.62,1.62,0,0,0,.46.31c.63.38,56.2-.65,56.87-.52a1.53,1.53,0,0,0,1.38-.89l.37-.84c0-1.42.51-8.69.09-9.94a1.53,1.53,0,0,0-.79-2A1.42,1.42,0,0,0,90.65,266.81Z"/><path class="cls-10" d="M92,278.9c-.32.79-.74,1.77-1.75,1.73l-56.28.64a1.57,1.57,0,0,1-1.54-1.57,1.6,1.6,0,0,1,.19-.71Z"/><path class="cls-1" d="M44.38,265.76c-.61-1-15.66-75.5-16.91-76.12L17.2,177.07l-.92-.69c-1.28-.7-4.34-.23-4.07,1.73h0c2.42,11.57,17.94,77.47,18.28,87.74l1.87,13.09a1.61,1.61,0,0,0,1.83,1.36l.16,0a3.1,3.1,0,0,0,2.49-1.8C37,278,45.08,266,44.38,265.76Z"/><path class="cls-10" d="M17.19,177.07l19.65,101.4c-.66,1.66-3.73,2.83-4.45.65,0,0-20.15-101-20.17-101C12,175.68,16,175.6,17.19,177.07Z"/><polygon class="cls-8" points="17.79 181.22 27.77 195.13 38.97 248.32 33.76 252.87 17.79 181.22"/><path class="cls-7" d="M84.21,274l2.76.11a10.76,10.76,0,0,1,.4-2.39c.41-2,.79-4.32-.94-4.31-1.17-.11-1.56,1.37-1.77,3A22,22,0,0,1,84.21,274Z"/><path class="cls-7" d="M68.37,270.27l1.86.06.9,0c0-1,.44-3-.67-3.52a1.39,1.39,0,0,0-.57-.12c-1-.06-1.35.74-1.45,1.66-.06.55,0,1.14,0,1.6A2.64,2.64,0,0,1,68.37,270.27Z"/><path class="cls-7" d="M62.86,270l1.87.08.89,0c0-1.13.58-3.61-1.24-3.64s-1.46,2-1.5,3.25A2.46,2.46,0,0,1,62.86,270Z"/><path class="cls-7" d="M57.35,269.82l1.86.07.9,0c0-1.13.58-3.6-1.24-3.64s-1.46,2-1.51,3.26C57.36,269.64,57.35,269.74,57.35,269.82Z"/><path class="cls-7" d="M51.83,269.6l1.87.08.89,0c0-1.13.58-3.6-1.23-3.64s-1.47,2-1.51,3.25A2.46,2.46,0,0,1,51.83,269.6Z"/><path class="cls-7" d="M46.32,269.38l1.86.07.9,0c0-1,.48-3.21-.85-3.59h0a1.58,1.58,0,0,0-.38,0,1.44,1.44,0,0,0-.46,0h0c-1.16.31-1,2.13-1,3.22A2.28,2.28,0,0,1,46.32,269.38Z"/><path class="cls-7" d="M78.64,268.79l2.77.12v-.35a11.91,11.91,0,0,0,0-2c-.1-.73-.41-1.3-1.28-1.32s-1.25.52-1.39,1.26c0,.12,0,.25-.07.38h0C78.64,267.58,78.69,268.31,78.64,268.79Z"/><path class="cls-7" d="M73.13,268.57l2.76.11a18.45,18.45,0,0,0,0-2.23c-.07-.76-.38-1.39-1.29-1.4s-1.27.56-1.41,1.33S73.18,268,73.13,268.57Z"/><path class="cls-7" d="M67.62,268.35l.82,0,1.94.08c0-.42.07-1,.08-1.62a4.87,4.87,0,0,0,0-.54c-.07-.8-.36-1.47-1.3-1.49s-1.3.62-1.42,1.43S67.67,267.82,67.62,268.35Z"/><path class="cls-7" d="M78.7,273.76l2.76.11c0-1.13.58-3.6-1.24-3.64S78.8,272.63,78.7,273.76Z"/><path class="cls-7" d="M73.18,273.54l2.76.11c0-1.13.58-3.61-1.23-3.64S73.29,272.41,73.18,273.54Z"/><path class="cls-7" d="M67.67,273.32l2.76.1c0-.8.3-2.29-.2-3.09a1.17,1.17,0,0,0-1-.54,1.2,1.2,0,0,0-.8.2C67.51,270.57,67.76,272.4,67.67,273.32Z"/><path class="cls-7" d="M62.16,273.1l2.76.11c0-.81.28-2.29-.19-3.09a1.15,1.15,0,0,0-1.05-.56,1.19,1.19,0,0,0-.8.2C62,270.36,62.24,272.19,62.16,273.1Z"/><path class="cls-7" d="M56.64,272.88l2.77.1c0-.8.29-2.29-.2-3.09a1.13,1.13,0,0,0-1-.54,1.22,1.22,0,0,0-.81.2C56.48,270.13,56.73,272,56.64,272.88Z"/><path class="cls-7" d="M51.13,272.65l2.76.12c0-.81.29-2.29-.19-3.09a1.15,1.15,0,0,0-1.05-.56,1.2,1.2,0,0,0-.8.2C51,269.92,51.22,271.75,51.13,272.65Z"/><path class="cls-7" d="M45.62,272.44l2.76.1c0-.8.28-2.28-.2-3.09a1.13,1.13,0,0,0-1-.54,1.19,1.19,0,0,0-.8.2C45.45,269.69,45.71,271.52,45.62,272.44Z"/></g></g></svg>