<svg xmlns="http://www.w3.org/2000/svg" viewBox="0 0 1375.72 772"><defs><style>.cls-1{fill:#0d0d0d;}.cls-2{fill:#f86126;}.cls-3{fill:#e7ad8d;}</style></defs><title>Recurso 9</title><g id="Capa_2" data-name="Capa 2"><g id="Capa_2-2" data-name="Capa 2"><rect class="cls-1" width="1368" height="771.61" transform="translate(1368 771.61) rotate(-180)"/><path class="cls-2" d="M1375.72,772V0H910.56c-10.93,18.39-16.46,38.53-14.49,59.24C900.2,102.5,936,138,972.52,168.93c35.65,30.13,79,60.12,96.06,99.82,22.15,51.6-23.27,101.35-65.87,138-25.26,21.73-52.54,42.13-75.92,65.12-21.76,21.41-38.89,45.08-53.63,69.69-26.92,44.92-47.72,96.2-97,130.28-53,36.67-126,49.72-192.7,64.62-40.54,9-81.94,19.74-119.32,35.55Z"/><path class="cls-3" d="M322.94,768c-.89-1.55-2.2-3.79-3.89-6.4,0,0-17.49-30.26-49.84-46.66-24.71-12.52-52.67-17-81-19.32-32.9-2.69-62.85-5.28-93-17.87-58.77-24.56-79.74-31.1-87.57-48.42A55.66,55.66,0,0,1,2.94,611q-.81,47.54-1,96-.13,30.69,0,61Z"/></g></g></svg>