<svg id="Capa_1" data-name="Capa 1" xmlns="http://www.w3.org/2000/svg" viewBox="0 0 532.26 130.71"><defs><style>.cls-1{fill:#fff;}</style></defs><title>blanco</title><path class="cls-1" d="M392.07,235.81h14.3v26.87h22.76v-27h14.48v67H429.27V275.62H406.5v27.13H392.07Z" transform="translate(-163.5 -216.69)"/><path class="cls-1" d="M530.22,302.85c-5,0-9.78,0-14.51-.05a2.05,2.05,0,0,1-1.42-1.13c-1.54-4-3-8.07-4.53-12.31H501c-5.32,0-10.64.1-16-.05a2.47,2.47,0,0,0-2.76,1.93c-1.18,3.29-2.41,6.55-3.49,9.87a2.16,2.16,0,0,1-2.45,1.79c-4.48-.09-9,0-13.75,0,1.37-3.49,2.64-6.77,3.95-10q6.13-15.36,12.32-30.72c3.36-8.36,6.78-16.69,10.1-25.07.8-2,2.6-1.32,3.86-1.42,2.84-.21,5.73.1,8.59.17a11,11,0,0,0,1.7-.22Zm-25.84-26.79c-2.64-6.83-5.14-13.32-7.64-19.81h-.68l-7.69,19.81Z" transform="translate(-163.5 -216.69)"/><path class="cls-1" d="M369.93,240.41l-6.15,12.31a24.55,24.55,0,0,0-15-3.79c-8.83.64-16.4,4.24-19.62,13.42-2.55,7.29-1.53,14.3,3.83,20.29a20.16,20.16,0,0,0,14.35,6.81c6.92.44,6.92.48,16.54-3.34l6,12a29.7,29.7,0,0,1-12.18,5c-7,1.42-14,1.48-20.86-1-12-4.43-20.37-12.55-23.87-25-2.8-10-.32-19.19,5.71-27.36a36.44,36.44,0,0,1,24.84-14.91,39.44,39.44,0,0,1,25.62,5.07C369.38,240.06,369.65,240.24,369.93,240.41Z" transform="translate(-163.5 -216.69)"/><path class="cls-1" d="M574.14,302.75H559.33c0-.65-.1-1.32-.1-2,0-8.54-.07-17.08,0-25.62a8.54,8.54,0,0,0-1.53-5.15q-8-11.89-16-23.82c-2.21-3.3-4.35-6.66-6.66-10.21a72.24,72.24,0,0,1,16.56,0A2.46,2.46,0,0,1,553,237q6.21,9.47,12.34,19c.91,1.4,1.77,1.43,2.68,0q6.06-9.44,12.1-18.89a3.09,3.09,0,0,1,3-1.63c4.1.08,8.2,0,12.31,0a24.52,24.52,0,0,1,2.86.41c-1.79,2.75-3.49,5.38-5.22,8q-5.74,8.63-11.52,17.24c-2.3,3.42-4.63,6.82-6.86,10.27a4.15,4.15,0,0,0-.49,2.16c0,8.92,0,17.85,0,26.77Z" transform="translate(-163.5 -216.69)"/><path class="cls-1" d="M657.81,302.74c0-.72-.11-1.34-.11-2q0-31.5,0-63c0-1.65.48-2.31,2.16-2.28,4.06.07,8.14,0,12.44,0v3q0,24.47,0,48.93c0,2.61,0,2.48,2.48,2.45,6.41-.07,12.82,0,19.23,0,1.25,0,1.82.49,1.79,1.84-.07,3.64,0,7.28,0,11.05Z" transform="translate(-163.5 -216.69)"/><path class="cls-1" d="M617.41,302.62V235.77H631.8c.15,1.71.4,3.21.4,4.72q0,29.55,0,59.12c0,2.86-.27,3.18-3.17,3.22-3.65.05-7.31,0-11,0A3.19,3.19,0,0,1,617.41,302.62Z" transform="translate(-163.5 -216.69)"/><path class="cls-1" d="M224.36,311.84c-10.76,0-24.86-10.58-26.21-27.08-1.46-18,12-31.56,26.19-32.73,0,2.55,0,5.08-.05,7.61,0,.26-.67.62-1.08.74a22.43,22.43,0,0,0-13.6,10.32c-4.31,7.36-4.43,14.87-.2,22.39a24.83,24.83,0,0,0,8.78,8.74c1.52.95,3.43,1.27,5.13,1.93.4.16,1,.55,1,.84C224.4,307,224.36,309.43,224.36,311.84Z" transform="translate(-163.5 -216.69)"/><path class="cls-1" d="M258.64,282l-7.25,7.4c-.06,0-.16-.05-.17-.09-.86-2.75-.86-2.75-4-2.75-4,0-7.94,0-11.9,0-1.3,0-1.88-.4-1.82-1.77.08-1.79,0-3.59,0-5.38,0-1,.37-1.29,1.4-1.26,4.67.14,9.34.18,14,.23a1.73,1.73,0,0,0,2-1.84c0-.62,0-1.25,0-1.58Z" transform="translate(-163.5 -216.69)"/><path class="cls-1" d="M233.62,251.73c2.71.81,5.14,1.51,7.54,2.32.29.1.51.84.52,1.29,0,6.48,0,13,0,19.58h-8.08Z" transform="translate(-163.5 -216.69)"/><path class="cls-1" d="M233.48,290h8a3.08,3.08,0,0,1,.23.71c0,6,0,12.05-.05,18.07a2.42,2.42,0,0,1-1.33,1.64,41.66,41.66,0,0,1-4.3,1.43c-1.83.6-2.53.16-2.53-1.67C233.47,303.52,233.48,296.86,233.48,290Z" transform="translate(-163.5 -216.69)"/><path class="cls-1" d="M202.3,254.36c-.34.4-.6.91-.81.89a2.91,2.91,0,0,1-1.7-.53c-1.95-1.84-3.8-3.78-5.69-5.68q-5.39-5.43-10.79-10.84c-.7-.7-1.53-1.5-.59-2.38.26-.24,1.64.3,2.17.82,5.46,5.35,10.85,10.77,16.25,16.19A13.9,13.9,0,0,1,202.3,254.36Z" transform="translate(-163.5 -216.69)"/><path class="cls-1" d="M256.34,308.63a7.29,7.29,0,0,1,1.3.84c5.55,5.5,11.11,11,16.59,16.57.48.48.44,1.48.64,2.24-.77-.21-1.77-.18-2.26-.67q-8.31-8.16-16.45-16.47a3.73,3.73,0,0,1-.71-1.81C255.42,309.19,256,308.91,256.34,308.63Z" transform="translate(-163.5 -216.69)"/><path class="cls-1" d="M176.89,283.09c-3.9,0-7.81,0-11.71,0-.56,0-1.12-.57-1.68-.88.52-.36,1-1,1.56-1q11.81-.11,23.61,0c.62,0,1.23.66,1.84,1-.64.32-1.27.91-1.91.92-3.9.09-7.81,0-11.71,0Z" transform="translate(-163.5 -216.69)"/><path class="cls-1" d="M280.37,283.09H269a3.94,3.94,0,0,1-1.51-.11c-.39-.18-.63-.68-.94-1a4.38,4.38,0,0,1,1-.78,3.06,3.06,0,0,1,1.14-.07h23.23c.19,0,.42-.06.57,0,.51.27,1,.59,1.48.9-.5.35-1,1-1.5,1-4,.09-8.07.05-12.1.05Z" transform="translate(-163.5 -216.69)"/><path class="cls-1" d="M227.77,230.12c0-4,0-8,0-11.93,0-.5.56-1,.86-1.5.38.48,1.08,1,1.08,1.44q.12,12.23,0,24.44c0,.4-.68.79-1,1.19-.32-.44-.92-.88-.92-1.32C227.74,238.33,227.76,234.23,227.77,230.12Z" transform="translate(-163.5 -216.69)"/><path class="cls-1" d="M228,320.58c1.49-.39,1.91.14,1.9,1.52,0,7.75,0,15.5,0,23.25a3.4,3.4,0,0,1-.34,1.62,1.36,1.36,0,0,1-1.11.43c-.22,0-.41-.52-.58-.82a1,1,0,0,1,0-.38q0-12.49,0-25A2.61,2.61,0,0,1,228,320.58Z" transform="translate(-163.5 -216.69)"/><path class="cls-1" d="M275.54,236.25a17.17,17.17,0,0,1-1.18,1.58q-8.3,8.29-16.6,16.57c-.66.66-1.35,1.52-2.16.57-.25-.29.23-1.59.72-2.09,5.25-5.36,10.56-10.66,15.86-16a3.83,3.83,0,0,1,1.47-1.16C274.13,235.63,274.75,236,275.54,236.25Z" transform="translate(-163.5 -216.69)"/><path class="cls-1" d="M202.22,309.82a15.81,15.81,0,0,1-1,1.24c-5.58,5.6-11.15,11.2-16.78,16.74-.42.41-1.27.37-1.92.53.14-.69.05-1.61.47-2q8.35-8.54,16.87-16.91a2.89,2.89,0,0,1,1.71-.47C201.76,308.91,202,309.46,202.22,309.82Z" transform="translate(-163.5 -216.69)"/><path class="cls-1" d="M251.23,261.31a29.21,29.21,0,0,1,7.41,15.18l-.44.33c-2.38-2.41-4.77-4.83-7.14-7.26a1.08,1.08,0,0,1-.29-.68c0-2.46,0-4.93,0-7.39Z" transform="translate(-163.5 -216.69)"/><path class="cls-1" d="M250.75,302.39c0-2.35,0-4.71,0-7.07a1.08,1.08,0,0,1,.22-.71c2.43-2.49,4.87-5,7.49-7.31a27,27,0,0,1-7.22,15.27Z" transform="translate(-163.5 -216.69)"/><path class="cls-1" d="M281.48,260.73a6,6,0,0,1-1.25,1c-4.87,2.07-9.75,4.13-14.66,6.1-.44.17-1.15-.31-1.73-.49.27-.48.42-1.23.82-1.4q7.36-3.2,14.8-6.19c.54-.22,1.32.18,2,.29Z" transform="translate(-163.5 -216.69)"/><path class="cls-1" d="M177.06,304.76c-.28-.25-.86-.56-.83-.79.08-.57.3-1.41.71-1.58q7.35-3.21,14.81-6.2c.43-.17,1.09.22,1.65.36-.18.54-.2,1.41-.55,1.56-5,2.15-10,4.21-15,6.28Z" transform="translate(-163.5 -216.69)"/><path class="cls-1" d="M193.61,267.6c-.59.11-1.28.48-1.76.29-4.46-1.78-8.88-3.66-13.31-5.52-.18-.07-.31-.26-.49-.3-1.1-.27-2.34-.59-1.72-2,.14-.33,1.81-.31,2.6,0,4.3,1.71,8.55,3.54,12.79,5.38a13.39,13.39,0,0,1,2,1.37Z" transform="translate(-163.5 -216.69)"/><path class="cls-1" d="M243.33,317.05c.51.5,1.25.91,1.51,1.52,2,4.59,3.88,9.21,5.69,13.86.25.64-.12,1.52-.2,2.29-.55-.46-1.34-.8-1.6-1.38-2-4.51-3.92-9.06-5.8-13.63a7.62,7.62,0,0,1-.23-2.21Z" transform="translate(-163.5 -216.69)"/><path class="cls-1" d="M214.71,246.42a1.54,1.54,0,0,1-2.36-1c-1.82-4.47-3.67-8.93-5.49-13.39a3.79,3.79,0,0,1-.39-1.47c0-.41.3-1.08.59-1.15a1.48,1.48,0,0,1,1.24.53,9,9,0,0,1,.85,1.89c1.85,4.51,3.71,9,5.54,13.55A3.09,3.09,0,0,1,214.71,246.42Z" transform="translate(-163.5 -216.69)"/><path class="cls-1" d="M206.24,333.65c.72-1.83,1.34-3.43,2-5,1.36-3.33,2.69-6.68,4.16-10,.27-.59,1.14-.9,1.73-1.34.1.7.49,1.51.26,2.08-1.87,4.78-3.83,9.52-5.84,14.23a2.24,2.24,0,0,1-1.34,1C207,334.74,206.58,334,206.24,333.65Z" transform="translate(-163.5 -216.69)"/><path class="cls-1" d="M242.75,246.6a7.33,7.33,0,0,1,.18-2.17q2.81-7,5.79-13.87c.23-.53,1.05-.8,1.59-1.19.12.7.54,1.53.31,2.1q-2.77,7.08-5.8,14.06c-.25.59-1,.95-1.56,1.42Z" transform="translate(-163.5 -216.69)"/><path class="cls-1" d="M264.16,295.89c1.45.5,2.92.94,4.34,1.53,3.79,1.56,7.58,3.15,11.33,4.84.6.27,1,1.07,1.43,1.62-.73.15-1.59.64-2.16.41q-7.22-2.91-14.31-6.09c-.52-.23-.76-1.07-1.12-1.64Z" transform="translate(-163.5 -216.69)"/></svg>