<svg xmlns="http://www.w3.org/2000/svg" viewBox="0 0 750.39 502.96"><defs><style>.cls-1{fill:#ffac69;}.cls-2{fill:#e5e5e5;}.cls-3{fill:#fff;}.cls-4{fill:#f86126;}.cls-5{fill:#9e616a;}.cls-6{fill:#2f2e41;}.cls-7{fill:#3f3d56;}</style></defs><title>Recurso 4</title><g id="Capa_2" data-name="Capa 2"><g id="Capa_4" data-name="Capa 4"><path class="cls-1" d="M750.39,267.31c0,101.74-64.48,188.42-154.8,221.4a233,233,0,0,1-42.36,11.12A237.29,237.29,0,0,1,434.9,489.08C344,456.37,279.06,369.4,279.1,267.26c0-130.09,105.51-235.59,235.65-235.59A235.64,235.64,0,0,1,750.39,267.31Z"/><rect id="effaf695-3865-40c6-8918-ced0238239c2" class="cls-2" width="204.69" height="231.61"/><rect id="f33d627f-c769-4bde-9d74-ef156faf640e" class="cls-3" x="3.65" y="4.9" width="197.03" height="221.81"/><circle id="b5fd4af9-5b07-4da2-8ccf-5b3d4ac887f6" class="cls-2" cx="102.34" cy="207.78" r="11.04" transform="matrix(0.07, -1, 1, 0.07, -112.17, 295.14)"/><rect id="f05405a0-af73-4807-bbd1-d761cdd06c65" class="cls-2" x="37.04" y="83.42" width="63.44" height="6.49"/><rect id="a05e4a04-50b7-46b0-b842-8db21044ae7a" class="cls-4" x="37.04" y="102.86" width="95.74" height="6.49"/><rect id="bdce3bac-3998-4a72-bc14-4aa79023038d" class="cls-2" x="37.04" y="122.43" width="86.34" height="6.49"/><rect id="e1177af0-2f80-4461-b67e-43945f3b6fee" class="cls-4" x="37.04" y="141.48" width="133.33" height="6.49"/><rect id="b290cdc3-2096-427b-bfd4-6b657da823ea" class="cls-2" x="38.43" y="159.63" width="108.66" height="6.49"/><g id="b96c6486-fa38-4cba-8e5e-13dca7f44a0c"><path id="b0fbfc35-67c9-42b4-b2fe-33d0d7288754-162" class="cls-5" d="M291.06,376.88a21.93,21.93,0,0,1,2.14,2.57l100-2.45,11.68-21.33,34.49,13.41-17,39.77a16.16,16.16,0,0,1-16.78,9.68l-113-13.66a21.18,21.18,0,1,1-3.49-29.75,20.36,20.36,0,0,1,2,1.76Z"/><path id="a6a8f1c9-3ab8-4f6f-ba9b-45acc2f7af89-163" class="cls-4" d="M425.72,255.09l46.82-15.34,13.75-18.86,66.92,4,9.83,22,35.68,16.86-5.48,101.84-9.38,95.32c-48.25-25-138.28-5.94-139.06-5.63Z"/><path id="fc06e97d-785e-4845-9aa0-60a5889f9ce3-164" class="cls-4" d="M435.73,393l-47.62-19.06.2-.85c.2-.85,20.47-85.55,23.16-99.17,2.81-14.18,13-18.1,13.48-18.26l.32-.11,18.85,5.73,8.28,65Z"/><path id="b248559b-61d8-49e2-8eef-81cc9521c19e-165" class="cls-5" d="M538.56,456.69a20.72,20.72,0,0,1,3.34.18l66.23-75-7.71-23,33.28-16.18,17.61,39.5A16.14,16.14,0,0,1,647,401l-86.87,73.6a21.18,21.18,0,1,1-24.19-17.67,19.18,19.18,0,0,1,2.62-.24Z"/><path id="b0e9bc84-32e8-4599-bd8d-d35670d3692b-166" class="cls-4" d="M602.84,389.14l-27.63-65L586,278.89l11.61-14.66a6.65,6.65,0,0,1,5.37,0c4.29,1.72,7.93,7,10.84,15.69l25.89,73.75Z"/><path id="b58b0f1b-b11b-4f57-8de2-a939101b4938-167" class="cls-6" d="M459.51,196.81v-49a65.65,65.65,0,0,1,131.3-.44h0v49.43a8.84,8.84,0,0,1-8.82,8.82H468.32A8.83,8.83,0,0,1,459.51,196.81Z"/><circle id="ba54abe3-4119-45e5-b5c1-150877d750f7" class="cls-5" cx="511.66" cy="156.36" r="48.13"/><path id="b6bcc4bf-1738-426f-8fbf-3ee273a728b5-168" class="cls-6" d="M444,151.74a52,52,0,0,1,51.94-51.93h9.8a52,52,0,0,1,51.93,51.93v1H536.93l-7.06-19.78-1.42,19.78h-10.7l-3.56-10-.71,10H444Z"/><path id="be96ad09-85ff-4345-abef-5a49918f7c18-169" class="cls-6" d="M506.93,211.14a8.69,8.69,0,0,1-.69-9.23c10.38-19.74,24.92-56.24,5.62-78.74l-1.38-1.62h56v84.11l-50.89,9a9.14,9.14,0,0,1-1.56.14,8.77,8.77,0,0,1-7.12-3.64Z"/></g><g id="b2dad932-78e1-44e1-9682-073c8202f887"><path id="e043db59-b600-449e-8c52-e1eb73379667-170" class="cls-4" d="M102.17,18a23.49,23.49,0,1,0,23.48,23.49h0A23.48,23.48,0,0,0,102.17,18Zm0,7a7,7,0,1,1-7,7.05h0A7.05,7.05,0,0,1,102.17,25.08Zm0,33.92a17.11,17.11,0,0,1-14.1-7.52c.12-4.69,9.4-7.28,14.1-7.28s14,2.59,14.09,7.28A17.12,17.12,0,0,1,102.17,59Z"/></g><path id="bcfa45dc-2c5a-4ac5-8376-9a2a23e225d0-171" class="cls-7" d="M102.44,212c9.68-17.74,32.85-29,51.81-18.84,8.54,4.55,15.32,12.61,17.48,22.13,2.5,11.07-2.77,21.61-8.21,30.91-3,5-6.18,10-8.62,15.31-2.53,5.51-4.34,11.88-2.43,17.87,1.71,5.4,6,9.33,10.71,12.22A80.19,80.19,0,0,0,179.65,299a96.92,96.92,0,0,0,36.76,4.76,100.64,100.64,0,0,0,18.33-3c6.38-1.63,12.65-3.7,19-5.29,10.68-2.65,22.85-4,33,1.36,9.84,5.18,14.24,16,15.6,26.54,2.52,19.46-5.2,39.65-19.12,53.27-6.69,6.54-15.1,11.94-24.25,14.15-8,1.93-18.26,1.8-24.62-4.17-7.09-6.67-5.42-17.36.21-24.39,7.2-9,19.39-11.13,30.26-11.35,12.37-.25,24.73,1.59,37.1.45a56.79,56.79,0,0,0,17.54-4.24,44.53,44.53,0,0,0,13.22-8.94c7.64-7.42,12.78-17.3,15.34-27.57,3.09-12.35,2.42-25.34,0-37.75a169.59,169.59,0,0,0-4.92-18.92c-.82-2.62-5-1.5-4.13,1.14,7.37,23.36,11.48,50.38-2.76,72.08a42.88,42.88,0,0,1-25.66,18.47c-12.33,3.07-25.26,1.55-37.78,1.1-11.92-.44-25,0-35.21,7-8.37,5.69-14.23,16.51-11.7,26.73,2.44,9.86,11.91,14.85,21.38,15.62,9.94.81,19.72-2.52,28.06-7.74,17.37-10.85,28.91-29.93,31.33-50.16,1.25-10.54,0-21.89-4.81-31.46a30.88,30.88,0,0,0-11.31-12.61,37.28,37.28,0,0,0-16.12-5c-12.82-1.18-25.13,3.22-37.29,6.59a103.34,103.34,0,0,1-19,3.63,94.11,94.11,0,0,1-18.76-.31,91.77,91.77,0,0,1-18.17-4,72.77,72.77,0,0,1-16.5-7.46c-4.56-2.92-8.51-7.09-8.73-12.78-.24-6.17,2.87-11.94,5.83-17.15,5.84-10.27,13.06-20.32,14.59-32.35,1.33-10.53-2.9-20.9-10.21-28.4a38.4,38.4,0,0,0-28.38-11.78c-10.85.32-21.23,5-29.21,12.28a48.09,48.09,0,0,0-9.86,12.52c-1.32,2.42,2.38,4.58,3.7,2.16Z"/></g></g></svg>