<svg xmlns="http://www.w3.org/2000/svg" viewBox="0 0 514.8 508.84"><defs><style>.cls-1{fill:#f1f1f1;}.cls-2{fill:#e5e5e5;}.cls-3{fill:#fff;}.cls-4{fill:#f86126;}.cls-5{fill:#9f616a;}.cls-6{fill:#3f3d56;}.cls-7{fill:#2f2e41;}.cls-8{fill:#ffb7b7;}.cls-9{fill:#cbcbcb;}</style></defs><title>Recurso 1</title><g id="Capa_2" data-name="Capa 2"><g id="Capa_1-2" data-name="Capa 1"><path class="cls-1" d="M482.76,92.94c-3.27,36-12.58,74-27.18,110.6-18.05,45.3-42.72,85.2-71.34,115.38l-1.58-1.38c28.47-30,53-69.77,71-114.88,16.25-40.77,25.91-83.19,28-122.67l2,.34Q483.33,86.59,482.76,92.94Z"/><path class="cls-1" d="M495.77,302C455.58,366,406.82,411.67,358.47,430.69l-1-1.8c48-18.88,96.48-64.33,136.49-128Z"/><path class="cls-1" d="M481.78,137.76c-3.26,36-12.57,74-27.17,110.6-18.06,45.3-42.73,85.2-71.34,115.39l-1.59-1.39c28.48-30,53-69.76,71-114.87,16.25-40.77,25.92-83.19,28-122.67l2,.34Q482.37,131.42,481.78,137.76Z"/><path class="cls-2" d="M30.58,230.2H4.21a3.75,3.75,0,0,1-2.93-1.41,3.66,3.66,0,0,1-.71-3.11,71.78,71.78,0,0,0-.46-33.61,3.73,3.73,0,0,1,1.45-3.93c13.56-9.75,24.24-9.47,31.74.84a3.7,3.7,0,0,1,.65,1.59A117.07,117.07,0,0,1,34.28,227,3.72,3.72,0,0,1,30.58,230.2Z"/><path class="cls-3" d="M22.41,203.79H13.34a1.89,1.89,0,0,1,0-3.78h9.07a1.89,1.89,0,0,1,0,3.78Z"/><path class="cls-3" d="M22.41,210.42H13.34a1.89,1.89,0,0,1,0-3.78h9.07a1.89,1.89,0,0,1,0,3.78Z"/><path class="cls-3" d="M22.41,217.06H13.34a1.9,1.9,0,0,1,0-3.79h9.07a1.9,1.9,0,0,1,0,3.79Z"/><path class="cls-2" d="M509.84,347.94H483.47a3.75,3.75,0,0,1-2.93-1.41,3.67,3.67,0,0,1-.72-3.11,71.65,71.65,0,0,0-.46-33.61,3.75,3.75,0,0,1,1.45-3.93c13.56-9.75,24.24-9.47,31.74.84a3.72,3.72,0,0,1,.66,1.59,117.68,117.68,0,0,1,.33,36.42A3.74,3.74,0,0,1,509.84,347.94Z"/><path class="cls-3" d="M501.66,321.53h-9.07a1.89,1.89,0,0,1,0-3.78h9.07a1.89,1.89,0,0,1,0,3.78Z"/><path class="cls-3" d="M501.66,328.16h-9.07a1.89,1.89,0,0,1,0-3.78h9.07a1.89,1.89,0,1,1,0,3.78Z"/><path class="cls-3" d="M501.66,334.8h-9.07a1.89,1.89,0,0,1,0-3.78h9.07a1.89,1.89,0,0,1,0,3.78Z"/><path class="cls-1" d="M146,448.8l-1.65-22.87a73.93,73.93,0,0,0-34.74-7.79c16.94,13.09,15.58,39.27,27.32,57.18A44.53,44.53,0,0,0,170.11,495l14.1,8.11a74.61,74.61,0,0,0-17.37-60,72.36,72.36,0,0,0-13.57-11.93C150.19,440,146,448.8,146,448.8Z"/><path class="cls-1" d="M444.2,452.12l1.65-22.87a73.93,73.93,0,0,1,34.74-7.79c-16.94,13.09-15.58,39.26-27.32,57.17a44.5,44.5,0,0,1-33.19,19.67L406,506.41a74.6,74.6,0,0,1,17.37-60,72.77,72.77,0,0,1,13.57-11.94C440,443.34,444.2,452.12,444.2,452.12Z"/><circle class="cls-4" cx="287.63" cy="178.22" r="15.75"/><path class="cls-3" d="M295.72,171.66a1.27,1.27,0,0,0-1.76,0,52.21,52.21,0,0,0-8.94,9.13l-1.91-3.7c-.74-1.42-2.88-.17-2.15,1.26l2.8,5.4a1.25,1.25,0,0,0,1.73.42,1.3,1.3,0,0,0,.42-.42,50.36,50.36,0,0,1,9.81-10.34A1.24,1.24,0,0,0,295.72,171.66Z"/><path class="cls-5" d="M217.14,222.89l-23.76-37.3,27.51-14.74,7.22,28.47L279,226.81a11,11,0,1,1-6.26,15Z"/><path class="cls-6" d="M176,140.84c-7.47,11,19.06,50.79,19.06,50.79,1.29-2.78,13.65,28.5,15.71,26.65,5.89-5.25,15.09-19.88,20.21-20.53,2.92-.37-6.79-21.13-6.79-21.13s-4.44-12.25-10.46-27.9a28.13,28.13,0,0,0-20.42-17.86S183.49,129.88,176,140.84Z"/><polygon class="cls-5" points="176.39 497.9 187.68 497.9 193.04 454.38 176.39 454.38 176.39 497.9"/><path class="cls-7" d="M173.51,494.22h3.18l12.4-5,6.64,5h0a14.16,14.16,0,0,1,14.16,14.16v.46H173.51Z"/><polygon class="cls-5" points="228.81 497.9 240.09 497.9 245.46 454.38 228.81 454.38 228.81 497.9"/><path class="cls-7" d="M225.93,494.22h3.18l12.39-5,6.65,5h0a14.16,14.16,0,0,1,14.16,14.16v.46H225.93Z"/><path class="cls-7" d="M233.69,260l-73.38,1.84c-13.94,7.57-14.15,23.95-9.59,43.41,0,0-1.54,11.56,1.54,14.64s4.63,3.09,3.09,8.48,6.6,14.21,5.61,15.2-3.3,6.39-3.3,6.39l7.71,43.93s5.39,76.32,6.94,77.86,3.08,0,1.54,3.85-3.09,2.31-1.54,3.86a56.76,56.76,0,0,1,3.85,4.62H194.8s1.4-7.71,1.4-8.48,1.54-5.39,1.54-6.16-1.36-2.14-1.36-2.14a25.18,25.18,0,0,1-.95-4.8c0-1.54-4.62-60.9-4.62-60.9l9.25-77.08L222.41,400s0,66.29,1.54,67.83,1.54.77.77,3.86-3.85,2.31-1.54,4.62,3.08-1.54,2.31,2.32l-.77,3.85,23.13.33s3.08-6.5,1.54-8.81-1.45-1.68.43-5.46,2.65-4.56,1.88-5.33-.77-4.87-.77-4.87l-3.85-73.76s-.77-77.85-.77-80.16A7.66,7.66,0,0,1,247,301v-3.14l-3-11.12Z"/><circle class="cls-5" cx="189.61" cy="84.59" r="22.8"/><path class="cls-6" d="M201,122.46c4.91,2.92,7.85,8.29,9.54,13.75a130.07,130.07,0,0,1,5.59,31.12L217.93,199,240,266.29c-19.12,16.19-91,3.68-91,3.68s-2.2-.73,0-2.94,4.36-.25,2.15-2.46-.68.25.05-1.95,0-.74-.73-1.47,5.69-7.36,5.69-7.36l-5.88-38.65-7.36-78c8.83-11,26.58-17.54,26.58-17.54l4.59-8.25L197,113.21Z"/><path class="cls-7" d="M208.4,72.47a10.54,10.54,0,0,1,3.76,5.28,74.48,74.48,0,0,0,.05-10.35c-.27-2.42-2-3-4-3.6-1.78-.57-3.8-1.21-4.34-3.56-7.17-7-19.65-6.62-28.19-4.19-4.69,1.34-7.4,3.06-7.64,4.06l-.05.21-.19.1c-3.62,1.81-4.33,7.53-4.28,12,.09,8.44,3,18,4.64,18.8.09,0,.11,0,.15,0h0c2.47-2,5.48.15,6.81,1.3A23.71,23.71,0,0,1,196.4,72.41a38.26,38.26,0,0,0,5.12-.86,10.52,10.52,0,0,1,2.62-.34A7.36,7.36,0,0,1,208.4,72.47Z"/><path class="cls-8" d="M350,278.15l43.87-44.54L405.37,198l-18.59-7.52c-9.22,9.29-18.7,37.74-18.7,37.74l-29.94,40.18c-.24.09-.47.18-.71.29A8.86,8.86,0,1,0,350,278.15Z"/><path class="cls-4" d="M381.7,194.54l23.52,6.81.09,0c8.64-1.68,15.48-16.05,19.7-27.8a16.24,16.24,0,0,0-8.81-20.36h0a16.27,16.27,0,0,0-17,2.59l-11.73,10.09Z"/><polygon class="cls-8" points="361.58 496.58 348.93 496.58 342.92 447.8 361.58 447.8 361.58 496.58"/><path class="cls-7" d="M364.81,492.45h-3.56l-13.9-5.65-7.45,5.65h0A15.87,15.87,0,0,0,324,508.32v.52h40.78Z"/><polygon class="cls-8" points="417.7 496.58 405.05 496.58 399.04 447.8 417.7 447.8 417.7 496.58"/><path class="cls-7" d="M420.93,492.45h-3.56l-13.9-5.65L396,492.45h0a15.87,15.87,0,0,0-15.87,15.87v.52h40.78Z"/><path class="cls-7" d="M437,286.45s1.47,17.72-2.22,34.71S431.08,386,431.08,386L423,479.18,398.59,477l-6.65-155.8-23.63,52.42,2.22,7.39-2.95,1.84s2.21,14.4.73,14.4-5.16,2.22-5.16,2.22l3,76.06L341,474.75l-8.86-107.07,9.6-61.29.74-11.82,3.32.14,1.69-4.94,3.11-8.49Z"/><path class="cls-4" d="M438.26,290.17l.14-.18c7-9.84-3.55-33.49-5.14-36.92l6.71-2.18L438.46,238l-.71-5.73,5.13-5.13v-.13l3-25.85L450.14,184a37.65,37.65,0,0,0-10.7-36.52l-9.92-9.36L417.45,120.3H398l-6.67,12.6a28.36,28.36,0,0,0-21.94,29l1.51,33L365,236.05v7.44l-6.66,7.41,1.45,7.27-5.07,2.17-2.24,10.45c-.92,1.22-7,9.37-7,11.6,0,.33.25.66.78,1,4.17,2.82,27.2,8.57,37.39,4.49,10.86-4.34,54,2.17,54.45,2.24Z"/><circle class="cls-8" cx="405.21" cy="88.78" r="25.77"/><path class="cls-7" d="M402.74,115a69.91,69.91,0,0,0,11.9-1.14c3.89-.9,12.46-7.53,14.8-11.44h0c1.73-2.91,2.77-7.41,3.34-10.68A31.3,31.3,0,0,0,426.66,67a9.81,9.81,0,0,0-4.08-3.3,3.22,3.22,0,0,0-.44-.14,12.2,12.2,0,0,1-6.17-3.6,9.92,9.92,0,0,0-1-1,15,15,0,0,0-6.35-3c-3.76-.9-9.13.23-16,3.36-3.43,1.57-7.25,1.13-10.18.58a1,1,0,0,0-.9.33A6.77,6.77,0,0,1,377,62.16c-1,.07-2.1,1.54-3.38,3.46-.29.44-.62.95-.87,1.26l-.05-.58-.57.66a8.19,8.19,0,0,0,4,13.25,16,16,0,0,0,3.23.43c.66,0,1.34.09,2,.18a12.38,12.38,0,0,1,9.39,7.78A3.23,3.23,0,0,0,395,90.44a2.88,2.88,0,0,0,.73-.4,5.35,5.35,0,0,1,4.84-1,3.61,3.61,0,0,1,1.62,1.74,4.58,4.58,0,0,0,1.8,2c2.68,1.29,3,7.34,2.2,12.4-.79,4.88-2.51,8.44-4.18,8.66-1.29.17-1.44.26-1.53.49l-.07.21.15.19A5.28,5.28,0,0,0,402.74,115Z"/><path class="cls-8" d="M381.37,197.3,369,181.52c-12.61,3.47-35,23.42-35,23.42l-46,19.95a8.86,8.86,0,1,0,5.38,14.35l60.22-16.8Z"/><path class="cls-4" d="M378.4,200.91l19.54-21.79L399,163.69a16.31,16.31,0,0,0-8.09-15.18h0a16.24,16.24,0,0,0-21.58,5.12C362.45,164,355,178.11,358.85,186l0,.08Z"/><path class="cls-2" d="M198.29,282.79l-50.79-26c-3.62-1.85-4.81-6.75-2.67-10.94l33.11-64.66c2.15-4.18,6.83-6.08,10.44-4.23l50.79,26c3.61,1.85,4.81,6.75,2.67,10.94l-33.12,64.66C206.58,282.74,201.9,284.64,198.29,282.79Z"/><path class="cls-3" d="M189.61,270.83,155.1,253.15c-3.38-1.73-4.5-6.32-2.5-10.24l27.51-53.72c2-3.92,6.39-5.69,9.78-4l41.68,21.34c3.38,1.74,4.5,6.33,2.49,10.25L219.12,246C210.18,263.45,204.68,278.55,189.61,270.83Z"/><path class="cls-4" d="M206.67,241.49,176.1,225.84a1.92,1.92,0,0,1,1.73-3.37l30.56,15.65a1.91,1.91,0,0,1-1.72,3.37Z"/><path class="cls-4" d="M179.67,236.06l-7-3.57a1.91,1.91,0,0,1,1.72-3.37l7,3.58a1.91,1.91,0,0,1-1.73,3.36Z"/><path class="cls-4" d="M188.62,249l-19.33-9.9a1.91,1.91,0,0,1-.45-2.66,1.93,1.93,0,0,1,2.18-.71l19.32,9.9a1.91,1.91,0,0,1-1.72,3.37Z"/><path class="cls-4" d="M218.76,217.88,188.2,202.22a1.91,1.91,0,0,1,1.72-3.36l30.57,15.65a1.91,1.91,0,0,1,.45,2.66A1.93,1.93,0,0,1,218.76,217.88Z"/><path class="cls-4" d="M191.77,212.45l-7-3.58a1.91,1.91,0,0,1,1.73-3.36l7,3.57a1.91,1.91,0,0,1-1.72,3.37Z"/><path class="cls-4" d="M200.71,225.42l-19.32-9.89a1.91,1.91,0,0,1,1.72-3.37l19.33,9.9a1.91,1.91,0,0,1-1.73,3.36Z"/><path class="cls-5" d="M156.2,226.49l-11.48-42.71L175.39,178l-1.65,29.32L214,248.77a11,11,0,1,1-10.46,12.4Z"/><path class="cls-6" d="M141.59,135.88c-10.41,8.22,2.95,54.18,2.95,54.18,2.07-2.27,4.47,31.27,7,30.13,7.18-3.25,20.35-14.44,25.43-13.53,2.9.52-.14-22.19-.14-22.19s-.56-13-1.61-29.76a28.13,28.13,0,0,0-14.13-23.16S152,127.67,141.59,135.88Z"/><path class="cls-2" d="M314.76,321.3l-27.71-13.08a4.35,4.35,0,0,1-2.38-2.94,4.2,4.2,0,0,1,.79-3.62,83.41,83.41,0,0,0,16.09-35,4.31,4.31,0,0,1,4.22-3.47c14.14.05,24.7,5.21,31.4,15.34a4.32,4.32,0,0,1,.57,3.63,136.2,136.2,0,0,1-17.5,37.64A4.31,4.31,0,0,1,314.76,321.3Z"/><path class="cls-3" d="M322.91,303l-21.19-10a2.2,2.2,0,0,1,1.88-4h0l21.19,10a2.2,2.2,0,1,1-1.88,4Z"/><path class="cls-3" d="M326.21,296,305,286a2.2,2.2,0,0,1,1.87-4h0l21.19,10a2.2,2.2,0,0,1-1.87,4Z"/><path class="cls-1" d="M297.89,77.12l-2,.22c-8.8-34.56-25.85-58.51-49.31-69.25-29.82-13.65-66.7-4.48-103.83,25.82C105.45,64.36,72.4,112.45,49.73,169.34l-1.92-.87C70.59,111.33,103.8,63,141.34,32.38c37.72-30.77,75.35-40,106-26C271.43,17.43,288.92,41.89,297.89,77.12Z"/><path class="cls-1" d="M80.26,122.14C75.1,133,70.19,144.26,65.67,155.6c-26,65.24-39.18,131.87-38.1,192.68l-2-.21c-1.08-61,12.13-127.9,38.22-193.34,4.53-11.37,9.45-22.66,14.62-33.56Z"/><path class="cls-1" d="M79.28,167c-5.16,10.86-10.06,22.12-14.58,33.46-26,65.24-39.18,131.87-38.11,192.68l-2-.21c-1.08-61,12.14-127.9,38.22-193.35,4.53-11.37,9.46-22.66,14.63-33.55Z"/><ellipse class="cls-9" cx="17.62" cy="178.59" rx="7.34" ry="8.45" transform="matrix(0.55, -0.83, 0.83, 0.55, -140.83, 94.34)"/><ellipse class="cls-9" cx="496" cy="300.53" rx="7.34" ry="8.45" transform="translate(-28.96 547.02) rotate(-56.36)"/></g></g></svg>