<svg xmlns="http://www.w3.org/2000/svg" viewBox="0 0 147.24 147"><defs><style>.cls-1{fill:#fff;}</style></defs><title>icono 7</title><g id="Capa_2" data-name="Capa 2"><g id="Capa_1-2" data-name="Capa 1"><path class="cls-1" d="M147.24,49.68a3.94,3.94,0,0,1-3.92,2c-8.1-.06-16.2,0-24.3,0a2.19,2.19,0,0,0-2,1c-3.64,4.79-8.17,8.32-14.24,9.48a12,12,0,0,1-3.42.24A3.82,3.82,0,0,0,96,63.71q-13.47,13.56-27,27c-2.1,2.1-3.53,2.1-5.61,0l-53.07-53c-2.39-2.39-2.39-3.47,0-5.86L40.59,1.7c2.28-2.27,3.47-2.27,5.77,0C49,4.37,51.67,7,54.27,9.67a1.78,1.78,0,0,0,2.22.51c4.71-1.73,9.4-3.57,14.21-5A21.42,21.42,0,0,1,86.25,6.54c6.39,3.05,12.62,6.42,18.88,9.71,3.12,1.65,5.65,2.47,8.23,2.39a3.64,3.64,0,0,0,.15-.63c.25-2,1.18-2.86,3.22-2.89,2.48,0,5,0,7.68,0,0-.87,0-1.62,0-2.36a2.77,2.77,0,0,1,3-3c5.61,0,11.22,0,16.82,0a3.39,3.39,0,0,1,3,2ZM59.79,15.11c3.59,3.59,7,7.05,10.5,10.48a2.82,2.82,0,0,0,1.14.55c3.64,1.17,7.29,2.31,10.94,3.47,2.87.91,5.75,1.79,8.6,2.76A2.8,2.8,0,0,1,92.85,36a2.9,2.9,0,0,1-3.61,1.78c-.37-.09-.73-.23-1.1-.35Q76,33.63,63.92,29.82a5.54,5.54,0,0,0-6.72,2.42,5.38,5.38,0,0,0,1.18,7,11.52,11.52,0,0,0,3.7,2.1c7,2.45,14,4.75,21,7.22a7.45,7.45,0,0,1,2.94,2.07c4.54,5,10.16,7,16.7,5.57,4.62-1,7.84-4.24,10.42-8.07a2.23,2.23,0,0,0,.33-1.21c0-7.13,0-14.26,0-21.39,0-.8-.3-1.07-1.08-1.12a26.42,26.42,0,0,1-11-3.58c-5.71-3.1-11.48-6.12-17.33-9a17,17,0,0,0-13-.9C67.39,12.21,63.7,13.68,59.79,15.11ZM70.7,50.39c-.25.68-.4,1.13-.56,1.58A16.46,16.46,0,0,1,51.53,62.23a16.38,16.38,0,0,1-.92-31.87,3.3,3.3,0,0,0,1.71-1.25,11.72,11.72,0,0,1,6.78-5c.34-.1.66-.24,1-.35l-6-6a.29.29,0,0,0-.17,0c-6.82,4.26-13.67,4.39-20.58.2a1.17,1.17,0,0,0-1.07.14c-2,1.95-4,3.95-6,5.91,4.56,7.22,4.56,14.31.2,21.2L55.69,74.52c7-4.38,14.09-4.33,21.25.2,1.1-1.11,2.14-2.23,3.24-3.29s2.24-2,3.29-3c-3.25-5.58-3.63-7.31-3.28-14,0-.34-.21-.91-.46-1C76.77,52.42,73.79,51.43,70.7,50.39ZM130.26,15.5V45.87h11.15V15.5H130.26Zm-79.52,21c-4.52,1.53-7.32,6.72-6.4,11.65a10.72,10.72,0,0,0,10.83,8.64c4.87-.2,9.42-4,9.84-8.41C58.62,46.53,52.21,44.52,50.74,36.53Zm73.56,9.38V21h-4.92v25ZM66.41,85.25l5.38-5.45c.26-.26.49-.55.74-.83-3.34-2.54-9.25-2.55-12.57-.17C62.05,80.89,64.17,83,66.41,85.25ZM22.08,28.54l-6.37,6.34L22,41.19C24.48,37.94,24.52,32.33,22.08,28.54ZM49.63,13.62,43.12,7.11c-.91,1-1.89,2.05-2.93,3.1S38,12.28,36.91,13.35A11.94,11.94,0,0,0,49.63,13.62ZM85.4,58.09l1.82,5.62,3.28-2.89Z"/><path class="cls-1" d="M0,101.64c1-1.55,2.36-2,4.13-1.94,8,.07,15.9,0,23.85,0a2.61,2.61,0,0,0,2.38-1.15c3.67-4.77,8.2-8.44,14.31-9.3A22.46,22.46,0,0,1,65,96.41,5.44,5.44,0,0,0,67,97.81c6.19,2.15,12.37,4.33,18.61,6.3,4.7,1.49,8.52,3.86,10.39,8.77,4.44-1.22,8.79-2.47,13.18-3.62a105.65,105.65,0,0,1,11.4-2.76,11.15,11.15,0,0,1,9.12,19,18.22,18.22,0,0,1-5.94,3.86c-14.93,5.51-29.93,10.84-44.93,16.17-1.79.64-3.68,1-5.53,1.44H68.44c-6.15-.83-11.45-3.85-16.84-6.6-3.4-1.73-6.7-3.67-10.05-5.51a16.3,16.3,0,0,0-7.7-2.18c-.46,3-1.18,3.63-4.17,3.63H22.92c0,.59-.07,1-.08,1.44,0,3.05-.88,3.89-4,3.89-5.07,0-10.14,0-15.21,0A3.5,3.5,0,0,1,0,139.54Zm33.72,25.28c5.5.1,10.08,2.43,14.54,5.13q2.27,1.38,4.65,2.57c3.5,1.75,7,3.59,10.58,5.13,5.05,2.16,10.05,1.71,15.21-.2,14.3-5.31,28.71-10.34,43.07-15.47a8.89,8.89,0,0,0,4.73-3.56,5.4,5.4,0,0,0-3.84-8.29,10.57,10.57,0,0,0-4,.36c-7,1.86-13.93,3.84-20.9,5.73a2.4,2.4,0,0,0-1.92,1.77,11,11,0,0,1-12.58,7.36,91.81,91.81,0,0,1-9.48-2.82c-5.71-1.79-11.42-3.56-17.08-5.45a3.83,3.83,0,0,1-2.25-1.92,3.29,3.29,0,0,1,.61-2.82,3.35,3.35,0,0,1,2.79-.76c4.24,1.17,8.42,2.57,12.61,3.89s8.57,2.75,12.86,4.07a5.59,5.59,0,0,0,6.7-2.5,5.37,5.37,0,0,0-1.16-6.91A12.48,12.48,0,0,0,85,110c-7-2.44-14-4.72-20.9-7.17a7.25,7.25,0,0,1-2.84-2,16.63,16.63,0,0,0-16.39-5.74c-4.55.85-7.79,3.93-10.39,7.63a4.2,4.2,0,0,0-.7,2.23c0,6.8,0,13.59,0,20.38Zm-27.9,8.92H17V105.56H5.82ZM23,105.54v25h4.88v-25Z"/><path class="cls-1" d="M103.27,38.45a2.79,2.79,0,0,1-2.91,2.72,2.83,2.83,0,1,1,.22-5.65A2.78,2.78,0,0,1,103.27,38.45Z"/><path class="cls-1" d="M44,113.08a2.8,2.8,0,0,1,2.81-2.84,2.9,2.9,0,0,1,2.9,2.78A3,3,0,0,1,46.76,116,2.88,2.88,0,0,1,44,113.08Z"/></g></g></svg>
