<svg xmlns="http://www.w3.org/2000/svg" viewBox="0 0 120.1 132"><defs><style>.cls-1{fill:#fff;}</style></defs><title>icono5</title><g id="Capa_2" data-name="Capa 2"><g id="Capa_1-2" data-name="Capa 1"><path class="cls-1" d="M63.37,0c2.69.51,5.41.86,8.05,1.54a43.89,43.89,0,0,1,32.14,36.23c.07.47.17.93.2,1.4.09,1.33-.53,2.22-1.64,2.36s-2-.54-2.26-1.9a84.76,84.76,0,0,0-2.54-10.07A40,40,0,0,0,20.5,37.73a39.09,39.09,0,0,0,6.73,29.36,6.28,6.28,0,0,0,.38.52c.05.06.13.08.29.18,3.88-5.05,9.74-5.75,15.39-6.93,1.59-.34,3.21-.57,4.82-.76.84-.1,1.13-.48,1-1.26a3,3,0,0,1,0-.52c.24-2.55-.13-4.67-2.42-6.5s-3.33-4.71-4-7.63a2,2,0,0,0-1-1.23,4.73,4.73,0,0,1-3.09-4.6c0-1.5-.33-3.28.34-4.42,1.37-2.32,1-4.68,1.06-7.08,0-1.41,0-2.83,0-4.25A7.07,7.07,0,0,1,46,15.53a2.22,2.22,0,0,0,1.3-.92c1.24-2.12,3-3.57,5.44-3.63a129.66,129.66,0,0,1,14.89.16c6,.56,10.82,6,11.22,12,.16,2.57.09,5.15.17,7.72a2.45,2.45,0,0,0,.31,1.33c1.75,2.41,1.3,5.08.86,7.68-.25,1.47-1.45,2.35-2.83,3a1.72,1.72,0,0,0-.87,1,16.32,16.32,0,0,1-5.72,9.66c-.13.1-.37.22-.37.33,0,1.94-.09,3.89,0,5.83,0,.15.82.3,1.27.39,3.33.62,6.67,1.14,10,1.85,4.12.87,7.8,2.59,10.34,6.35.22-.25.39-.42.52-.6a39.25,39.25,0,0,0,7.19-17.84c.3-2.16,1-3,2.34-2.89s1.88,1.17,1.56,3.43A44,44,0,1,1,51.38.86C53.14.51,54.92.28,56.68,0ZM76.52,34.75a10.48,10.48,0,0,0-1.73.83,5,5,0,0,1-4.54.56,2.44,2.44,0,0,1-2-2.63c0-2,0-4,0-5.93,0-2.19-1.33-3.34-3.43-2.72a18.74,18.74,0,0,1-10.75,0c-2-.58-3.31.57-3.32,2.71s0,4.21,0,6.31A2.41,2.41,0,0,1,46.9,36a7.57,7.57,0,0,0-4.33-1c0,1,0,1.88,0,2.76-.05,1,.34,1.46,1.42,1.45,1.69,0,2.28.65,2.44,2.32A13.89,13.89,0,0,0,46.79,44c1.38,5.12,4.89,8.1,9.88,9.25s9.56-.45,13.12-4.3a11.25,11.25,0,0,0,2.92-7.25c.07-1.18.33-2.26,1.73-2.5,2.08-.38,2.09-.37,2.08-2.46ZM89.31,71.53a9.46,9.46,0,0,0-5.08-4.68c-1.47-.57-3-.87-4.52-1.4a1.77,1.77,0,0,0-2.18.72c-1.63,1.93-3.35,3.79-5,5.67A6,6,0,0,1,68,74c-.82,0-1.49,0-1.8,1-.26.75-1,1.53-.88,2.2.34,2.13,1,4.23,1.5,6.43A40.12,40.12,0,0,0,89.31,71.53Zm-36.59,12a42,42,0,0,1,1.05-4.29A4.4,4.4,0,0,0,53,74.77a1.56,1.56,0,0,0-1.08-.6,6.57,6.57,0,0,1-5-2.23c-1.79-2-3.56-4-5.41-5.87a1.73,1.73,0,0,0-1.39-.51,43.83,43.83,0,0,0-5.26,1.63,8.73,8.73,0,0,0-4.38,3.88C35.25,77,44.81,82.32,52.72,83.49Zm-5.92-52c0-.44.05-.78.06-1.12A37.35,37.35,0,0,1,47,26a6.27,6.27,0,0,1,8-4.95A17.24,17.24,0,0,0,64,21c4.5-1.18,8.13,1.76,8.19,6.45,0,1.57,0,3.14,0,4.91a8.73,8.73,0,0,1,1.69-.82c1-.23,1.18-.85,1.14-1.78-.08-1.71,0-3.43,0-5.15-.06-5.49-3.75-9.55-9.19-9.78-4.15-.18-8.32,0-12.48,0a2.63,2.63,0,0,0-2.53,1.68,4.28,4.28,0,0,1-4,2.91,2.55,2.55,0,0,0-2.62,2.25c-.18,3.11-.06,6.23-.06,9.37Zm6.42,24.87L52.76,62c2,1.26,4.15,2.6,6.31,3.9a1.19,1.19,0,0,0,1,.13c2.25-1.38,4.48-2.81,6.48-4.07l-.49-5.61A17.8,17.8,0,0,1,53.22,56.38Zm10.47,12a23.58,23.58,0,0,0,3.16,1.52,2.46,2.46,0,0,0,2-.2c1.71-1.63,3.25-3.43,4.86-5.16l-.16-.33c-1-.06-2.21-.5-3-.11C68.27,65.35,66.1,66.88,63.69,68.41ZM45.57,64.59c1.57,1.71,3,3.46,4.67,5a2.91,2.91,0,0,0,2.35.38,16.26,16.26,0,0,0,3.1-1.51c-1.88-1.17-3.7-2.13-5.32-3.36S47.35,64,45.57,64.59ZM62.89,84.1c-.48-1.93-.91-3.69-1.34-5.46-1.09,0-2,0-3,0a1.05,1.05,0,0,0-.79.58c-.42,1.56-.74,3.13-1.13,4.85ZM56.5,72.54c.4,2.83,2.52,2,4.25,2.2S62.42,73.5,63,72.62C60.06,70.6,59.67,70.6,56.5,72.54Z"/><path class="cls-1" d="M41.76,132l-25-8.49c-.08.3-.19.75-.33,1.19a5.41,5.41,0,0,1-5.08,3.68c-1.85,0-3.69,0-5.54,0-3.62,0-5.83-2.21-5.84-5.87,0-8,0-15.9,0-23.85,0-4.34,0-8.68,0-13,0-3.71,2.22-5.9,5.93-5.94h4.89c3.69,0,5.92,2.28,6,6,0,.46,0,.92,0,1.44,2.12.13,4.12.2,6.11.4a35.16,35.16,0,0,1,13.55,4.55c3.36,1.87,6.62,4,10.53,4.61,3.56.53,7.14.88,10.71,1.3,3.24.38,6.48.67,9.71,1.12,5.56.78,9.17,4.33,10.2,9.89,0,.2.12.4.22.72.67-.27,1.29-.52,1.9-.79,9.36-4.13,18.72-8.29,28.1-12.37a13.54,13.54,0,0,1,4.31-1.13,6.94,6.94,0,0,1,7.17,4.42,7.79,7.79,0,0,1-1,8.47,5.64,5.64,0,0,1-1.7,1.35c-11.51,6.54-23,13.12-34.59,19.51-2.28,1.26-5,1.75-7.48,2.59-.27.1-.55.17-.83.25Zm-25-13c.23.11.38.2.53.26,6.5,2.43,13,5,19.5,7.25A23.57,23.57,0,0,0,44.05,128c9.05.17,18.1.08,27.14.06A17.63,17.63,0,0,0,80,125.85q17.19-9.7,34.35-19.43a3.73,3.73,0,0,0,1.55-4.69,3.52,3.52,0,0,0-4.21-2.32,15.76,15.76,0,0,0-2.89,1c-10.47,4.59-20.93,9.22-31.41,13.8a6.75,6.75,0,0,1-2.59.54c-4.89,0-9.78.17-14.66,0-4.57-.19-9.13-.7-13.69-1.14a2,2,0,0,1-2-2.32c.2-1.18,1.22-1.76,2.65-1.57a66.92,66.92,0,0,0,6.88.84c6.39.2,12.77.22,19.16.3a2.93,2.93,0,0,0,.59-.11,7.24,7.24,0,0,0-6.25-7.63c-5.05-.68-10.11-1.36-15.19-1.76a34.4,34.4,0,0,1-16.38-5.09,36.7,36.7,0,0,0-4.43-2.34,30.31,30.31,0,0,0-14.62-2.67c0,1.39,0,2.71,0,4A2,2,0,0,1,15,97.45a1.94,1.94,0,0,1-2.14-2.15c0-3.1,0-6.19,0-9.28,0-2-.38-2.31-2.35-2.32-1.55,0-3.09,0-4.63,0s-1.93.49-1.93,1.94v36.87c0,1.42.51,1.91,2,1.93s3.17,0,4.76,0c1.74,0,2.18-.46,2.19-2.25,0-4.16,0-8.33,0-12.5,0-1.63,0-3.27,0-4.9a1.86,1.86,0,0,1,1.89-2,1.94,1.94,0,0,1,2,2c0,.43,0,.86,0,1.29Z"/></g></g></svg>