<svg xmlns="http://www.w3.org/2000/svg" viewBox="0 0 93.79 125"><defs><style>.cls-1{fill:#f4f4f4;}</style></defs><title>icono6</title><g id="Capa_2" data-name="Capa 2"><g id="Capa_1-2" data-name="Capa 1"><path class="cls-1" d="M65.93,0c2.14,2,4.31,4.05,6.4,6.14,6.69,6.66,13.34,13.35,20,20a4.5,4.5,0,0,1,1.42,3.46q0,42.09,0,84.2c0,6.84-4.37,11.2-11.21,11.2H11.16C4.39,125,0,120.62,0,113.87V11.48C0,5.34,2.68,1.81,8.61.15c.07,0,.12-.1.18-.15ZM62.51,5.19H11.42c-4.22,0-6.23,2-6.23,6.18V113.64c0,4.13,2,6.17,6.12,6.17H82.47c4,0,6.11-2,6.11-6.06V31.25h-15c-6.69,0-11.1-4.4-11.11-11.06v-15ZM84.25,26,67.75,9.52c0,3.77-.12,7.79,0,11.8A4.76,4.76,0,0,0,72.45,26C76.46,26.13,80.48,26,84.25,26Z"/><path class="cls-1" d="M46.9,62.5H19a5.18,5.18,0,0,1-1.67-.22,2.5,2.5,0,0,1-1.64-2.7,2.57,2.57,0,0,1,2.25-2.22,11.92,11.92,0,0,1,1.34,0H74.5c.41,0,.81,0,1.22,0a2.56,2.56,0,0,1,2.41,2.45,2.62,2.62,0,0,1-2.33,2.68,9.78,9.78,0,0,1-1.21,0Z"/><path class="cls-1" d="M47,72.94H74.34c.45,0,.9,0,1.34,0a2.56,2.56,0,0,1,2.45,2.54,2.62,2.62,0,0,1-2.41,2.61c-.36,0-.73,0-1.1,0H19.12a10.1,10.1,0,0,1-1.1,0,2.6,2.6,0,0,1-2.38-2.62A2.56,2.56,0,0,1,18.11,73c.44,0,.89,0,1.34,0Z"/><path class="cls-1" d="M46.91,93.75H19.22a8.54,8.54,0,0,1-1.34,0,2.6,2.6,0,0,1-2.24-2.63A2.56,2.56,0,0,1,18,88.59c.36,0,.73,0,1.09,0H74.73c2.2,0,3.41.93,3.4,2.59s-1.24,2.6-3.41,2.6Z"/><path class="cls-1" d="M26.25,20.81c.65,0,1.38,0,2.1,0,1.77.06,2.91,1.11,2.9,2.63S30.1,26,28.31,26.05c-1.54,0-3.09,0-4.63,0a2.63,2.63,0,0,0-2.84,2.55,2.65,2.65,0,0,0,2.77,2.63,7.81,7.81,0,0,1,3.2,14.84,1.75,1.75,0,0,0-.75.94c-.4,1.52-1.2,2.36-2.48,2.44s-2.2-.68-2.7-2.17a3,3,0,0,0-.19-.43c-.77,0-1.58,0-2.38,0a2.62,2.62,0,0,1-2.67-2.6,2.56,2.56,0,0,1,2.67-2.57c1.55,0,3.09,0,4.64,0,1.87,0,3.06-1,3.09-2.57S25,36.58,23.16,36.42a7.78,7.78,0,0,1-3.1-14.79,1.57,1.57,0,0,0,.74-.81c.51-1.79,1.15-2.48,2.48-2.55s2.16.56,2.76,2.24A2.53,2.53,0,0,0,26.25,20.81Z"/><path class="cls-1" d="M33.89,104.19H49.13c1.58,0,2.59.71,2.87,1.94a2.57,2.57,0,0,1-2.44,3.22c-1.29.07-2.6,0-3.9,0H19.2c-.37,0-.74,0-1.1,0a2.61,2.61,0,0,1-2.46-2.68,2.51,2.51,0,0,1,2.51-2.47c2.16,0,4.31,0,6.47,0Z"/><path class="cls-1" d="M59.86,41.69c5.16,0,10.32,0,15.49,0a2.55,2.55,0,0,1,2.58,3.53,2.65,2.65,0,0,1-2.73,1.65h-10q-10.25,0-20.49,0a2.74,2.74,0,0,1-2.89-1.77,2.58,2.58,0,0,1,2.67-3.4C49.61,41.67,54.73,41.69,59.86,41.69Z"/></g></g></svg>