<svg xmlns="http://www.w3.org/2000/svg" viewBox="0 0 142.01 142.04"><defs><style>.cls-1{fill:#fff;}</style></defs><title>icono8</title><g id="Capa_2" data-name="Capa 2"><g id="Capa_1-2" data-name="Capa 1"><path class="cls-1" d="M0,77.67a3.68,3.68,0,0,1,2.77-1.81c2.21-.4,4.4-.92,6.81-1.43L5.66,68.71c-1.35-2-1.28-2.76.41-4.45,2-2,4-4,6-6,1.4-1.38,2.28-1.45,3.91-.34,1.95,1.31,3.88,2.65,6,4.12.48-2.27.92-4.37,1.36-6.47.52-2.49.84-2.82,3.25-3.3a45.62,45.62,0,0,1,3.88-15.76A44.27,44.27,0,0,1,55.92,12.78a40.68,40.68,0,0,1,18-2.55A4.65,4.65,0,0,0,77.54,9.1c1.44-1.23,3-2.3,4.52-3.44C84.31,4,85.26,4.12,87,6.41c1.5,2,3,4,4.49,6a2.57,2.57,0,0,0,2.68,1.32,2.46,2.46,0,0,0,1.95-2.39c.39-2.79.79-5.58,1.24-8.36A2.42,2.42,0,0,1,100.46.69l12.9,1.82c2.13.3,2.87,1.33,2.56,3.58-.36,2.61-.73,5.21-1.12,7.82a2.53,2.53,0,0,0,1.1,2.9c1.13.66,2.12.2,3.06-.51,2.14-1.61,4.28-3.23,6.43-4.82,1.68-1.24,2.89-1.07,4.15.6q3.89,5.15,7.74,10.31c1.31,1.77,1.13,2.87-.66,4.23-2.09,1.6-4.21,3.17-6.32,4.74-1,.74-1.69,1.62-1.31,2.94s1.37,1.62,2.54,1.77c2.65.36,5.31.74,8,1.13,2,.29,2.76,1.38,2.46,3.39q-.91,6.31-1.82,12.62c-.32,2.23-1.25,2.95-3.48,2.63l-8-1.14a2.45,2.45,0,0,0-2.42,4.11c1.59,2.1,3.17,4.2,4.75,6.32,1.43,1.92,1.29,3-.58,4.44q-5,3.8-10.1,7.56c-1.84,1.38-3,1.22-4.34-.6q-2.39-3.15-4.74-6.32a2.62,2.62,0,0,0-2.81-1.34c-1.32.32-1.73,1.39-1.9,2.61-.37,2.65-.74,5.3-1.13,8-.27,1.91-1.2,2.69-3.12,2.44Q95.79,81,89.28,80c-2.13-.32-2.74-1.19-2.47-3.37.3-2.43.68-4.85,1-7.27a3,3,0,0,0,.11-1.23,5.59,5.59,0,0,0-1.14-2.33,2,2,0,0,0-2.68.19c-2.19,1.62-4.36,3.27-6.55,4.9-2,1.46-3.08,1.31-4.54-.63-2.51-3.33-5-6.65-7.49-10-1.41-1.88-1.23-3,.65-4.42,2.1-1.59,4.21-3.18,6.33-4.74a2.55,2.55,0,0,0,1.23-2.85,2.48,2.48,0,0,0-2.4-1.76c-2.61-.35-5.21-.73-7.82-1.11-2.34-.35-3.05-1.24-2.73-3.57q.87-6.39,1.85-12.75c.3-2,1.32-2.7,3.29-2.42,2.69.38,5.4.75,8.09,1.18a2.52,2.52,0,0,0,2.79-1,2.41,2.41,0,0,0-.3-2.95c-1.62-2.14-3.25-4.27-4.81-6.45a22.91,22.91,0,0,1-1.43-2.77,74.92,74.92,0,0,0-7.53,1c-14,3.21-23.94,11.47-29,24.86S30.59,66.85,39,78.62a39.49,39.49,0,0,0,10.72,9.93,15.27,15.27,0,0,1,6.67,8.72,22.08,22.08,0,0,1,.74,5c.12,2.86,0,5.73,0,8.6,0,3.2,1.86,5.12,5.07,5.15q9.07.06,18.17,0c3.22,0,5-1.93,5-5.15,0-2.77,0-5.54,0-8.32a16.29,16.29,0,0,1,7.16-13.82c1.81-1.28,3.57-2.61,5.49-4,1,1.08,2,2.2,3.12,3.48-1.79,1.35-3.41,2.72-5.17,3.86a12.23,12.23,0,0,0-5.9,11.35c.07,2.58,0,5.17,0,7.76A9.6,9.6,0,0,1,86.32,119a2.43,2.43,0,0,0-.81,1.67c-.08,3.33-.19,6.67,0,10,.29,5.25-1.85,10-8.38,11.39H65.48c-6.39-2-8.31-4.68-8.31-11.44,0-3.37,0-6.74,0-10.12,0-.41-.11-1-.38-1.21-3.59-2.44-4.54-6-4.33-10,.07-1.39,0-2.79,0-4.19l-.41-.2c-.6.69-1.17,1.42-1.81,2.07-2.74,2.77-2.89,2.77-6.15.53-1.54-1.07-3.08-2.12-4.78-3.28-.56,2.61-1.05,5-1.57,7.37a2.4,2.4,0,0,1-2.58,2.21c-3,0-6,0-9,0a2.44,2.44,0,0,1-2.55-2.08c-.12-.5-.21-1-.31-1.49-.43-2-.85-3.91-1.31-6-2.14,1.47-4.07,2.81-6,4.12-1.62,1.09-2.51,1-3.91-.38-2-2-3.93-3.92-5.89-5.88s-1.87-2.51-.39-4.67L9.6,91.75c-2.44-.51-4.63-1-6.84-1.43A3.62,3.62,0,0,1,0,88.49ZM132.47,23.84l-5.64-7.49c-2.17,1.57-4.13,3.14-6.23,4.47a6.92,6.92,0,0,1-9.49-2.23c-1.28-2-1.19-4.11-.86-6.29.26-1.76.5-3.52.76-5.35l-9.3-1.31c-.32,2.19-.66,4.23-.93,6.28-.43,3.26-2.14,5.51-5.34,6.34s-5.78-.42-7.73-3l-3.8-5.05-7.52,5.64c1.41,1.9,2.77,3.65,4.06,5.44a6.82,6.82,0,0,1,.45,7.94,6.83,6.83,0,0,1-7.33,3.35L67,31.65l-1.31,9.29,6.44.94A7.18,7.18,0,0,1,77.35,45a7,7,0,0,1-1.63,9.64C74,56,72.14,57.33,70.27,58.75l5.63,7.5c.42-.31.8-.56,1.16-.83,1.41-1,2.81-2.12,4.22-3.16A7,7,0,0,1,87,60.88c4,.87,6.22,4.33,5.56,8.7-.31,2-.57,4-.86,6L101,76.94c.11-.68.2-1.17.27-1.67.28-1.87.46-3.77.86-5.61a6.63,6.63,0,0,1,5.06-5.33,6.54,6.54,0,0,1,7,2.12c1.63,1.88,3.06,3.92,4.61,5.93l7.5-5.64c-1.34-1.78-2.59-3.44-3.82-5.11-2-2.73-2.25-5.7-.7-8.29s4.42-3.79,7.79-3.26c2,.31,4,.56,6.08.84L137,41.64c-2-.3-4-.61-6-.86-3.52-.46-5.94-2.36-6.71-5.34s.35-5.74,3.12-7.84ZM14.65,62.75,10.25,67c.95,1.39,1.95,2.82,2.93,4.27,2.31,3.44,1,6.89-3.06,7.82-1.78.41-3.57.79-5.34,1.18v5.58c1.79.39,3.54.75,5.29,1.15,4.09.93,5.44,4.4,3.07,7.9l-2.83,4.14,4.3,4.38c1.44-1,2.94-2,4.48-3.06,3.22-2.11,6.7-.69,7.57,3.07.42,1.82.8,3.66,1.18,5.45h5.61c.4-1.85.76-3.62,1.17-5.37.91-3.94,4.36-5.31,7.73-3.06,1.49,1,2.95,2,4.65,3.2,1.43-1.5,2.79-3,4.24-4.42a1.28,1.28,0,0,0,.29-1.68c-1.62-3.9-5.35-5.51-8.37-7.94-4,6.88-10.85,8.57-16.25,7.13A14.26,14.26,0,0,1,16.43,83.6a13.73,13.73,0,0,1,2.69-8.7,14.28,14.28,0,0,1,9.67-5.85L27,61.61c-.13.39-.26.73-.35,1.07-1,3.93-4.39,5.26-7.77,3C17.45,64.69,16,63.69,14.65,62.75ZM31.3,92.45A9.1,9.1,0,0,0,39,87.38a1.46,1.46,0,0,0-.28-2A37,37,0,0,1,31.58,75.2c-.69-1.51-1.61-1.62-2.94-1.31a9.39,9.39,0,0,0-7.36,10C21.75,88.78,25.57,92.31,31.3,92.45ZM62,130.29c0,.46-.05.78-.06,1.1,0,4.15,1.71,5.92,5.84,5.93,2.4,0,4.8-.13,7.19,0,3.86.25,6.64-2.29,5.65-7.06Zm0-9.39v4.52H80.68V120.9Z"/><path class="cls-1" d="M73.62,99.52h-4.4a48.59,48.59,0,0,0-1.37-5.47,13.81,13.81,0,0,0-7.47-8,41.28,41.28,0,0,1-11.29-6.89,33,33,0,0,1,.64-49.27c1.23-1.05,2.54-2,4-3.09l2.53,4c-1.05.8-2,1.53-3,2.31C37.3,46.1,40.71,72,59.47,80.43c4,1.8,7.78,3.85,10.4,7.53A19.43,19.43,0,0,1,73.62,99.52Z"/><path class="cls-1" d="M6.32,16.65l2.74-3.82L25.56,24.6l-2.74,3.84Z"/><path class="cls-1" d="M35.9,18.85,31.35,20,26.53,1.21,31.07,0Z"/><path class="cls-1" d="M3.56,45.3,2.42,40.74,21.24,36l1.15,4.57Z"/><path class="cls-1" d="M115.27,100.14l14.14,11.78-3,3.62-14.13-11.77Z"/><path class="cls-1" d="M106.61,123.13h-4.5V106.75h4.5Z"/><path class="cls-1" d="M116.2,92.44V88h16.34v4.49Z"/><path class="cls-1" d="M69.09,111.23V104.4H73.6v6.83Z"/><path class="cls-1" d="M120.18,41.31a18.85,18.85,0,1,1-18.84-18.86A18.85,18.85,0,0,1,120.18,41.31Zm-4.71.08a14.13,14.13,0,1,0-28.26-.14,14.13,14.13,0,0,0,28.26.14Z"/></g></g></svg>