<svg xmlns="http://www.w3.org/2000/svg" viewBox="0 0 129.97 130"><defs><style>.cls-1{fill:#fff;}</style></defs><title>icono4</title><g id="Capa_2" data-name="Capa 2"><g id="Capa_1-2" data-name="Capa 1"><path class="cls-1" d="M88,107c-7.27-6.54-5.81-15.56-1-20.22a13.48,13.48,0,1,1,18.06,20,68.62,68.62,0,0,1,6.3,4.43,21.59,21.59,0,0,1,7.43,16c.08,1.91-.76,2.78-2.65,2.78H76.61c-1.87,0-2.74-.88-2.63-2.8.5-9,4.77-15.51,12.75-19.63C87.1,107.37,87.48,107.2,88,107Zm26,18.51c-.58-7.59-7.83-16.28-18.92-15.61-8.43.51-16.94,8.67-16.28,15.61h26.44c-.84-1.39-1.47-2.61-2.27-3.7-1.09-1.47-1.19-2.65-.13-3.58s2.33-.69,3.52.61a14,14,0,0,1,3.27,6.67Zm-8.69-29.08a9,9,0,1,0-9,9A9,9,0,0,0,105.33,96.39Z"/><path class="cls-1" d="M25.21,107c-7.29-6.55-5.8-15.65-.91-20.3a13.48,13.48,0,1,1,18,20.08,68.52,68.52,0,0,1,6.3,4.42A21.65,21.65,0,0,1,56,127.05c.1,2.1-.72,2.94-2.78,2.94H14c-2.06,0-2.91-.83-2.78-2.93Q12,113.71,24,107.56C24.32,107.37,24.71,107.2,25.21,107Zm26,18.47c.13-7.86-8.57-15.6-17.54-15.6-10.89,0-17.41,9-17.69,15.62h4.36a13.22,13.22,0,0,1,3.4-6.79,3.37,3.37,0,0,1,1.34-1,2,2,0,0,1,2.45.85,2.15,2.15,0,0,1-.24,2.82,7.57,7.57,0,0,0-2.19,4.13H50.68A3.2,3.2,0,0,0,51.22,125.43ZM24.65,96.3a9,9,0,1,0,9.07-8.9A9,9,0,0,0,24.65,96.3Z"/><path class="cls-1" d="M94.12,38.3A29.14,29.14,0,1,1,64.79,8.94,29.17,29.17,0,0,1,94.12,38.3ZM89.64,38A24.65,24.65,0,1,0,64.88,62.73,24.69,24.69,0,0,0,89.64,38Z"/><path class="cls-1" d="M8.88,62C5.77,56.79,6.19,52.12,10,49a9,9,0,0,1,11.78.35c3.52,3.25,3.81,8.06.65,12.57l1.2.75a15.48,15.48,0,0,1,7.72,12.73c.15,2.14-.71,3-2.85,3H2.88c-2.15,0-3-.84-2.86-3A15.44,15.44,0,0,1,7.24,63C7.78,62.65,8.34,62.34,8.88,62ZM26.51,73.9C25.94,69,21,65,15.68,65S5.41,69,4.84,73.9ZM15.73,51.54A4.48,4.48,0,1,0,20.15,56,4.5,4.5,0,0,0,15.73,51.54Z"/><path class="cls-1" d="M121.05,62a15.74,15.74,0,0,1,8.5,10.6,16.47,16.47,0,0,1,.41,2.9c.11,2.06-.73,2.92-2.78,2.92H101.43c-2.06,0-2.92-.85-2.79-2.91a15.53,15.53,0,0,1,8-13l.73-.41a1,1,0,0,0,.17-.16,9.25,9.25,0,0,1-2-7.81,8.76,8.76,0,0,1,3.24-5.23,9,9,0,0,1,11.67.52C123.91,52.68,124.17,57.27,121.05,62Zm4.09,11.89C124.57,69,119.66,65,114.31,65s-10.24,4-10.85,8.92ZM114.42,51.54a4.48,4.48,0,1,0,4.36,4.56A4.5,4.5,0,0,0,114.42,51.54Z"/><path class="cls-1" d="M58.23,91.15c-3.17-4.9-2.8-9.66.9-12.83a9,9,0,0,1,11.8.07c3.64,3.2,4,8,.83,12.72l1.23.76a15.49,15.49,0,0,1,7.66,12.77c.14,2.06-.73,2.93-2.78,2.94H52.13c-2.07,0-2.93-.86-2.8-2.91a15.47,15.47,0,0,1,7.16-12.49C57,91.82,57.61,91.52,58.23,91.15ZM54.13,103H75.85a11.08,11.08,0,0,0-21.72,0ZM69.46,85.15A4.48,4.48,0,1,0,65,89.64,4.5,4.5,0,0,0,69.46,85.15Z"/><path class="cls-1" d="M27,35.33A37.72,37.72,0,0,1,38.68,10.64,2.19,2.19,0,0,1,42,10.53a2.28,2.28,0,0,1-.29,3.35,33.19,33.19,0,0,0-9.62,17.33c-.31,1.5-.45,3-.68,4.56A2.19,2.19,0,0,1,29,37.89,2.26,2.26,0,0,1,27,35.33Z"/><path class="cls-1" d="M15.67,89.66A6.72,6.72,0,1,1,8.9,82.93,6.73,6.73,0,0,1,15.67,89.66Zm-4.49,0A2.23,2.23,0,1,0,9,91.88,2.24,2.24,0,0,0,11.18,89.65Z"/><path class="cls-1" d="M114.31,89.62a6.72,6.72,0,1,1,6.63,6.74A6.75,6.75,0,0,1,114.31,89.62ZM121,87.41a2.24,2.24,0,1,0,2.23,2.2A2.26,2.26,0,0,0,121,87.41Z"/><path class="cls-1" d="M17.93,15.67a6.72,6.72,0,1,1-6.73,6.78A6.73,6.73,0,0,1,17.93,15.67ZM18,20.16a2.23,2.23,0,1,0,2.17,2.25A2.24,2.24,0,0,0,18,20.16Z"/><path class="cls-1" d="M118.77,22.36a6.72,6.72,0,1,1-6.67-6.69A6.75,6.75,0,0,1,118.77,22.36Zm-6.72-2.2a2.23,2.23,0,1,0,2.24,2.18A2.25,2.25,0,0,0,112.05,20.16Z"/><path class="cls-1" d="M99.47,54A9.71,9.71,0,0,1,99,55.26,38.18,38.18,0,0,1,83.51,71.38c-1.46.83-2.73.6-3.42-.55s-.29-2.47,1.23-3.34A34.05,34.05,0,0,0,95,53.13c.59-1.16,1.45-1.87,2.8-1.5A2.23,2.23,0,0,1,99.47,54Z"/><path class="cls-1" d="M63.3,0c2.77-.06,3.85.61,3.92,2.11s-1,2.28-3.39,2.37a33.32,33.32,0,0,0-14.69,4c-2,1.1-3.28,1-4-.33S45,5.68,47,4.59A37.72,37.72,0,0,1,63.3,0Z"/><path class="cls-1" d="M103.2,38.53c-.21,1.87-.41,4.09-.71,6.3A2.29,2.29,0,0,1,99.93,47c-1.3-.18-2-1.24-1.89-2.78q.21-5.15.31-10.29a2.35,2.35,0,0,1,2.05-2.55,2.25,2.25,0,0,1,2.41,2.17C103,35.1,103.05,36.63,103.2,38.53Z"/><path class="cls-1" d="M67.29,22.39c1.43,0,2.78,0,4.12,0a2.27,2.27,0,0,1,2.53,2.22,2.24,2.24,0,0,1-2.49,2.25c-2.75,0-5.51,0-8.26,0S58.3,28.7,58.27,31.3s2,4.52,4.95,4.54a44.65,44.65,0,0,1,5.18.1,8.94,8.94,0,0,1,.46,17.66c-.5.1-1,.17-1.56.25-.24,1.76.54,4.18-2.38,4.37-1.55.1-2-.95-2.23-4.45-1.31,0-2.65,0-4,0-1.66,0-2.66-.86-2.67-2.22s1-2.24,2.63-2.25c2.75,0,5.5,0,8.26,0a4.52,4.52,0,0,0,4.78-4.43c0-2.6-2-4.5-4.82-4.54a41.21,41.21,0,0,1-5.45-.13,8.85,8.85,0,0,1-7.65-8.67,9,9,0,0,1,7.47-9c.45-.08.9-.13,1.42-.21.25-1.76-.55-4.18,2.38-4.37C66.62,17.84,67.11,18.89,67.29,22.39Z"/></g></g></svg>