<svg xmlns="http://www.w3.org/2000/svg" viewBox="0 0 861.4 350.34"><defs><style>.cls-1{fill:#fff;}.cls-2{fill:#ff6801;}.cls-3{fill:#67bd07;}.cls-4{font-size:48px;fill:#fd6802;font-family:SpartanMB-Bold, Spartan MB;font-weight:700;}.cls-5{letter-spacing:0em;}.cls-6{letter-spacing:0em;}.cls-7{letter-spacing:0em;}.cls-8{letter-spacing:0em;}.cls-9{letter-spacing:0em;}.cls-10{letter-spacing:0em;}</style></defs><title>Recurso 2</title><g id="Capa_2" data-name="Capa 2"><g id="Capa_1-2" data-name="Capa 1"><path class="cls-1" d="M339.71,55.56h21.57V96.12h34.35V55.36h21.86V156.51H395.84V115.64H361.48v40.94H339.71Z"/><path class="cls-1" d="M548.18,156.74c-7.59,0-14.75,0-21.9-.08a3,3,0,0,1-2.13-1.7c-2.33-6.07-4.51-12.19-6.84-18.59h-13.2c-8,0-16.07.15-24.09-.07-2.47-.07-3.47,1-4.17,2.92-1.78,4.95-3.63,9.88-5.26,14.89-.64,2-1.56,2.75-3.7,2.7-6.76-.13-13.53-.05-20.75-.05,2.07-5.26,4-10.22,6-15.15q9.27-23.19,18.59-46.36c5.08-12.61,10.24-25.19,15.25-37.82,1.21-3.06,3.92-2,5.82-2.15,4.3-.31,8.64.16,13,.26a18.21,18.21,0,0,0,2.57-.33C520.85,88.87,534.42,122.55,548.18,156.74Zm-39-40.43c-4-10.32-7.75-20.11-11.52-29.9h-1c-3.81,9.84-7.63,19.68-11.61,29.91Z"/><path class="cls-1" d="M306.3,62.51,297,81.09a36.85,36.85,0,0,0-22.71-5.72c-13.32.95-24.74,6.39-29.6,20.25-3.85,11-2.32,21.58,5.78,30.61a30.45,30.45,0,0,0,21.65,10.28c10.45.67,10.45.73,25-5,3,6,6,12,9.06,18.11-5.51,4.11-11.84,6.28-18.39,7.6-10.56,2.13-21.15,2.23-31.46-1.57-18.15-6.69-30.74-18.94-36-37.75-4.23-15.06-.49-28.95,8.63-41.28a54.9,54.9,0,0,1,37.47-22.51,59.62,59.62,0,0,1,38.67,7.65C305.48,62,305.88,62.25,306.3,62.51Z"/><path class="cls-1" d="M614.46,156.58H592.11c-.05-1-.15-2-.15-3,0-12.88-.1-25.77.06-38.65a12.87,12.87,0,0,0-2.3-7.78Q577.59,89.2,565.53,71.2c-3.34-5-6.56-10-10.06-15.41a108.25,108.25,0,0,1,25,0,3.63,3.63,0,0,1,2.11,1.67q9.38,14.28,18.64,28.64c1.36,2.11,2.66,2.16,4,0q9.15-14.24,18.27-28.51A4.66,4.66,0,0,1,628,55.09c6.19.13,12.38,0,18.57.07a36.12,36.12,0,0,1,4.32.62c-2.7,4.14-5.26,8.11-7.88,12q-8.67,13-17.39,26c-3.46,5.16-7,10.29-10.35,15.5a6.25,6.25,0,0,0-.73,3.25c0,13.47,0,26.94,0,40.41Z"/><path class="cls-1" d="M740.72,156.57c-.06-1.09-.15-2-.15-3q0-47.53-.06-95.06c0-2.49.73-3.48,3.26-3.44,6.14.11,12.28,0,18.79,0v4.48q0,36.92,0,73.84c0,3.94,0,3.75,3.73,3.71,9.68-.12,19.35,0,29,0,1.9,0,2.75.73,2.71,2.77-.11,5.5,0,11,0,16.68Z"/><path class="cls-1" d="M679.77,156.39V55.5h21.71c.23,2.59.6,4.86.6,7.12q.06,44.61,0,89.22c0,4.32-.41,4.81-4.78,4.87-5.51.07-11,0-16.54,0A4.62,4.62,0,0,1,679.77,156.39Z"/><path class="cls-2" d="M93.16,143.58c-16.25,0-37.53-16-39.55-40.87C51.4,75.54,71.7,55.08,93.12,53.33c0,3.84,0,7.66-.08,11.47,0,.4-1,1-1.63,1.13C82.58,68.5,75.54,73.59,70.9,81.5c-6.51,11.1-6.69,22.44-.31,33.79,3.19,5.66,7.9,9.81,13.25,13.18,2.29,1.44,5.17,1.92,7.75,2.92.6.24,1.49.82,1.5,1.27C93.21,136.3,93.16,140,93.16,143.58Z"/><path class="cls-2" d="M121.77,151.44c.78.76,1.89,1.37,2.29,2.3,3,6.93,5.85,13.89,8.59,20.92.38,1-.18,2.28-.31,3.44-.82-.68-2-1.2-2.41-2.08-3-6.81-5.92-13.67-8.76-20.57a12,12,0,0,1-.35-3.33Z"/><path class="cls-3" d="M143.58,98.48l-10.94,11.17c-.1-.05-.25-.07-.27-.14-1.3-4.14-1.3-4.14-6-4.14-6,0-12-.05-18,0-2,0-2.83-.6-2.74-2.66.12-2.71,0-5.42,0-8.13,0-1.48.57-1.94,2.12-1.9,7,.21,14.09.27,21.13.35a2.61,2.61,0,0,0,3-2.78c0-.94,0-1.89,0-2.39Z"/><path class="cls-2" d="M105.82,52.86c4.09,1.24,7.76,2.29,11.37,3.52.44.15.78,1.26.78,1.93,0,9.78,0,19.56,0,29.55H105.82Z"/><path class="cls-2" d="M105.6,110.6h12a3.87,3.87,0,0,1,.35,1.08c0,9.09.07,18.18-.08,27.27a3.65,3.65,0,0,1-2,2.48,65.56,65.56,0,0,1-6.48,2.15c-2.76.9-3.82.24-3.82-2.52C105.59,131,105.6,121,105.6,110.6Z"/><path class="cls-2" d="M58.56,56.84c-.52.6-.91,1.37-1.22,1.34a4.42,4.42,0,0,1-2.58-.8c-2.93-2.77-5.73-5.7-8.58-8.57q-8.13-8.19-16.29-16.36c-1.06-1.06-2.31-2.27-.88-3.58.39-.37,2.46.44,3.26,1.23,8.24,8.08,16.38,16.25,24.53,24.43A21.45,21.45,0,0,1,58.56,56.84Z"/><path class="cls-2" d="M141.42,138.74a11.31,11.31,0,0,1,2,1.26c8.38,8.3,16.77,16.6,25,25,.72.74.66,2.24,1,3.39-1.15-.32-2.66-.28-3.41-1q-12.53-12.31-24.82-24.86a5.61,5.61,0,0,1-1.07-2.73C140,139.57,140.85,139.17,141.42,138.74Z"/><path class="cls-2" d="M20.21,100.19c-5.89,0-11.78,0-17.67-.06-.86,0-1.69-.87-2.54-1.33.79-.55,1.57-1.56,2.36-1.57q17.81-.15,35.62,0c.93,0,1.86,1,2.78,1.52-1,.49-1.91,1.37-2.89,1.39-5.88.14-11.77.07-17.66.07Z"/><path class="cls-2" d="M176.37,100.19c-5.7,0-11.4,0-17.1,0A6,6,0,0,1,157,100c-.58-.26-.95-1-1.41-1.56A6.55,6.55,0,0,1,157,97.27a4.66,4.66,0,0,1,1.72-.11H193.8a2,2,0,0,1,.86,0c.76.41,1.48.9,2.22,1.36-.75.53-1.5,1.52-2.26,1.53-6.08.13-12.17.07-18.25.07Z"/><path class="cls-2" d="M97,20.26c0-6,0-12,.06-18,0-.76.86-1.51,1.31-2.26C98.92.72,100,1.44,100,2.17q.17,18.44,0,36.87c0,.61-1,1.2-1.57,1.8-.49-.66-1.38-1.32-1.4-2C96.94,32.65,97,26.46,97,20.26Z"/><path class="cls-2" d="M97.26,156.76c2.25-.59,2.88.22,2.87,2.3-.08,11.7,0,23.4-.07,35.1a5,5,0,0,1-.53,2.44,2,2,0,0,1-1.67.64c-.32,0-.61-.78-.87-1.24-.08-.14,0-.38,0-.57q0-18.85,0-37.7A4.17,4.17,0,0,1,97.26,156.76Z"/><path class="cls-2" d="M169.07,29.51a25.07,25.07,0,0,1-1.77,2.38q-12.53,12.53-25.06,25c-1,1-2,2.29-3.26.86-.38-.45.36-2.4,1.09-3.15C148,46.52,156,38.52,164,30.52a6,6,0,0,1,2.22-1.75C167,28.57,167.88,29.16,169.07,29.51Z"/><path class="cls-2" d="M58.43,140.53a23.07,23.07,0,0,1-1.49,1.87c-8.42,8.45-16.83,16.9-25.33,25.27-.62.61-1.91.55-2.89.8.22-1,.08-2.43.7-3.07q12.63-12.87,25.47-25.52a4.2,4.2,0,0,1,2.57-.7C57.74,139.16,58.06,140,58.43,140.53Z"/><path class="cls-2" d="M132.39,67.33a44.13,44.13,0,0,1,11.19,22.9l-.67.51c-3.6-3.65-7.2-7.29-10.78-11a1.71,1.71,0,0,1-.44-1c0-3.72,0-7.45,0-11.17Z"/><path class="cls-2" d="M131.66,129.33c0-3.56,0-7.12,0-10.68a1.63,1.63,0,0,1,.33-1.07c3.66-3.76,7.36-7.49,11.31-11a41,41,0,0,1-10.89,23Z"/><path class="cls-2" d="M178,66.45A8.57,8.57,0,0,1,176.15,68c-7.35,3.13-14.71,6.23-22.12,9.2-.67.26-1.73-.47-2.62-.74.41-.72.65-1.85,1.25-2.11Q163.77,69.55,175,65c.8-.33,2,.27,3,.44Z"/><path class="cls-2" d="M20.46,132.9c-.41-.38-1.29-.85-1.24-1.2.11-.85.45-2.12,1.06-2.38q11.1-4.84,22.35-9.36c.65-.26,1.65.34,2.49.54-.26.82-.31,2.14-.82,2.36-7.49,3.25-15,6.35-22.58,9.48Z"/><path class="cls-2" d="M45.44,76.82c-.89.17-1.94.72-2.65.44-6.73-2.69-13.41-5.53-20.1-8.33-.26-.11-.47-.39-.73-.45-1.66-.41-3.54-.9-2.6-3.07.22-.5,2.74-.46,3.93,0,6.48,2.58,12.89,5.35,19.29,8.13a19.61,19.61,0,0,1,3.07,2.06Z"/><path class="cls-2" d="M77.27,44.85c-1.92.83-2.9.14-3.55-1.47C71,36.63,68.18,29.91,65.43,23.17A5.47,5.47,0,0,1,64.85,21c0-.63.45-1.63.89-1.74A2.24,2.24,0,0,1,67.6,20a13,13,0,0,1,1.29,2.86c2.79,6.81,5.6,13.62,8.36,20.45A4.53,4.53,0,0,1,77.27,44.85Z"/><path class="cls-2" d="M64.49,176.5c1.1-2.77,2-5.18,3-7.57,2.06-5,4.07-10.08,6.28-15,.4-.89,1.71-1.36,2.6-2,.16,1.05.74,2.28.4,3.14C74,162.23,71,169.38,68,176.5a3.44,3.44,0,0,1-2,1.55C65.66,178.14,65,177.07,64.49,176.5Z"/><path class="cls-2" d="M119.59,45.12a11.24,11.24,0,0,1,.27-3.26q4.24-10.53,8.74-20.94c.35-.8,1.58-1.21,2.4-1.8.18,1.07.81,2.31.47,3.18Q127.29,33,122.72,43.51c-.38.89-1.55,1.44-2.35,2.14Z"/><path class="cls-2" d="M153.22,119.51c2.18.76,4.41,1.42,6.54,2.3,5.73,2.37,11.45,4.77,17.1,7.31.9.4,1.44,1.61,2.15,2.45-1.09.23-2.39,1-3.25.61-7.25-2.92-14.45-6-21.6-9.18-.78-.34-1.14-1.62-1.69-2.47Z"/><text class="cls-4" transform="translate(293.87 205.76)">S<tspan class="cls-5" x="29.04" y="0">e</tspan><tspan class="cls-6" x="55.96" y="0">rvi</tspan><tspan class="cls-7" x="115.31" y="0">c</tspan><tspan x="137.54" y="0">i</tspan><tspan class="cls-8" x="150.11" y="0">o</tspan><tspan x="178.93" y="0">s Finan</tspan><tspan class="cls-7" x="336.21" y="0">c</tspan><tspan class="cls-9" x="358.45" y="0">i</tspan><tspan class="cls-7" x="371.01" y="0">e</tspan><tspan class="cls-10" x="397.94" y="0">r</tspan><tspan class="cls-8" x="418.12" y="0">o</tspan><tspan x="446.94" y="0">s</tspan><tspan class="cls-9" x="468.25" y="0"> </tspan></text></g></g></svg>