<svg xmlns="http://www.w3.org/2000/svg" viewBox="0 0 282.4 109.26"><defs><style>.cls-1,.cls-4{fill:#eb5f0a;}.cls-2{fill:#6bb52d;}.cls-3{fill:#fff;}.cls-4{font-size:15.47px;font-family:SpartanMB-Bold, Spartan MB;font-weight:700;}.cls-5{letter-spacing:0em;}.cls-6{letter-spacing:0em;}.cls-7{letter-spacing:0em;}.cls-8{letter-spacing:0em;}.cls-9{letter-spacing:0em;}</style></defs><title>Recurso 1</title><g id="Capa_2" data-name="Capa 2"><g id="Capa_1-2" data-name="Capa 1"><path class="cls-1" d="M32.28,49.75c-5.63,0-13-5.53-13.71-14.16-.76-9.42,6.27-16.5,13.69-17.11,0,1.33,0,2.65,0,4,0,.14-.35.33-.57.39a11.7,11.7,0,0,0-7.1,5.4,11,11,0,0,0-.11,11.7,12.88,12.88,0,0,0,4.59,4.57,14.81,14.81,0,0,0,2.68,1c.21.08.52.29.52.44C32.3,47.22,32.28,48.49,32.28,49.75Z"/><path class="cls-1" d="M42.19,52.47c.27.26.65.47.79.79,1,2.41,2,4.82,3,7.25.13.34-.06.8-.11,1.2-.28-.24-.7-.42-.83-.72q-1.58-3.54-3-7.13a4.32,4.32,0,0,1-.12-1.15Z"/><path class="cls-2" d="M49.75,34.12,46,38s-.09,0-.1-.05c-.45-1.43-.45-1.43-2.07-1.43-2.07,0-4.15,0-6.22,0-.68,0-1-.21-1-.93,0-.93,0-1.87,0-2.81,0-.51.2-.67.73-.66,2.44.07,4.88.1,7.33.12a.9.9,0,0,0,1-1c0-.33,0-.66,0-.83Z"/><path class="cls-1" d="M36.66,18.32c1.42.42,2.69.79,3.94,1.21.16,0,.27.44.27.67,0,3.39,0,6.78,0,10.24H36.66Z"/><path class="cls-1" d="M36.59,38.32h4.17a1.45,1.45,0,0,1,.12.37c0,3.15,0,6.3,0,9.45a1.25,1.25,0,0,1-.69.86c-.72.32-1.5.5-2.25.75-.95.31-1.32.08-1.32-.88Z"/><path class="cls-1" d="M20.29,19.69c-.18.21-.32.48-.43.47a1.57,1.57,0,0,1-.89-.28c-1-1-2-2-3-3l-5.64-5.67c-.37-.36-.8-.78-.31-1.24.14-.13.85.16,1.13.43,2.86,2.8,5.68,5.63,8.5,8.46A9.27,9.27,0,0,1,20.29,19.69Z"/><path class="cls-1" d="M49,48.07a3.87,3.87,0,0,1,.67.43c2.91,2.88,5.81,5.76,8.68,8.67.25.25.23.77.33,1.17-.4-.11-.92-.09-1.18-.35-2.89-2.84-5.75-5.72-8.6-8.61a2,2,0,0,1-.37-1C48.51,48.36,48.8,48.22,49,48.07Z"/><path class="cls-1" d="M7,34.71c-2,0-4.08,0-6.12,0-.3,0-.59-.3-.88-.46.27-.19.54-.54.82-.54q6.16-.06,12.34,0c.32,0,.64.35,1,.53-.33.17-.66.48-1,.48-2,.05-4.08,0-6.12,0Z"/><path class="cls-1" d="M61.1,34.71H55.18a2.05,2.05,0,0,1-.79-.06c-.2-.09-.33-.35-.49-.54a2.37,2.37,0,0,1,.5-.41,1.69,1.69,0,0,1,.6,0H67.15c.1,0,.21,0,.29,0,.27.14.52.31.77.47-.26.18-.52.52-.78.53-2.11,0-4.22,0-6.33,0Z"/><path class="cls-1" d="M33.6,7c0-2.08,0-4.16,0-6.24,0-.26.3-.52.46-.78.19.25.56.5.56.75q.06,6.39,0,12.78c0,.21-.36.41-.55.62-.16-.23-.47-.46-.48-.69C33.59,11.31,33.6,9.17,33.6,7Z"/><path class="cls-1" d="M33.7,54.31c.78-.2,1,.08,1,.8,0,4,0,8.11,0,12.16a1.85,1.85,0,0,1-.18.85.76.76,0,0,1-.58.22c-.12,0-.22-.27-.31-.43a.67.67,0,0,1,0-.2q0-6.52,0-13.06A1.57,1.57,0,0,1,33.7,54.31Z"/><path class="cls-1" d="M58.58,10.22a7,7,0,0,1-.62.83c-2.89,2.89-5.79,5.77-8.68,8.67-.34.34-.7.79-1.13.29-.13-.15.13-.83.38-1.09,2.74-2.8,5.52-5.57,8.29-8.35.24-.23.48-.53.77-.6S58.16,10.1,58.58,10.22Z"/><path class="cls-1" d="M20.24,48.69c-.19.24-.33.46-.51.65-2.92,2.92-5.83,5.85-8.78,8.75-.21.21-.66.19-1,.28.08-.36,0-.84.24-1.06,2.92-3,5.87-5.92,8.83-8.85a1.48,1.48,0,0,1,.89-.24C20,48.22,20.12,48.5,20.24,48.69Z"/><path class="cls-1" d="M45.87,23.33a15.28,15.28,0,0,1,3.87,7.93l-.23.18-3.73-3.8a.58.58,0,0,1-.15-.35c0-1.29,0-2.58,0-3.87Z"/><path class="cls-1" d="M45.62,44.81c0-1.24,0-2.47,0-3.7a.57.57,0,0,1,.12-.37c1.27-1.31,2.55-2.6,3.92-3.82a14.26,14.26,0,0,1-3.78,8Z"/><path class="cls-1" d="M61.68,23a2.53,2.53,0,0,1-.65.54c-2.54,1.09-5.09,2.16-7.66,3.19-.23.09-.6-.16-.91-.26.14-.25.22-.64.43-.73q3.86-1.67,7.74-3.23c.28-.12.69.09,1,.15Z"/><path class="cls-1" d="M7.09,46.05c-.14-.14-.45-.3-.43-.42,0-.29.15-.73.37-.83q3.84-1.66,7.74-3.24c.22-.09.57.12.86.19-.09.28-.1.74-.28.82-2.6,1.12-5.21,2.2-7.82,3.28Z"/><path class="cls-1" d="M15.74,26.62c-.31.05-.67.25-.91.15-2.34-.93-4.65-1.92-7-2.89-.09,0-.16-.13-.25-.16-.58-.14-1.23-.31-.9-1.06.07-.17,1-.16,1.36,0,2.24.89,4.47,1.85,6.68,2.81a7.42,7.42,0,0,1,1.07.72Z"/><path class="cls-1" d="M26.77,15.54A.8.8,0,0,1,25.54,15c-.95-2.34-1.92-4.67-2.87-7a2,2,0,0,1-.2-.77c0-.22.16-.56.31-.6a.75.75,0,0,1,.64.27,4.93,4.93,0,0,1,.45,1q1.45,3.54,2.9,7.09A1.87,1.87,0,0,1,26.77,15.54Z"/><path class="cls-1" d="M22.35,61.15c.38-1,.7-1.79,1-2.62.71-1.74,1.41-3.49,2.17-5.21.14-.31.6-.47.9-.7.06.37.26.79.14,1.09-1,2.5-2,5-3.05,7.44a1.17,1.17,0,0,1-.7.54C22.75,61.72,22.52,61.35,22.35,61.15Z"/><path class="cls-1" d="M41.43,15.63a3.81,3.81,0,0,1,.1-1.13c1-2.43,2-4.85,3-7.25.12-.28.54-.42.83-.62.06.37.28.8.16,1.1q-1.45,3.69-3,7.34c-.13.31-.54.5-.82.75Z"/><path class="cls-1" d="M53.09,41.41c.75.26,1.52.49,2.26.79,2,.82,4,1.66,5.93,2.54.31.14.5.55.74.84-.38.08-.83.34-1.12.22-2.52-1-5-2.08-7.49-3.18-.27-.12-.39-.57-.58-.86Z"/><path class="cls-3" d="M122.71,14.05l7.09,0-.09,13.33,11.29.08.09-13.4,7.19.05-.23,33.25-7.12,0L141,33.93l-11.29-.08-.09,13.46-7.16-.05Z"/><path class="cls-3" d="M191,47.78c-2.5,0-4.85,0-7.2-.07a1,1,0,0,1-.7-.56c-.75-2-1.46-4-2.21-6.13l-4.34,0c-2.64,0-5.28,0-7.92-.08a1.22,1.22,0,0,0-1.37,1c-.6,1.63-1.22,3.24-1.77,4.88a1.07,1.07,0,0,1-1.22.89c-2.22-.06-4.45-.05-6.82-.07.69-1.72,1.33-3.35,2-5q3.1-7.59,6.22-15.2c1.69-4.13,3.42-8.25,5.1-12.4.4-1,1.29-.65,1.92-.69,1.41-.09,2.84.07,4.26.12a7,7,0,0,0,.84-.11C182.18,25.41,186.57,36.52,191,47.78ZM178.29,34.41c-1.29-3.41-2.51-6.63-3.72-9.86h-.34c-1.28,3.23-2.56,6.46-3.88,9.81Z"/><path class="cls-3" d="M111.7,16.26c-1,2.08-2,4-3.09,6.09a12.11,12.11,0,0,0-7.45-1.94c-4.38.29-8.15,2.05-9.78,6.6a9.53,9.53,0,0,0,1.83,10.07,10,10,0,0,0,7.09,3.43c3.44.25,3.44.26,8.23-1.6,1,2,1.94,4,2.93,6a14.78,14.78,0,0,1-6.06,2.46,18.77,18.77,0,0,1-10.34-.59c-6-2.24-10.06-6.3-11.76-12.49-1.36-5-.09-9.52,2.93-13.56A18.08,18.08,0,0,1,98.6,13.4,19.56,19.56,0,0,1,111.3,16C111.44,16.08,111.57,16.17,111.7,16.26Z"/><path class="cls-3" d="M212.81,47.88l-7.35-.05c0-.32-.05-.65-.05-1,0-4.23,0-8.47.11-12.71a4.2,4.2,0,0,0-.74-2.56q-3.94-5.92-7.87-11.87c-1.08-1.65-2.13-3.32-3.27-5.09a35.83,35.83,0,0,1,8.22,0,1.24,1.24,0,0,1,.69.56q3,4.71,6.06,9.46c.44.69.87.71,1.32,0Q213,20,216,15.35a1.54,1.54,0,0,1,1.47-.8c2,0,4.07,0,6.11.06a11.58,11.58,0,0,1,1.42.22c-.9,1.35-1.75,2.65-2.62,3.94Q219.5,23,216.6,27.28c-1.15,1.69-2.31,3.37-3.44,5.08a2.1,2.1,0,0,0-.24,1.06c0,4.43-.07,8.86-.11,13.29Z"/><path class="cls-3" d="M254.32,48.16c0-.35,0-.66,0-1q.1-15.63.2-31.26c0-.81.24-1.14,1.08-1.12,2,0,4,0,6.17.06,0,.66,0,1.06,0,1.47q-.07,12.14-.17,24.28c0,1.29,0,1.23,1.22,1.22,3.18,0,6.36,0,9.54,0,.62,0,.9.25.88.92,0,1.81,0,3.61-.05,5.48Z"/><path class="cls-3" d="M234.28,48l.22-33.17,7.14,0c.07.85.19,1.6.18,2.34q-.07,14.67-.19,29.33c0,1.42-.14,1.58-1.58,1.59-1.81,0-3.63,0-5.44,0A1.4,1.4,0,0,1,234.28,48Z"/><text class="cls-4" transform="translate(104.9 64.8)">S<tspan class="cls-5" x="9.36" y="0">e</tspan><tspan x="18.04" y="0">rvi</tspan><tspan class="cls-6" x="37.17" y="0">c</tspan><tspan x="44.34" y="0">i</tspan><tspan class="cls-7" x="48.39" y="0">o</tspan><tspan x="57.68" y="0">s finan</tspan><tspan class="cls-6" x="105.34" y="0">c</tspan><tspan x="112.51" y="0">i</tspan><tspan class="cls-5" x="116.56" y="0">e</tspan><tspan class="cls-8" x="125.24" y="0">r</tspan><tspan class="cls-9" x="131.74" y="0">o</tspan><tspan x="141.04" y="0">s</tspan><tspan x="147.91" y="0"> </tspan></text></g></g></svg>