<svg xmlns="http://www.w3.org/2000/svg" viewBox="0 0 261.64 68.34"><defs><style>.cls-1{fill:#eb5f0a;}.cls-2{fill:#6bb52d;}.cls-3{fill:#fff;}</style></defs><title>logo</title><g id="Capa_2" data-name="Capa 2"><g id="Capa_1-2" data-name="Capa 1"><path class="cls-1" d="M32.28,49.75c-5.63,0-13-5.53-13.71-14.16-.76-9.42,6.27-16.5,13.69-17.11,0,1.33,0,2.65,0,4,0,.14-.35.33-.57.39a11.7,11.7,0,0,0-7.1,5.4,11,11,0,0,0-.11,11.7,12.88,12.88,0,0,0,4.59,4.57,14.81,14.81,0,0,0,2.68,1c.21.08.52.29.52.44C32.3,47.22,32.28,48.49,32.28,49.75Z"/><path class="cls-1" d="M42.19,52.47c.27.26.65.47.79.79,1,2.41,2,4.82,3,7.25.13.34-.06.8-.11,1.2-.28-.24-.7-.42-.83-.72q-1.58-3.54-3-7.13a4.32,4.32,0,0,1-.12-1.15Z"/><path class="cls-2" d="M49.75,34.12,46,38s-.09,0-.1-.05c-.45-1.43-.45-1.43-2.07-1.43-2.07,0-4.15,0-6.22,0-.68,0-1-.21-1-.93,0-.93,0-1.87,0-2.81,0-.51.2-.67.73-.66,2.44.07,4.88.1,7.33.12a.9.9,0,0,0,1-1c0-.33,0-.66,0-.83Z"/><path class="cls-1" d="M36.66,18.32c1.42.42,2.69.79,3.94,1.21.16,0,.27.44.27.67,0,3.39,0,6.78,0,10.24H36.66Z"/><path class="cls-1" d="M36.59,38.32h4.17a1.45,1.45,0,0,1,.12.37c0,3.15,0,6.3,0,9.45a1.25,1.25,0,0,1-.69.86c-.72.32-1.5.5-2.25.75-.95.31-1.32.08-1.32-.88Z"/><path class="cls-1" d="M20.29,19.69c-.18.21-.32.48-.43.47a1.57,1.57,0,0,1-.89-.28c-1-1-2-2-3-3l-5.64-5.67c-.37-.36-.8-.78-.31-1.24.14-.13.85.16,1.13.43,2.86,2.8,5.68,5.63,8.5,8.46A9.27,9.27,0,0,1,20.29,19.69Z"/><path class="cls-1" d="M49,48.07a3.87,3.87,0,0,1,.67.43c2.91,2.88,5.81,5.76,8.68,8.67.25.25.23.77.33,1.17-.4-.11-.92-.09-1.18-.35-2.89-2.84-5.75-5.72-8.6-8.61a2,2,0,0,1-.37-1C48.51,48.36,48.8,48.22,49,48.07Z"/><path class="cls-1" d="M7,34.71c-2,0-4.08,0-6.12,0-.3,0-.59-.3-.88-.46.27-.19.54-.54.82-.54q6.16-.06,12.34,0c.32,0,.64.35,1,.53-.33.17-.66.48-1,.48-2,.05-4.08,0-6.12,0Z"/><path class="cls-1" d="M61.1,34.71H55.18a2.05,2.05,0,0,1-.79-.06c-.2-.09-.33-.35-.49-.54a2.37,2.37,0,0,1,.5-.41,1.69,1.69,0,0,1,.6,0H67.15c.1,0,.21,0,.29,0,.27.14.52.31.77.47-.26.18-.52.52-.78.53-2.11,0-4.22,0-6.33,0Z"/><path class="cls-1" d="M33.6,7c0-2.08,0-4.16,0-6.24,0-.26.3-.52.46-.78.19.25.56.5.56.75q.06,6.39,0,12.78c0,.21-.36.41-.55.62-.16-.23-.47-.46-.48-.69C33.59,11.31,33.6,9.17,33.6,7Z"/><path class="cls-1" d="M33.7,54.31c.78-.2,1,.08,1,.8,0,4,0,8.11,0,12.16a1.85,1.85,0,0,1-.18.85.76.76,0,0,1-.58.22c-.12,0-.22-.27-.31-.43a.67.67,0,0,1,0-.2q0-6.52,0-13.06A1.57,1.57,0,0,1,33.7,54.31Z"/><path class="cls-1" d="M58.58,10.22a7,7,0,0,1-.62.83c-2.89,2.89-5.79,5.77-8.68,8.67-.34.34-.7.79-1.13.29-.13-.15.13-.83.38-1.09,2.74-2.8,5.52-5.57,8.29-8.35.24-.23.48-.53.77-.6S58.16,10.1,58.58,10.22Z"/><path class="cls-1" d="M20.24,48.69c-.19.24-.33.46-.51.65-2.92,2.92-5.83,5.85-8.78,8.75-.21.21-.66.19-1,.28.08-.36,0-.84.24-1.06,2.92-3,5.87-5.92,8.83-8.85a1.48,1.48,0,0,1,.89-.24C20,48.22,20.12,48.5,20.24,48.69Z"/><path class="cls-1" d="M45.87,23.33a15.28,15.28,0,0,1,3.87,7.93l-.23.18-3.73-3.8a.58.58,0,0,1-.15-.35c0-1.29,0-2.58,0-3.87Z"/><path class="cls-1" d="M45.62,44.81c0-1.24,0-2.47,0-3.7a.57.57,0,0,1,.12-.37c1.27-1.31,2.55-2.6,3.92-3.82a14.26,14.26,0,0,1-3.78,8Z"/><path class="cls-1" d="M61.68,23a2.53,2.53,0,0,1-.65.54c-2.54,1.09-5.09,2.16-7.66,3.19-.23.09-.6-.16-.91-.26.14-.25.22-.64.43-.73q3.86-1.67,7.74-3.23c.28-.12.69.09,1,.15Z"/><path class="cls-1" d="M7.09,46.05c-.14-.14-.45-.3-.43-.42,0-.29.15-.73.37-.83q3.84-1.66,7.74-3.24c.22-.09.57.12.86.19-.09.28-.1.74-.28.82-2.6,1.12-5.21,2.2-7.82,3.28Z"/><path class="cls-1" d="M15.74,26.62c-.31.05-.67.25-.91.15-2.34-.93-4.65-1.92-7-2.89-.09,0-.16-.13-.25-.16-.58-.14-1.23-.31-.9-1.06.07-.17,1-.16,1.36,0,2.24.89,4.47,1.85,6.68,2.81a7.42,7.42,0,0,1,1.07.72Z"/><path class="cls-1" d="M26.77,15.54A.8.8,0,0,1,25.54,15c-.95-2.34-1.92-4.67-2.87-7a2,2,0,0,1-.2-.77c0-.22.16-.56.31-.6a.75.75,0,0,1,.64.27,4.93,4.93,0,0,1,.45,1q1.45,3.54,2.9,7.09A1.87,1.87,0,0,1,26.77,15.54Z"/><path class="cls-1" d="M22.35,61.15c.38-1,.7-1.79,1-2.62.71-1.74,1.41-3.49,2.17-5.21.14-.31.6-.47.9-.7.06.37.26.79.14,1.09-1,2.5-2,5-3.05,7.44a1.17,1.17,0,0,1-.7.54C22.75,61.72,22.52,61.35,22.35,61.15Z"/><path class="cls-1" d="M41.43,15.63a3.81,3.81,0,0,1,.1-1.13c1-2.43,2-4.85,3-7.25.12-.28.54-.42.83-.62.06.37.28.8.16,1.1q-1.45,3.69-3,7.34c-.13.31-.54.5-.82.75Z"/><path class="cls-1" d="M53.09,41.41c.75.26,1.52.49,2.26.79,2,.82,4,1.66,5.93,2.54.31.14.5.55.74.84-.38.08-.83.34-1.12.22-2.52-1-5-2.08-7.49-3.18-.27-.12-.39-.57-.58-.86Z"/><path class="cls-3" d="M111.16,12l7.09,0-.09,13.34,11.3.07.09-13.4,7.18.05-.23,33.26-7.11-.05.09-13.44-11.3-.08-.09,13.46-7.16,0Z"/><path class="cls-3" d="M179.47,45.71c-2.5,0-4.85,0-7.2-.08a1,1,0,0,1-.7-.56c-.75-2-1.45-4-2.2-6.13l-4.34,0c-2.64,0-5.29,0-7.92-.08a1.24,1.24,0,0,0-1.38,1c-.6,1.63-1.22,3.25-1.76,4.89a1.08,1.08,0,0,1-1.23.88c-2.22-.06-4.44,0-6.82-.06.7-1.73,1.34-3.35,2-5q3.09-7.6,6.21-15.2c1.7-4.14,3.42-8.26,5.1-12.4.41-1,1.3-.65,1.92-.69,1.41-.1,2.84.07,4.26.11a6.78,6.78,0,0,0,.85-.1ZM166.74,32.33,163,22.47h-.33l-3.89,9.81Z"/><path class="cls-3" d="M100.16,14.18l-3.09,6.09a12.13,12.13,0,0,0-7.46-1.93c-4.38.28-8.15,2-9.77,6.59A9.52,9.52,0,0,0,81.66,35a10.06,10.06,0,0,0,7.1,3.43c3.43.24,3.43.26,8.22-1.6l2.94,6a14.78,14.78,0,0,1-6.06,2.46,18.68,18.68,0,0,1-10.34-.59c-6-2.24-10.07-6.29-11.76-12.49-1.36-5-.1-9.52,2.92-13.55a18.05,18.05,0,0,1,12.37-7.32,19.6,19.6,0,0,1,12.7,2.61Z"/><path class="cls-3" d="M201.26,45.81l-7.35-.05c0-.32,0-.66,0-1,0-4.24,0-8.48.11-12.71a4.25,4.25,0,0,0-.74-2.56q-3.94-5.94-7.87-11.88c-1.09-1.64-2.14-3.31-3.27-5.08a35.19,35.19,0,0,1,8.21,0,1.19,1.19,0,0,1,.69.55q3,4.72,6.06,9.46c.45.7.87.71,1.33,0,2-3.11,4.05-6.21,6.07-9.33a1.52,1.52,0,0,1,1.47-.8c2,.06,4.07,0,6.1.07a9.39,9.39,0,0,1,1.42.21c-.9,1.35-1.75,2.65-2.62,3.94l-5.77,8.52c-1.15,1.69-2.32,3.36-3.44,5.07a2.14,2.14,0,0,0-.25,1.07q-.06,6.65-.1,13.28Z"/><path class="cls-3" d="M242.77,46.09c0-.36,0-.67,0-1q.11-15.63.19-31.25c0-.82.25-1.14,1.08-1.12,2,0,4,0,6.18,0,0,.66,0,1.07,0,1.47q-.09,12.15-.17,24.28c0,1.3,0,1.23,1.21,1.23,3.18,0,6.37,0,9.55,0,.62,0,.9.24.88.91-.05,1.81,0,3.62-.05,5.49Z"/><path class="cls-3" d="M222.73,45.89,223,12.72l7.14,0c.07.85.18,1.6.18,2.34-.05,9.78-.13,19.56-.19,29.34,0,1.42-.15,1.58-1.59,1.59-1.81,0-3.62,0-5.43,0A1.45,1.45,0,0,1,222.73,45.89Z"/><path class="cls-1" d="M94.9,59.62a4.57,4.57,0,0,0,3,1.33c1.05,0,1.82-.56,1.82-1.46s-.56-1.28-2.32-2c-2.11-.83-3-1.83-3-3.27a3.51,3.51,0,0,1,3.78-3.34,4.82,4.82,0,0,1,3.26,1.24l-1,1.55a3.79,3.79,0,0,0-2.25-.81c-1,0-1.63.61-1.63,1.31s.51,1.1,2,1.67c2.21.84,3.54,1.73,3.54,3.57,0,2.22-1.71,3.51-4.09,3.51a5.5,5.5,0,0,1-4.25-1.83Z"/><path class="cls-1" d="M107.2,55.3A3.64,3.64,0,0,1,111,59c0,.13,0,.24,0,.4h-5.63a1.9,1.9,0,0,0,2.09,1.92,2.32,2.32,0,0,0,1.9-1l1.48.75A4,4,0,0,1,107.29,63a3.83,3.83,0,1,1-.09-7.65Zm-1.83,3.07H109a1.75,1.75,0,0,0-1.8-1.63A1.69,1.69,0,0,0,105.37,58.37Z"/><path class="cls-1" d="M112.41,55.53h2.06v1.18a2.43,2.43,0,0,1,2.24-1.41,2.82,2.82,0,0,1,1.43.39l-.85,1.74a2.13,2.13,0,0,0-1.15-.35c-.9,0-1.67.72-1.67,2v3.64h-2.06Z"/><path class="cls-1" d="M120.21,55.53l2,4.47,2-4.47h2.43l-3.76,7.2h-1.38l-3.75-7.2Z"/><path class="cls-1" d="M128.51,51.58a1.23,1.23,0,1,1-1.23,1.22A1.22,1.22,0,0,1,128.51,51.58Zm-1,11.15v-7.2h2v7.2Z"/><path class="cls-1" d="M131,59.13a3.86,3.86,0,0,1,4-3.83,4,4,0,0,1,2.39.72l-.76,1.34a2.36,2.36,0,0,0-1.32-.38,2.15,2.15,0,1,0,0,4.29,2.28,2.28,0,0,0,1.32-.38l.76,1.35A4.11,4.11,0,0,1,135,63,3.86,3.86,0,0,1,131,59.13Z"/><path class="cls-1" d="M139.73,51.58a1.23,1.23,0,1,1-1.23,1.22A1.22,1.22,0,0,1,139.73,51.58Zm-1,11.15v-7.2h2.05v7.2Z"/><path class="cls-1" d="M146.43,55.3a3.84,3.84,0,1,1-4.21,3.83A3.91,3.91,0,0,1,146.43,55.3Zm0,5.9a2.07,2.07,0,1,0-2.06-2.07A2,2,0,0,0,146.43,61.2Z"/><path class="cls-1" d="M152.35,60.66a2.63,2.63,0,0,0,1.8.77c.57,0,1-.25,1-.76s-.49-.73-1.29-1-2.18-.85-2.18-2.16,1.11-2.17,2.79-2.17a3.85,3.85,0,0,1,2.41.81l-.74,1.09a2.53,2.53,0,0,0-1.52-.51c-.64,0-1,.28-1,.67s.48.67,1.41,1c1.4.51,2.27,1.16,2.27,2.34,0,1.42-1.15,2.23-3,2.23a3.71,3.71,0,0,1-2.88-1.16Z"/><path class="cls-1" d="M162.54,55.53h.93V53.66c0-2,1-3.24,2.6-3.24a4.4,4.4,0,0,1,3,1.1l-.76,1.41a2.47,2.47,0,0,0-1.59-.71c-.83,0-1.14.44-1.14,1.48v1.83h4.38v7.2h-2.06V57.09h-2.32v5.64h-2.06V57.09h-.93Z"/><path class="cls-1" d="M173.85,55.53v1a2.82,2.82,0,0,1,2.42-1.21,2.7,2.7,0,0,1,2.8,2.87v4.56H177V58.61a1.5,1.5,0,0,0-1.55-1.7c-1,0-1.61.66-1.61,1.8v4h-2v-7.2Z"/><path class="cls-1" d="M180.38,59.12A3.6,3.6,0,0,1,184,55.3a3.22,3.22,0,0,1,2.56,1.23v-1h2.05v7.2h-2.05v-1A3.19,3.19,0,0,1,184,63,3.61,3.61,0,0,1,180.38,59.12Zm4.17,2.08a2.08,2.08,0,1,0-2-2.07A2,2,0,0,0,184.55,61.2Z"/><path class="cls-1" d="M192.62,55.53v1A2.81,2.81,0,0,1,195,55.3a2.69,2.69,0,0,1,2.8,2.87v4.56h-2.05V58.61a1.5,1.5,0,0,0-1.55-1.7c-1,0-1.61.66-1.61,1.8v4h-2.05v-7.2Z"/><path class="cls-1" d="M199.18,59.13a3.85,3.85,0,0,1,4-3.83,4,4,0,0,1,2.39.72l-.77,1.34A2.3,2.3,0,0,0,203.5,57a2.15,2.15,0,1,0,0,4.29,2.23,2.23,0,0,0,1.31-.38l.77,1.35a4.11,4.11,0,0,1-2.39.71A3.85,3.85,0,0,1,199.18,59.13Z"/><path class="cls-1" d="M207.89,51.58a1.23,1.23,0,1,1-1.22,1.22A1.23,1.23,0,0,1,207.89,51.58Zm-1,11.15v-7.2h2v7.2Z"/><path class="cls-1" d="M214.4,55.3A3.64,3.64,0,0,1,218.15,59a2.89,2.89,0,0,1,0,.4h-5.62a1.9,1.9,0,0,0,2.09,1.92,2.31,2.31,0,0,0,1.89-1l1.49.75a4,4,0,0,1-3.5,1.84,3.83,3.83,0,1,1-.08-7.65Zm-1.83,3.07h3.57a1.74,1.74,0,0,0-1.8-1.63A1.69,1.69,0,0,0,212.57,58.37Z"/><path class="cls-1" d="M219.61,55.53h2v1.18a2.44,2.44,0,0,1,2.24-1.41,2.83,2.83,0,0,1,1.44.39l-.86,1.74a2.12,2.12,0,0,0-1.14-.35,1.78,1.78,0,0,0-1.68,2v3.64h-2Z"/><path class="cls-1" d="M229.78,55.3a3.84,3.84,0,1,1-4.21,3.83A3.91,3.91,0,0,1,229.78,55.3Zm0,5.9a2.07,2.07,0,1,0-2.06-2.07A2,2,0,0,0,229.78,61.2Z"/><path class="cls-1" d="M235.7,60.66a2.63,2.63,0,0,0,1.8.77c.57,0,1-.25,1-.76s-.48-.73-1.29-1-2.18-.85-2.18-2.16,1.11-2.17,2.8-2.17a3.84,3.84,0,0,1,2.4.81l-.74,1.09A2.53,2.53,0,0,0,238,56.7c-.64,0-1,.28-1,.67s.47.67,1.4,1c1.4.51,2.27,1.16,2.27,2.34,0,1.42-1.15,2.23-3,2.23a3.71,3.71,0,0,1-2.88-1.16Z"/></g></g></svg>