<svg id="Capa_1" data-name="Capa 1" xmlns="http://www.w3.org/2000/svg" viewBox="0 0 445.96 446.78"><defs><style>.cls-1{fill:#fff;}.cls-2{fill:#ed6b1d;}</style></defs><title>logo  sin texto</title><path class="cls-1" d="M411.34,427.05c-36.8,0-85-36.15-89.59-92.57-5-61.54,41-107.88,89.49-111.86,0,8.7.11,17.35-.17,26,0,.91-2.27,2.14-3.69,2.55-20,5.82-35.95,17.36-46.46,35.28-14.75,25.13-15.16,50.83-.69,76.53,7.22,12.82,17.87,22.23,30,29.86,5.19,3.25,11.71,4.34,17.55,6.62,1.35.53,3.37,1.85,3.41,2.86C411.46,410.56,411.34,418.82,411.34,427.05Z" transform="translate(-203.29 -101.83)"/><path class="cls-1" d="M528.52,324.9l-24.78,25.3c-.24-.12-.56-.17-.61-.32-2.94-9.38-2.94-9.38-13.53-9.38-13.56,0-27.12-.12-40.68.07-4.45.06-6.42-1.36-6.21-6,.27-6.12.1-12.27.05-18.4,0-3.36,1.29-4.41,4.81-4.3,15.95.46,31.91.62,47.86.79,4.08,0,6.56-2,6.71-6.29.07-2.15,0-4.29,0-5.42Q514.89,312.51,528.52,324.9Z" transform="translate(-203.29 -101.83)"/><path class="cls-1" d="M443,221.57c9.26,2.8,17.57,5.17,25.75,8,1,.34,1.77,2.87,1.77,4.39.12,22.15.08,44.29.08,66.93H443Z" transform="translate(-203.29 -101.83)"/><path class="cls-1" d="M442.49,352.35h27.28a9.11,9.11,0,0,1,.78,2.45c0,20.59.15,41.17-.18,61.75,0,2-2.52,4.72-4.53,5.63-4.68,2.1-9.78,3.26-14.68,4.86-6.26,2-8.65.54-8.66-5.7C442.48,398.6,442.49,375.85,442.49,352.35Z" transform="translate(-203.29 -101.83)"/><path class="cls-1" d="M335.93,230.57c-1.18,1.36-2.05,3.11-2.77,3.05-2-.18-4.48-.53-5.83-1.81-6.64-6.3-13-12.92-19.42-19.41Q289.46,193.85,271,175.32c-2.39-2.39-5.23-5.13-2-8.11.91-.84,5.59,1,7.41,2.79,18.66,18.3,37.09,36.82,55.54,55.34A47.69,47.69,0,0,1,335.93,230.57Z" transform="translate(-203.29 -101.83)"/><path class="cls-1" d="M520.65,416.09c1.61,1,3.26,1.69,4.43,2.84,19,18.81,38,37.6,56.7,56.65,1.64,1.66,1.5,5.07,2.19,7.66-2.62-.72-6-.63-7.73-2.29q-28.38-27.87-56.22-56.3c-1.45-1.47-2-4-2.43-6.18C517.48,418,519.36,417.05,520.65,416.09Z" transform="translate(-203.29 -101.83)"/><path class="cls-1" d="M249.06,328.76c-13.34,0-26.68.13-40-.14-1.93,0-3.83-2-5.75-3,1.78-1.24,3.55-3.53,5.34-3.55q40.35-.35,80.7,0c2.11,0,4.2,2.25,6.3,3.46-2.18,1.1-4.34,3.1-6.55,3.15-13.33.3-26.68.15-40,.15Z" transform="translate(-203.29 -101.83)"/><path class="cls-1" d="M602.78,328.77q-19.37,0-38.73,0c-1.75,0-3.69.27-5.17-.4s-2.16-2.32-3.2-3.54c1.08-.92,2-2.14,3.27-2.66s2.58-.25,3.89-.25h79.43c.65,0,1.43-.2,1.94.08,1.73.93,3.37,2,5,3.07-1.71,1.21-3.39,3.44-5.12,3.48-13.78.29-27.57.16-41.35.16Z" transform="translate(-203.29 -101.83)"/><path class="cls-1" d="M423,147.72c0-13.59-.1-27.19.14-40.78,0-1.72,1.94-3.41,3-5.11,1.29,1.63,3.68,3.26,3.69,4.9q.38,41.78.06,83.53c0,1.37-2.32,2.72-3.56,4.08-1.1-1.51-3.13-3-3.15-4.52C422.86,175.79,423,161.75,423,147.72Z" transform="translate(-203.29 -101.83)"/><path class="cls-1" d="M423.59,456.91c5.1-1.33,6.53.49,6.5,5.21-.18,26.49-.08,53-.16,79.49a11.66,11.66,0,0,1-1.18,5.54c-.54,1-2.53,1.54-3.8,1.45-.73-.05-1.38-1.78-2-2.81-.19-.33-.06-.86-.05-1.3q0-42.69.07-85.4A10.21,10.21,0,0,1,423.59,456.91Z" transform="translate(-203.29 -101.83)"/><path class="cls-1" d="M586.26,168.66c-2,2.68-2.83,4.21-4,5.4q-28.37,28.37-56.76,56.66c-2.24,2.24-4.59,5.19-7.38,1.93-.86-1,.8-5.42,2.48-7.13,17.92-18.32,36.07-36.43,54.2-54.56,1.52-1.53,3.13-3.47,5-4C581.45,166.55,583.56,167.88,586.26,168.66Z" transform="translate(-203.29 -101.83)"/><path class="cls-1" d="M335.64,420.14a48,48,0,0,1-3.38,4.24c-19.06,19.13-38.11,38.28-57.36,57.23-1.41,1.39-4.33,1.25-6.55,1.82.49-2.36.17-5.51,1.59-6.95q28.59-29.16,57.69-57.81c1.27-1.26,3.83-1.47,5.83-1.59C334.08,417.05,334.81,418.92,335.64,420.14Z" transform="translate(-203.29 -101.83)"/><path class="cls-1" d="M503.18,254.34a99.94,99.94,0,0,1,25.33,51.87L527,307.35Q514.78,295,502.59,282.54a3.78,3.78,0,0,1-1-2.32c-.07-8.43,0-16.86,0-25.29Z" transform="translate(-203.29 -101.83)"/><path class="cls-1" d="M501.52,394.76c0-8.06,0-16.12,0-24.18a3.83,3.83,0,0,1,.76-2.43c8.3-8.52,16.66-17,25.61-25-2.89,20.12-10.8,37.62-24.67,52.21Z" transform="translate(-203.29 -101.83)"/><path class="cls-1" d="M606.56,252.35c-1.41,1.2-2.64,2.83-4.26,3.52C585.65,263,569,270,552.19,276.71c-1.51.6-3.93-1.06-5.93-1.67.92-1.64,1.46-4.18,2.83-4.78q25.15-10.9,50.59-21.17c1.82-.73,4.48.63,6.76,1Z" transform="translate(-203.29 -101.83)"/><path class="cls-1" d="M249.64,402.85c-.94-.85-2.93-1.92-2.82-2.71.26-1.93,1-4.8,2.41-5.4q25.14-11,50.61-21.19c1.48-.59,3.75.77,5.65,1.23-.6,1.84-.69,4.84-1.86,5.35-17,7.35-34.06,14.37-51.13,21.47C251.71,401.92,250.94,402.28,249.64,402.85Z" transform="translate(-203.29 -101.83)"/><path class="cls-1" d="M306.22,275.84c-2,.38-4.39,1.63-6,1-15.26-6.1-30.38-12.52-45.53-18.86-.59-.25-1.06-.89-1.66-1-3.77-.92-8-2-5.87-7,.48-1.12,6.19-1,8.89,0,14.68,5.85,29.2,12.11,43.69,18.41,2.52,1.1,4.65,3.09,7,4.67Z" transform="translate(-203.29 -101.83)"/><path class="cls-1" d="M476.15,444.85c1.77,1.71,4.28,3.11,5.17,5.2,6.72,15.7,13.26,31.48,19.47,47.39.85,2.18-.42,5.18-.7,7.81-1.86-1.55-4.57-2.73-5.45-4.71q-10.27-23.15-19.85-46.6c-.92-2.24-.56-5-.79-7.54Z" transform="translate(-203.29 -101.83)"/><path class="cls-2" d="M378.32,203.42c-4.35,1.87-6.56.3-8.05-3.34-6.21-15.28-12.54-30.51-18.77-45.78a12.41,12.41,0,0,1-1.32-5c.07-1.42,1-3.69,2-3.93a5,5,0,0,1,4.23,1.79c1.37,1.86,2,4.27,2.9,6.46q9.51,23.16,19,46.34C378.65,200.89,378.32,202.1,378.32,203.42Z" transform="translate(-203.29 -101.83)"/><path class="cls-1" d="M378.32,203.42c-4.35,1.87-6.56.3-8.05-3.34-6.21-15.28-12.54-30.51-18.77-45.78a12.41,12.41,0,0,1-1.32-5c.07-1.42,1-3.69,2-3.93a5,5,0,0,1,4.23,1.79c1.37,1.86,2,4.27,2.9,6.46q9.51,23.16,19,46.34C378.65,200.89,378.32,202.1,378.32,203.42Z" transform="translate(-203.29 -101.83)"/><path class="cls-1" d="M349.38,501.61c2.49-6.27,4.6-11.72,6.81-17.13,4.66-11.39,9.21-22.84,14.23-34.07.9-2,3.87-3.07,5.89-4.57.35,2.4,1.67,5.17.91,7.12-6.4,16.32-13.1,32.52-20,48.66-.68,1.6-2.84,2.95-4.6,3.51C352,505.34,350.54,502.9,349.38,501.61Z" transform="translate(-203.29 -101.83)"/><path class="cls-1" d="M474.18,204c.17-2.47-.27-5.2.61-7.39q9.6-23.83,19.8-47.43c.79-1.8,3.58-2.73,5.43-4.07.42,2.42,1.84,5.24,1.08,7.19q-9.51,24.19-19.83,48c-.87,2-3.52,3.25-5.34,4.85Z" transform="translate(-203.29 -101.83)"/><path class="cls-1" d="M547.38,372.52c4.94,1.73,10,3.23,14.81,5.23,13,5.36,25.93,10.79,38.74,16.54,2,.92,3.27,3.66,4.87,5.55-2.48.52-5.41,2.18-7.36,1.4q-24.66-9.94-48.93-20.8c-1.76-.78-2.57-3.69-3.83-5.6Z" transform="translate(-203.29 -101.83)"/></svg>