<svg xmlns="http://www.w3.org/2000/svg" viewBox="0 0 513.72 126.03"><defs><style>.cls-1{fill:#fff;}.cls-2{fill:#ff6801;}.cls-3{fill:#67c507;}</style></defs><title>Recurso 7</title><g id="Capa_2" data-name="Capa 2"><g id="Capa_1-2" data-name="Capa 1"><path class="cls-1" d="M220.89,27.67h13.79V53.58h21.94v-26h14V92.17H256.76V66.05h-22V92.21H220.89Z"/><path class="cls-1" d="M354.1,92.31c-4.86,0-9.43,0-14,0a1.93,1.93,0,0,1-1.36-1.08c-1.49-3.88-2.88-7.79-4.37-11.88h-8.44c-5.13,0-10.26.1-15.39,0a2.4,2.4,0,0,0-2.66,1.87c-1.14,3.16-2.32,6.32-3.36,9.51a2.09,2.09,0,0,1-2.37,1.73c-4.32-.09-8.64,0-13.25,0,1.32-3.36,2.54-6.53,3.8-9.68Q298.63,67.83,304.58,53c3.24-8.06,6.54-16.1,9.74-24.17.78-1.95,2.51-1.28,3.73-1.37,2.74-.2,5.52.1,8.28.16a10,10,0,0,0,1.64-.21C336.63,49,345.3,70.47,354.1,92.31ZM329.18,66.48l-7.36-19.1h-.66l-7.41,19.11Z"/><path class="cls-1" d="M199.54,32.1,193.61,44a23.59,23.59,0,0,0-14.51-3.66c-8.51.61-15.81,4.09-18.91,12.94-2.47,7-1.48,13.79,3.69,19.56a19.43,19.43,0,0,0,13.83,6.57c6.68.43,6.68.46,16-3.22,1.91,3.82,3.82,7.65,5.79,11.57a28.68,28.68,0,0,1-11.75,4.86C181,94,174.19,94,167.6,91.6,156,87.33,148,79.5,144.58,67.48c-2.7-9.62-.31-18.5,5.51-26.38A35.14,35.14,0,0,1,174,26.72a38.13,38.13,0,0,1,24.71,4.89C199,31.76,199.28,31.94,199.54,32.1Z"/><path class="cls-1" d="M396.45,92.21H382.16c0-.62-.09-1.27-.09-1.92,0-8.23-.07-16.47,0-24.7a8.27,8.27,0,0,0-1.48-5q-7.75-11.46-15.45-23c-2.13-3.19-4.19-6.42-6.43-9.85a69.93,69.93,0,0,1,16,0,2.33,2.33,0,0,1,1.35,1.07q6,9.12,11.9,18.3c.88,1.35,1.7,1.38,2.58,0q5.85-9.1,11.67-18.22a3,3,0,0,1,2.85-1.57c3.95.08,7.91,0,11.86,0a22.51,22.51,0,0,1,2.77.4c-1.73,2.64-3.37,5.18-5,7.7q-5.54,8.31-11.11,16.62c-2.21,3.3-4.46,6.57-6.62,9.91a4,4,0,0,0-.46,2.07c0,8.61,0,17.21,0,25.82Z"/><path class="cls-1" d="M477.12,92.2c0-.69-.1-1.29-.1-1.89q0-30.37,0-60.74c0-1.59.46-2.22,2.08-2.2,3.92.07,7.84,0,12,0v2.86q0,23.6,0,47.18c0,2.52,0,2.4,2.38,2.37,6.18-.07,12.37,0,18.55,0,1.21,0,1.75.47,1.73,1.77-.07,3.51,0,7,0,10.65Z"/><path class="cls-1" d="M438.17,92.09V27.63H452c.15,1.65.39,3.1.39,4.55q0,28.5,0,57c0,2.76-.26,3.08-3.06,3.11-3.52,0-7,0-10.56,0A2.8,2.8,0,0,1,438.17,92.09Z"/><path class="cls-2" d="M59.53,91.74c-10.39,0-24-10.2-25.28-26.11C32.84,48.27,45.81,35.2,59.5,34.07c0,2.46,0,4.9,0,7.34,0,.25-.64.6-1,.72A21.6,21.6,0,0,0,45.3,52.08c-4.16,7.09-4.27,14.33-.19,21.58a24,24,0,0,0,8.46,8.43c1.46.92,3.3,1.22,5,1.86.38.15.95.53,1,.81C59.56,87.09,59.53,89.42,59.53,91.74Z"/><path class="cls-2" d="M77.81,96.76c.49.49,1.2.88,1.46,1.47,1.89,4.43,3.74,8.88,5.49,13.37.24.61-.12,1.46-.2,2.2-.53-.44-1.29-.77-1.54-1.33q-2.89-6.52-5.6-13.14a7.83,7.83,0,0,1-.22-2.13Z"/><path class="cls-3" d="M91.74,62.93c-2.5,2.54-4.74,4.84-7,7.13-.07,0-.16,0-.17-.09-.83-2.65-.83-2.64-3.82-2.64-3.82,0-7.65,0-11.47,0-1.26,0-1.81-.38-1.75-1.7.07-1.72,0-3.46,0-5.19,0-1,.37-1.24,1.36-1.21,4.5.13,9,.17,13.5.22a1.66,1.66,0,0,0,1.89-1.77c0-.61,0-1.21,0-1.53Z"/><path class="cls-2" d="M67.62,33.78c2.61.79,4.95,1.46,7.26,2.24.28.1.5.81.5,1.24,0,6.25,0,12.49,0,18.88H67.62Z"/><path class="cls-2" d="M67.47,70.67h7.7a2.5,2.5,0,0,1,.22.69c0,5.81,0,11.61,0,17.42a2.36,2.36,0,0,1-1.28,1.59,41.8,41.8,0,0,1-4.14,1.37c-1.77.58-2.44.15-2.44-1.61C67.47,83.71,67.47,77.3,67.47,70.67Z"/><path class="cls-2" d="M37.42,36.32c-.34.38-.58.87-.79.86A2.88,2.88,0,0,1,35,36.67c-1.87-1.78-3.66-3.65-5.48-5.48L19.1,20.73c-.68-.67-1.48-1.44-.57-2.29.26-.23,1.58.29,2.09.79,5.26,5.16,10.47,10.39,15.67,15.61A14.31,14.31,0,0,1,37.42,36.32Z"/><path class="cls-2" d="M90.36,88.65a8.16,8.16,0,0,1,1.25.8c5.35,5.31,10.71,10.61,16,16,.47.47.43,1.43.62,2.16-.74-.2-1.7-.18-2.18-.65q-8-7.86-15.86-15.88a3.55,3.55,0,0,1-.68-1.74C89.47,89.18,90,88.92,90.36,88.65Z"/><path class="cls-2" d="M12.91,64c-3.76,0-7.53,0-11.29,0-.54,0-1.08-.56-1.62-.85.5-.35,1-1,1.51-1q11.37-.1,22.76,0c.59,0,1.18.63,1.78,1-.62.31-1.23.88-1.85.89-3.76.08-7.53,0-11.29,0Z"/><path class="cls-2" d="M112.69,64H101.76a3.7,3.7,0,0,1-1.46-.11c-.37-.17-.6-.65-.9-1a4.27,4.27,0,0,1,.92-.75,3.07,3.07,0,0,1,1.1-.07h22.41c.18,0,.4-.06.55,0,.48.26,1,.57,1.42.86-.48.35-1,1-1.45,1-3.88.09-7.77,0-11.66,0Z"/><path class="cls-2" d="M62,13c0-3.84,0-7.67,0-11.51,0-.48.54-1,.83-1.44.36.46,1,.92,1,1.38Q64,13.17,63.9,25c0,.38-.66.76-1,1.15-.31-.43-.89-.85-.89-1.28C61.94,20.86,62,16.9,62,13Z"/><path class="cls-2" d="M62.14,100.16c1.44-.37,1.85.14,1.84,1.47-.06,7.48,0,15,0,22.43a3.32,3.32,0,0,1-.33,1.56,1.34,1.34,0,0,1-1.07.41c-.21,0-.39-.5-.56-.79a.91.91,0,0,1,0-.37q0-12,0-24.09A3.14,3.14,0,0,1,62.14,100.16Z"/><path class="cls-2" d="M108,18.85a15.75,15.75,0,0,1-1.14,1.53q-8,8-16,16c-.63.63-1.29,1.46-2.08.54-.24-.28.23-1.52.7-2,5.06-5.17,10.18-10.27,15.29-15.39a3.74,3.74,0,0,1,1.42-1.12C106.67,18.26,107.27,18.63,108,18.85Z"/><path class="cls-2" d="M37.33,89.79a12.9,12.9,0,0,1-.95,1.2C31,96.38,25.63,101.79,20.2,107.13c-.4.39-1.22.35-1.85.51.14-.66,0-1.55.45-2q8.07-8.22,16.27-16.3a2.67,2.67,0,0,1,1.65-.45C36.89,88.92,37.1,89.45,37.33,89.79Z"/><path class="cls-2" d="M84.59,43a28.2,28.2,0,0,1,7.15,14.63l-.43.33q-3.45-3.49-6.88-7a1,1,0,0,1-.28-.66c0-2.38,0-4.75,0-7.13Z"/><path class="cls-2" d="M84.13,82.63c0-2.27,0-4.55,0-6.82a1.11,1.11,0,0,1,.22-.68c2.34-2.41,4.7-4.79,7.22-7a26.09,26.09,0,0,1-7,14.73Z"/><path class="cls-2" d="M113.75,42.46a5.06,5.06,0,0,1-1.2,1c-4.69,2-9.39,4-14.13,5.88-.43.17-1.11-.3-1.67-.47.26-.46.41-1.18.79-1.35q7.11-3.07,14.27-6c.52-.2,1.27.18,1.91.29Z"/><path class="cls-2" d="M13.07,84.92c-.26-.25-.82-.55-.79-.77.07-.54.29-1.35.68-1.52q7.09-3.09,14.28-6c.41-.17,1.05.22,1.59.34-.17.52-.2,1.37-.53,1.51-4.78,2.08-9.61,4.06-14.42,6.06Z"/><path class="cls-2" d="M29,49.09c-.57.1-1.23.46-1.69.27-4.3-1.72-8.57-3.52-12.84-5.31-.17-.07-.3-.26-.47-.3-1.06-.26-2.26-.57-1.66-2,.14-.31,1.75-.29,2.51,0C19,43.45,23.12,45.22,27.21,47a13.19,13.19,0,0,1,2,1.32Z"/><path class="cls-2" d="M49.37,28.66a1.48,1.48,0,0,1-2.27-.94c-1.75-4.31-3.54-8.61-5.29-12.92a3.5,3.5,0,0,1-.38-1.41c0-.4.3-1,.57-1.11a1.45,1.45,0,0,1,1.2.51A8.33,8.33,0,0,1,44,14.61q2.68,6.54,5.35,13.07A2.88,2.88,0,0,1,49.37,28.66Z"/><path class="cls-2" d="M41.21,112.77c.7-1.76,1.3-3.3,1.92-4.83,1.32-3.21,2.6-6.44,4-9.61.26-.56,1.1-.87,1.67-1.29.1.68.47,1.46.25,2-1.8,4.6-3.69,9.17-5.63,13.72a2.19,2.19,0,0,1-1.29,1C42,113.82,41.53,113.14,41.21,112.77Z"/><path class="cls-2" d="M76.41,28.83a7.05,7.05,0,0,1,.18-2.08q2.7-6.73,5.58-13.38c.22-.51,1-.77,1.53-1.15.12.68.52,1.48.31,2q-2.69,6.83-5.6,13.55c-.24.57-1,.92-1.5,1.37Z"/><path class="cls-2" d="M97.9,76.36c1.39.49,2.81.91,4.18,1.47,3.66,1.51,7.31,3,10.92,4.67.58.26.93,1,1.38,1.57-.7.14-1.53.61-2.08.39-4.63-1.87-9.23-3.84-13.8-5.87-.5-.22-.73-1-1.08-1.58Z"/></g></g></svg>