<svg xmlns="http://www.w3.org/2000/svg" viewBox="0 0 42.78 246.13"><defs><style>.cls-1{opacity:0.5;}.cls-2{fill:#f86126;}</style></defs><title>Recurso 8</title><g id="Capa_2" data-name="Capa 2"><g id="Capa_4" data-name="Capa 4"><g class="cls-1"><path class="cls-2" d="M42.78,103.58l-2.93.13,1.59-4.45s-5,1.79-6.24,2.11a10.15,10.15,0,0,0-11.75-.92,7.92,7.92,0,0,0-3.92,8.19,21.83,21.83,0,0,1-14.06-7.75L4.29,99.5l-.89,1.58a9.45,9.45,0,0,0-1,6.45,9,9,0,0,0,.92,2.52l-1-.39-.12,1.66a8.65,8.65,0,0,0,1.53,5.25A9,9,0,0,0,4.87,118l-.52-.08.63,1.9a9.3,9.3,0,0,0,4.85,5.49c-2.26.94-4.09,1.54-7.09,2.5L0,128.7l2.54,1.36a26.87,26.87,0,0,0,7.75,2.76c7.5,1.15,16,.22,21.63-4.79,4.79-4.22,6.36-10.23,6-16.47A3.82,3.82,0,0,1,38.7,109c1.06-1.39,4.08-5.43,4.08-5.44Z"/><path class="cls-2" d="M28.33,209.94H14.46A11.44,11.44,0,0,0,2.9,221.25v13.57a11.43,11.43,0,0,0,11.56,11.31H28.33a11.44,11.44,0,0,0,11.56-11.31V221.25A11.44,11.44,0,0,0,28.33,209.94Zm8.09,24.88a8,8,0,0,1-8.09,7.92H14.46a8,8,0,0,1-8.09-7.92V221.25a8,8,0,0,1,8.09-7.92H28.33a8,8,0,0,1,8.09,7.92Z"/><path class="cls-2" d="M21.39,219a9.05,9.05,0,1,0,9.25,9A9.15,9.15,0,0,0,21.39,219Zm0,14.7A5.66,5.66,0,1,1,27.17,228,5.73,5.73,0,0,1,21.39,233.69Z"/><path class="cls-2" d="M31.33,217.11a1.21,1.21,0,1,1-1.23,1.2A1.22,1.22,0,0,1,31.33,217.11Z"/><path class="cls-2" d="M38.15,5.47A5.73,5.73,0,0,0,32.56,0H10.22A5.73,5.73,0,0,0,4.63,5.47V27.33a5.73,5.73,0,0,0,5.59,5.46H21.39V20.4H17.3V14.94h4.09V12.81c0-3.67,2.82-7,6.29-7h4.51V11.3H27.68a1.33,1.33,0,0,0-1.07,1.46v2.18h5.58V20.4H26.61V32.79h6a5.73,5.73,0,0,0,5.59-5.46Z"/></g></g></g></svg>