<svg xmlns="http://www.w3.org/2000/svg" viewBox="0 0 125.8 126.03"><defs><style>.cls-1{fill:#ff6801;}.cls-2{fill:#67c507;}</style></defs><title>Recurso 6</title><g id="Capa_2" data-name="Capa 2"><g id="Capa_1-2" data-name="Capa 1"><path class="cls-1" d="M59.53,91.74c-10.39,0-24-10.2-25.28-26.11C32.84,48.27,45.81,35.2,59.5,34.07c0,2.46,0,4.9,0,7.34,0,.25-.64.6-1,.72A21.6,21.6,0,0,0,45.3,52.08c-4.16,7.09-4.27,14.33-.19,21.58a24,24,0,0,0,8.46,8.43c1.46.92,3.3,1.22,5,1.86.38.15.95.53,1,.81C59.56,87.09,59.53,89.42,59.53,91.74Z"/><path class="cls-1" d="M77.81,96.76c.49.49,1.2.88,1.46,1.47,1.89,4.43,3.74,8.88,5.49,13.37.24.61-.12,1.46-.2,2.2-.53-.44-1.29-.77-1.54-1.33q-2.89-6.52-5.6-13.14a7.83,7.83,0,0,1-.22-2.13Z"/><path class="cls-2" d="M91.74,62.93c-2.5,2.54-4.74,4.84-7,7.13-.07,0-.16,0-.17-.09-.83-2.65-.83-2.64-3.82-2.64-3.82,0-7.65,0-11.47,0-1.26,0-1.81-.38-1.75-1.7.07-1.72,0-3.46,0-5.19,0-1,.37-1.24,1.36-1.21,4.5.13,9,.17,13.5.22a1.66,1.66,0,0,0,1.89-1.77c0-.61,0-1.21,0-1.53Z"/><path class="cls-1" d="M67.62,33.78c2.61.79,4.95,1.46,7.26,2.24.28.1.5.81.5,1.24,0,6.25,0,12.49,0,18.88H67.62Z"/><path class="cls-1" d="M67.47,70.67h7.7a2.5,2.5,0,0,1,.22.69c0,5.81,0,11.61,0,17.42a2.36,2.36,0,0,1-1.28,1.59,41.8,41.8,0,0,1-4.14,1.37c-1.77.58-2.44.15-2.44-1.61C67.47,83.71,67.47,77.3,67.47,70.67Z"/><path class="cls-1" d="M37.42,36.32c-.34.38-.58.87-.79.86A2.88,2.88,0,0,1,35,36.67c-1.87-1.78-3.66-3.65-5.48-5.48L19.1,20.73c-.68-.67-1.48-1.44-.57-2.29.26-.23,1.58.29,2.09.79,5.26,5.16,10.47,10.39,15.67,15.61A14.31,14.31,0,0,1,37.42,36.32Z"/><path class="cls-1" d="M90.36,88.65a8.16,8.16,0,0,1,1.25.8c5.35,5.31,10.71,10.61,16,16,.47.47.43,1.43.62,2.16-.74-.2-1.7-.18-2.18-.65q-8-7.86-15.86-15.88a3.55,3.55,0,0,1-.68-1.74C89.47,89.18,90,88.92,90.36,88.65Z"/><path class="cls-1" d="M12.91,64c-3.76,0-7.53,0-11.29,0-.54,0-1.08-.56-1.62-.85.5-.35,1-1,1.51-1q11.37-.1,22.76,0c.59,0,1.18.63,1.78,1-.62.31-1.23.88-1.85.89-3.76.08-7.53,0-11.29,0Z"/><path class="cls-1" d="M112.69,64H101.76a3.7,3.7,0,0,1-1.46-.11c-.37-.17-.6-.65-.9-1a4.27,4.27,0,0,1,.92-.75,3.07,3.07,0,0,1,1.1-.07h22.41c.18,0,.4-.06.55,0,.48.26,1,.57,1.42.86-.48.35-1,1-1.45,1-3.88.09-7.77,0-11.66,0Z"/><path class="cls-1" d="M62,13c0-3.84,0-7.67,0-11.51,0-.48.54-1,.83-1.44.36.46,1,.92,1,1.38Q64,13.17,63.9,25c0,.38-.66.76-1,1.15-.31-.43-.89-.85-.89-1.28C61.94,20.86,62,16.9,62,13Z"/><path class="cls-1" d="M62.14,100.16c1.44-.37,1.85.14,1.84,1.47-.06,7.48,0,15,0,22.43a3.32,3.32,0,0,1-.33,1.56,1.34,1.34,0,0,1-1.07.41c-.21,0-.39-.5-.56-.79a.91.91,0,0,1,0-.37q0-12,0-24.09A3.14,3.14,0,0,1,62.14,100.16Z"/><path class="cls-1" d="M108,18.85a15.75,15.75,0,0,1-1.14,1.53q-8,8-16,16c-.63.63-1.29,1.46-2.08.54-.24-.28.23-1.52.7-2,5.06-5.17,10.18-10.27,15.29-15.39a3.74,3.74,0,0,1,1.42-1.12C106.67,18.26,107.27,18.63,108,18.85Z"/><path class="cls-1" d="M37.33,89.79a12.9,12.9,0,0,1-.95,1.2C31,96.38,25.63,101.79,20.2,107.13c-.4.39-1.22.35-1.85.51.14-.66,0-1.55.45-2q8.07-8.22,16.27-16.3a2.67,2.67,0,0,1,1.65-.45C36.89,88.92,37.1,89.45,37.33,89.79Z"/><path class="cls-1" d="M84.59,43a28.2,28.2,0,0,1,7.15,14.63l-.43.33q-3.45-3.49-6.88-7a1,1,0,0,1-.28-.66c0-2.38,0-4.75,0-7.13Z"/><path class="cls-1" d="M84.13,82.63c0-2.27,0-4.55,0-6.82a1.11,1.11,0,0,1,.22-.68c2.34-2.41,4.7-4.79,7.22-7a26.09,26.09,0,0,1-7,14.73Z"/><path class="cls-1" d="M113.75,42.46a5.06,5.06,0,0,1-1.2,1c-4.69,2-9.39,4-14.13,5.88-.43.17-1.11-.3-1.67-.47.26-.46.41-1.18.79-1.35q7.11-3.07,14.27-6c.52-.2,1.27.18,1.91.29Z"/><path class="cls-1" d="M13.07,84.92c-.26-.25-.82-.55-.79-.77.07-.54.29-1.35.68-1.52q7.09-3.09,14.28-6c.41-.17,1.05.22,1.59.34-.17.52-.2,1.37-.53,1.51-4.78,2.08-9.61,4.06-14.42,6.06Z"/><path class="cls-1" d="M29,49.09c-.57.1-1.23.46-1.69.27-4.3-1.72-8.57-3.52-12.84-5.31-.17-.07-.3-.26-.47-.3-1.06-.26-2.26-.57-1.66-2,.14-.31,1.75-.29,2.51,0C19,43.45,23.12,45.22,27.21,47a13.19,13.19,0,0,1,2,1.32Z"/><path class="cls-1" d="M49.37,28.66a1.48,1.48,0,0,1-2.27-.94c-1.75-4.31-3.54-8.61-5.29-12.92a3.5,3.5,0,0,1-.38-1.41c0-.4.3-1,.57-1.11a1.45,1.45,0,0,1,1.2.51A8.33,8.33,0,0,1,44,14.61q2.68,6.54,5.35,13.07A2.88,2.88,0,0,1,49.37,28.66Z"/><path class="cls-1" d="M41.21,112.77c.7-1.76,1.3-3.3,1.92-4.83,1.32-3.21,2.6-6.44,4-9.61.26-.56,1.1-.87,1.67-1.29.1.68.47,1.46.25,2-1.8,4.6-3.69,9.17-5.63,13.72a2.19,2.19,0,0,1-1.29,1C42,113.82,41.53,113.14,41.21,112.77Z"/><path class="cls-1" d="M76.41,28.83a7.05,7.05,0,0,1,.18-2.08q2.7-6.73,5.58-13.38c.22-.51,1-.77,1.53-1.15.12.68.52,1.48.31,2q-2.69,6.83-5.6,13.55c-.24.57-1,.92-1.5,1.37Z"/><path class="cls-1" d="M97.9,76.36c1.39.49,2.81.91,4.18,1.47,3.66,1.51,7.31,3,10.92,4.67.58.26.93,1,1.38,1.57-.7.14-1.53.61-2.08.39-4.63-1.87-9.23-3.84-13.8-5.87-.5-.22-.73-1-1.08-1.58Z"/></g></g></svg>