<svg xmlns="http://www.w3.org/2000/svg" viewBox="0 0 616.66 498.95"><defs><style>.cls-1{fill:#f1f1f1;}.cls-2{fill:#9f616a;}.cls-3{fill:#f86126;}.cls-4{fill:#ffb5b5;}.cls-5{fill:#2f2e41;}.cls-6{fill:#3f3d56;}.cls-7{fill:#e5e5e5;}.cls-8{fill:#fff;}</style></defs><title>Recurso 11</title><g id="Capa_2" data-name="Capa 2"><g id="Capa_3" data-name="Capa 3"><path class="cls-1" d="M581.87,444.78l1-22.43a72.46,72.46,0,0,1,33.79-8.56c-16.23,13.27-14.2,38.85-25.21,56.7a43.6,43.6,0,0,1-32,20.14L545.91,499a73,73,0,0,1,15.39-59.18,70.58,70.58,0,0,1,13-12C577.52,436.3,581.87,444.78,581.87,444.78Z"/><path class="cls-2" d="M115.54,245.34a8.3,8.3,0,0,1,.54-12.73l-9.3-28,14.82,4,6.57,26a8.36,8.36,0,0,1-12.63,10.77Z"/><path class="cls-3" d="M142.41,93c2.45,1.41,17-2.08,19.85-1.09-1.57,9.57,7,6-2.3,18.55s-27.89,50.26-32.12,64.35,0,33.93-.68,40.61a68.32,68.32,0,0,0,.06,11.62c-5-.07-9.93,1-15,.31-5.41-15.32-9-37.13-11.52-49.18s-2.57-7-1.43-13,1.41-1.65.21-7.42,3.63-13,8.08-17.13c1.92-5.52,4.4-10.67,6.3-16.13C127.77,112.4,128.69,105.39,142.41,93Z"/><polygon class="cls-4" points="546.87 483.4 534.57 483.4 528.72 435.96 546.87 435.96 546.87 483.4"/><path class="cls-5" d="M550,495.32H510.35v-.5a15.45,15.45,0,0,1,15.43-15.44h0l7.25-5.49,13.51,5.5H550Z"/><polygon class="cls-4" points="489.73 483.4 477.43 483.4 471.58 435.96 489.73 435.96 489.73 483.4"/><path class="cls-5" d="M492.87,495.32H453.21v-.5a15.45,15.45,0,0,1,15.43-15.44h0l7.25-5.49,13.51,5.5h3.47Z"/><path class="cls-5" d="M484.41,224l80,2c15.19,8.26,15.42,26.12,10.44,47.32,0,0,1.68,12.61-1.68,16s-5,3.36-3.36,9.24-7.2,15.49-6.12,16.57,3.6,7,3.6,7l-8.4,47.9s-5.89,83.19-7.57,84.87-3.36,0-1.68,4.2,3.36,2.52,1.68,4.2a63,63,0,0,0-4.2,5H526.81s-1.54-8.4-1.54-9.24-1.68-5.88-1.68-6.72,1.49-2.33,1.49-2.33a27.45,27.45,0,0,0,1-5.24c0-1.68,5-66.38,5-66.38l-10.09-84L496.7,376.72s0,72.27-1.68,73.95-1.68.84-.84,4.2,4.2,2.52,1.68,5-3.36-1.68-2.52,2.52l.84,4.2L469,467s-3.36-7.08-1.68-9.6,1.58-1.83-.47-6-2.89-5-2.05-5.81.84-5.31.84-5.31l4.2-80.4s.84-84.87.84-87.39a8.34,8.34,0,0,0-.69-3.78v-3.42l3.22-12.12Z"/><circle class="cls-4" cx="532.46" cy="32.84" r="24.86"/><path class="cls-6" d="M520,74.12c-5.35,3.19-8.55,9-10.39,15A141.77,141.77,0,0,0,503.53,123l-1.94,34.47-24,73.41c20.84,17.64,99.21,4,99.21,4s2.4-.8,0-3.21-4.75-.27-2.34-2.68.74.28-.06-2.13,0-.8.8-1.6-6.2-8-6.2-8l6.41-42.14,8-85c-9.62-12-29-19.12-29-19.12l-5-9-25,2Z"/><path class="cls-5" d="M516.62,18.25a11.52,11.52,0,0,1,2.86.38,40.21,40.21,0,0,0,5.57.93A25.83,25.83,0,0,1,548.2,41.49c1.45-1.26,4.73-3.58,7.43-1.42h0s.06,0,.16,0c1.79-.85,5-11.29,5.06-20.49,0-4.88-.72-11.12-4.67-13.09l-.21-.1-.05-.23c-.26-1.1-3.21-3-8.33-4.43-9.31-2.65-22.91-3-30.73,4.56-.59,2.57-2.79,3.27-4.73,3.89-2.15.69-4,1.28-4.3,3.92a80.12,80.12,0,0,0,.05,11.28A11.52,11.52,0,0,1,512,19.63,8.2,8.2,0,0,1,516.62,18.25Z"/><path class="cls-4" d="M470.36,155.59l40.6-26-20.45-27.18-20.19,24.84L407.4,131.1a12,12,0,1,0-.67,17.67Z"/><path class="cls-6" d="M548.65,93.29c2.35,14.27-42.15,41.5-42.15,41.5,0-3.35-26.56,21.92-27.76,19.15-3.41-7.89-5.8-26.58-10.56-29.57-2.73-1.71,16.4-17.78,16.4-17.78s10-10.09,23.14-22.81a30.62,30.62,0,0,1,28.38-8.29S546.29,79,548.65,93.29Z"/><path class="cls-1" d="M503.41,257a136,136,0,0,1-7.56,44.83c-.23.67-.47,1.33-.71,2a136.48,136.48,0,0,1-54.45,67.76c-1.71,1.1-3.44,2.15-5.2,3.17A135.21,135.21,0,0,1,369.69,393l-2.28,0c-1,0-2,0-2.92,0a135.35,135.35,0,0,1-65.8-18.58c-1.76-1-3.5-2.1-5.2-3.21a136.11,136.11,0,0,1-48.57-173.35c.32-.67.65-1.33,1-2a136.06,136.06,0,0,1,243,0c.34.67.67,1.33,1,2A135.48,135.48,0,0,1,503.41,257Z"/><path class="cls-7" d="M461.33,301.87v2h12.18v-2Zm-24.36,0v2h12.18v-2Zm-24.36,0v2h12.18v-2Zm-24.36,0v2h12.18v-2Zm-24.36,0v2h12.18v-2Zm-24.36,0v2h12.18v-2Zm-24.36,0v2h12.18v-2Zm-24.35,0v2H303v-2Zm-24.36,0v2h12.18v-2Zm-24.36,0v2h12.18v-2Zm253.75,0H485.69v2h9.45Z"/><path class="cls-7" d="M485.69,287.87v2h12.18v-2Zm-24.36,0v2h12.18v-2Zm-24.36,0v2h12.18v-2Zm-24.36,0v2h12.18v-2Zm-24.36,0v2h12.18v-2Zm-24.36,0v2h12.18v-2Zm-24.36,0v2h12.18v-2Zm-24.36,0v2h12.18v-2Zm-24.35,0v2H303v-2Zm-24.36,0v2h12.18v-2Zm-24.36,0v2h12.18v-2Z"/><path class="cls-7" d="M485.69,258.87v2h12.18v-2Zm-24.36,0v2h12.18v-2Zm-24.36,0v2h12.18v-2Zm-24.36,0v2h12.18v-2Zm-24.36,0v2h12.18v-2Zm-24.36,0v2h12.18v-2Zm-24.36,0v2h12.18v-2Zm-24.36,0v2h12.18v-2Zm-24.35,0v2H303v-2Zm-24.36,0v2h12.18v-2Zm-24.36,0v2h12.18v-2Z"/><path class="cls-7" d="M485.69,238.87v2h12.18v-2Zm-24.36,0v2h12.18v-2Zm-24.36,0v2h12.18v-2Zm-24.36,0v2h12.18v-2Zm-24.36,0v2h12.18v-2Zm-24.36,0v2h12.18v-2Zm-24.36,0v2h12.18v-2Zm-24.36,0v2h12.18v-2Zm-24.35,0v2H303v-2Zm-24.36,0v2h12.18v-2Zm-24.36,0v2h12.18v-2Z"/><path class="cls-7" d="M488.91,195.87h-3.22v2h4.21C489.58,197.2,489.25,196.54,488.91,195.87Zm-27.58,0v2h12.18v-2Zm-24.36,0v2h12.18v-2Zm-24.36,0v2h12.18v-2Zm-24.36,0v2h12.18v-2Zm-24.36,0v2h12.18v-2Zm-24.36,0v2h12.18v-2Zm-24.36,0v2h12.18v-2Zm-24.35,0v2H303v-2Zm-24.36,0v2h12.18v-2Zm-20.55,0c-.34.67-.67,1.33-1,2h9.36v-2Z"/><path class="cls-6" d="M440.69,202.61v169c-1.71,1.1-3.44,2.15-5.2,3.17V202.61Z"/><path class="cls-6" d="M369.69,258.61V393l-2.28,0c-1,0-2,0-2.92,0V258.61Z"/><path class="cls-6" d="M298.69,202.61V374.43c-1.76-1-3.5-2.1-5.2-3.21V202.61Z"/><path class="cls-1" d="M43.88,432.66l-2-27.59A89.24,89.24,0,0,0,0,395.68c20.43,15.79,18.8,47.35,33,69a53.68,53.68,0,0,0,40,23.72l17,9.78a90,90,0,0,0-21-72.35A87,87,0,0,0,52.66,411.4C49,422.07,43.88,432.66,43.88,432.66Z"/><circle class="cls-3" cx="437.41" cy="197.04" r="19"/><path class="cls-8" d="M447.16,189.12a1.55,1.55,0,0,0-2.12,0,62.82,62.82,0,0,0-10.78,11L432,195.68c-.89-1.72-3.48-.2-2.59,1.51,1.12,2.18,2.25,4.35,3.37,6.52a1.51,1.51,0,0,0,2.59,0,60.84,60.84,0,0,1,11.84-12.46A1.52,1.52,0,0,0,447.16,189.12Z"/><circle class="cls-3" cx="367.41" cy="253.04" r="19"/><path class="cls-8" d="M377.16,245.12a1.55,1.55,0,0,0-2.12,0,62.82,62.82,0,0,0-10.78,11L362,251.68c-.89-1.72-3.48-.2-2.59,1.51,1.12,2.18,2.25,4.35,3.37,6.52a1.51,1.51,0,0,0,2.59,0,60.84,60.84,0,0,1,11.84-12.46A1.52,1.52,0,0,0,377.16,245.12Z"/><circle class="cls-3" cx="296.41" cy="201.04" r="19"/><path class="cls-8" d="M306.16,193.12a1.55,1.55,0,0,0-2.12,0,62.82,62.82,0,0,0-10.78,11L291,199.68c-.89-1.72-3.48-.2-2.59,1.51,1.12,2.18,2.25,4.35,3.37,6.52a1.51,1.51,0,0,0,2.59,0,60.84,60.84,0,0,1,11.84-12.46A1.52,1.52,0,0,0,306.16,193.12Z"/><path class="cls-4" d="M568.88,187.53,581.39,141,548,134.64l1.79,32-43.91,45.22a12,12,0,1,0,11.4,13.52Z"/><path class="cls-6" d="M584.81,88.76c11.35,8.95-3.22,59.05-3.22,59.05-2.25-2.47-4.87,34.1-7.63,32.85-7.83-3.54-22.18-15.74-27.72-14.75-3.16.57.15-24.18.15-24.18s.61-14.2,1.76-32.45A30.61,30.61,0,0,1,563.55,84S573.47,79.8,584.81,88.76Z"/><polygon class="cls-2" points="192.94 193.3 206.69 254.67 118.57 249.19 142.53 188.92 192.94 193.3"/><polygon class="cls-2" points="178.26 476.53 188.16 476.53 192.87 438.35 178.26 438.35 178.26 476.53"/><path class="cls-5" d="M174.91,471.65l15.65-.94v6.71l14.88,10.27a4.19,4.19,0,0,1-2.38,7.63H184.43l-3.21-6.63L180,495.32h-7Z"/><polygon class="cls-2" points="84.71 471.6 94.39 473.7 107.08 437.39 92.8 434.29 84.71 471.6"/><path class="cls-5" d="M82.47,466.12,98,468.53l-1.42,6.55,12.36,13.19a4.19,4.19,0,0,1-3.94,7l-18.21-4L85,484.12l-2.63,6.21-6.87-1.49Z"/><path class="cls-5" d="M208.94,306c-6.95,38.18-8.68,54.66-8.68,54.66s5.21,6.08,1.73,9.55,0,10.41,0,10.41l-7.81,84.17-6.29-1-15.14-2.44-5.46-.88,3.47-78.95s-3.47-7-1.74-8.69-1.73-12.15-1.73-12.15L163,278.21l-26.9,90.24s2.61,3.48,0,6.08-7.8,15.62-7.8,15.62l-16,56-1.36,4.75-8.35-1.56-9.08-1.7-1.67-.32-3-.56-1.92-.36-.65-.11-3.14-.6.95-4.22.5-2.22L98.1,379.12l.31-1.39.33-1.46s-1.74-4.34.86-6.95a6.77,6.77,0,0,0,1.74-6.08,2.26,2.26,0,0,1-.23-.29,3.5,3.5,0,0,1-.62-1.41c-.24-1.09,0-2.61,1.72-4.37a7.46,7.46,0,0,0,1.24-1.76c2.64-5,4-15.59,4-15.59s2.34-83.83,10-96.64c.4-.67,8.56-13.52,9-13.78,8.67-5.2,76.25,2,76.25,2s4.09,11,4.28,12.14C208,250,214.83,273.6,208.94,306Z"/><path class="cls-3" d="M188.41,104s1.46-7.59-12.59-21.64c-7.44-2.48-20.33-1-24.8,0-20.66,27.28-17,22.46-22.34,37.7-1.39,4-2.09,7.75-1.47,10.85,2.48,12.4,6.5,76,5.68,79.34s-6.62,7.44-.83,7.44,80.39-1.3,78.74-3.78S188.41,104,188.41,104Z"/><path class="cls-2" d="M277,204.89a8.32,8.32,0,0,1-10.76-4.75,8.7,8.7,0,0,1-.4-1.41l-29.24-4.15,10.16-11.5L273,188.79a8.36,8.36,0,0,1,4,16.1Z"/><path class="cls-3" d="M153.3,99.16c2.36-1.58,5-2.32,7.19-4.42,7.87,5.67,8.45-3.56,15.59,10.32s32.57,47.36,43.3,57.42,30.36,15.16,36.06,18.7a68.12,68.12,0,0,0,10.43,5.12c-2.29,4.45-3.55,9.32-6.41,13.57-16.13-2-37.27-8.43-49.16-11.58s-7.37-.8-12.26-4.5-.85-2-6.54-3.5-10-9-11.75-14.87c-4.09-4.17-7.59-8.68-11.64-12.82C163.44,134.73,158.24,116.94,153.3,99.16Z"/><circle class="cls-2" cx="171.77" cy="47.89" r="23.93"/><path class="cls-5" d="M187.76,91.64C186.62,90,178.14,74,175.62,67.88a28.24,28.24,0,0,0-.49,4l0,.5-.49.06c-.75.1-18.35,2.23-27.51-8.15-5.43-6.16-6.66-15.39-3.66-27.44a5,5,0,0,1-1.55-.59,6.64,6.64,0,0,1-2.82-4.82l-.51.14C122.27,23.64,136.31.44,151.19,12a7.1,7.1,0,0,1,3.93.22,7.26,7.26,0,0,1,4.5,6c7.7-4.05,17.88-3.39,23.14-.35,2.2,1.27,3.47,2.87,3.69,4.65,6.22.35,12.91,6.41,12.91,15v.6h-.6a13.81,13.81,0,0,0-12,7.57,17.6,17.6,0,0,0,.54,17.93,25.27,25.27,0,0,1,3.49,19.34l-2.24,9.84Z"/><circle class="cls-7" cx="295.81" cy="399.17" r="10.59"/><circle class="cls-7" cx="366.81" cy="410.17" r="10.59"/><circle class="cls-7" cx="437.81" cy="397.17" r="10.59"/></g></g></svg>