<svg xmlns="http://www.w3.org/2000/svg" viewBox="0 0 664.67 498.95"><defs><style>.cls-1{fill:#f1f1f1;}.cls-2{fill:#9f616a;}.cls-3{fill:#f86126;}.cls-4{fill:#ffb5b5;}.cls-5{fill:#2f2e41;}.cls-6{fill:#3f3d56;}.cls-7{fill:#e5e5e5;}.cls-8{fill:#fff;}.cls-9{fill:#cbcbcb;}</style></defs><title>Recurso 3</title><g id="Capa_2" data-name="Capa 2"><g id="Capa_3" data-name="Capa 3"><path class="cls-1" d="M607.34,444.78l1-22.43a72.46,72.46,0,0,1,33.79-8.56c-16.23,13.27-14.2,38.85-25.21,56.7A43.56,43.56,0,0,1,585,490.63L571.38,499a73,73,0,0,1,15.4-59.18,70.21,70.21,0,0,1,13-12C603,436.3,607.34,444.78,607.34,444.78Z"/><path class="cls-2" d="M141,245.34a8.3,8.3,0,0,1-.53-11.74,7.78,7.78,0,0,1,1.08-1l-9.31-28,14.82,4,6.57,26A8.36,8.36,0,0,1,141,245.34Z"/><path class="cls-3" d="M167.88,93c2.46,1.41,17-2.08,19.85-1.09-1.57,9.57,7,6-2.3,18.55s-27.89,50.26-32.12,64.35-.05,33.93-.68,40.61a68.32,68.32,0,0,0,.06,11.62c-5-.07-9.93,1-15,.31-5.41-15.32-9.05-37.13-11.52-49.18s-2.57-7-1.43-13,1.41-1.65.22-7.42,3.62-13,8.07-17.13c1.92-5.52,4.4-10.67,6.3-16.13C153.24,112.4,154.16,105.39,167.88,93Z"/><polygon class="cls-4" points="572.34 483.4 560.04 483.4 554.19 435.96 572.34 435.96 572.34 483.4"/><path class="cls-5" d="M575.48,495.32H535.82v-.5a15.45,15.45,0,0,1,15.44-15.44h0l7.24-5.49,13.52,5.5h3.46Z"/><polygon class="cls-4" points="515.2 483.4 502.9 483.4 497.05 435.96 515.2 435.96 515.2 483.4"/><path class="cls-5" d="M518.34,495.32H478.68v-.5a15.45,15.45,0,0,1,15.43-15.44h0l7.24-5.49,13.52,5.5h3.46Z"/><path class="cls-5" d="M509.88,224l80,2c15.19,8.26,15.42,26.12,10.44,47.32,0,0,1.68,12.61-1.68,16s-5,3.36-3.36,9.24-7.2,15.49-6.12,16.57,3.6,7,3.6,7l-8.4,47.9s-5.89,83.19-7.57,84.87-3.36,0-1.68,4.2,3.36,2.52,1.68,4.2a65.19,65.19,0,0,0-4.2,5H552.28s-1.54-8.4-1.54-9.24-1.68-5.88-1.68-6.72,1.49-2.33,1.49-2.33a28.27,28.27,0,0,0,1-5.24c0-1.68,5-66.38,5-66.38l-10.09-84-24.37,82.35s0,72.27-1.68,73.95-1.68.84-.84,4.2,4.21,2.52,1.68,5-3.36-1.68-2.52,2.52l.84,4.2-25.2.36s-3.37-7.08-1.69-9.6,1.58-1.83-.47-6-2.89-5-2.05-5.81.84-5.31.84-5.31l4.21-80.4s.84-84.87.84-87.39a8.48,8.48,0,0,0-.7-3.78v-3.42l3.22-12.12Z"/><circle class="cls-4" cx="557.93" cy="32.84" r="24.86"/><path class="cls-6" d="M545.51,74.12c-5.36,3.19-8.56,9-10.4,15A141.27,141.27,0,0,0,529,123l-2,34.47-24,73.41c20.85,17.64,99.21,4,99.21,4s2.4-.8,0-3.21-4.75-.27-2.34-2.68.74.28-.06-2.13,0-.8.8-1.6-6.2-8-6.2-8l6.41-42.14,8-85c-9.62-12-29-19.12-29-19.12l-5-9-25,2Z"/><path class="cls-5" d="M542.1,18.25a11.44,11.44,0,0,1,2.85.38,40.35,40.35,0,0,0,5.58.93,25.83,25.83,0,0,1,23.14,21.93c1.45-1.26,4.73-3.58,7.43-1.42h0s.06,0,.16,0c1.79-.85,5-11.29,5.06-20.49,0-4.88-.72-11.12-4.67-13.09l-.21-.1-.05-.23c-.26-1.1-3.21-3-8.33-4.43-9.31-2.65-22.91-3-30.73,4.56-.59,2.57-2.79,3.27-4.73,3.89-2.15.69-4,1.28-4.3,3.92a80.12,80.12,0,0,0,.05,11.28,11.52,11.52,0,0,1,4.09-5.75A8.21,8.21,0,0,1,542.1,18.25Z"/><path class="cls-4" d="M495.83,155.59l40.6-26L516,102.41l-20.19,24.84-62.92,3.85a12,12,0,1,0-.67,17.67Z"/><path class="cls-6" d="M574.12,93.29c2.36,14.27-42.15,41.5-42.15,41.5,0-3.35-26.56,21.92-27.76,19.15-3.4-7.89-5.8-26.58-10.56-29.57-2.72-1.71,16.4-17.78,16.4-17.78s10-10.09,23.14-22.81a30.63,30.63,0,0,1,28.38-8.29S571.76,79,574.12,93.29Z"/><path class="cls-1" d="M528.88,257a136,136,0,0,1-7.56,44.83c-.23.67-.47,1.33-.71,2a136.48,136.48,0,0,1-54.45,67.76c-1.71,1.1-3.44,2.15-5.2,3.17A135.21,135.21,0,0,1,395.16,393l-2.28,0c-1,0-1.95,0-2.92,0a135.35,135.35,0,0,1-65.8-18.58c-1.76-1-3.5-2.1-5.2-3.21a136.11,136.11,0,0,1-48.57-173.35c.32-.67.65-1.33,1-2a136.06,136.06,0,0,1,243,0c.34.67.67,1.33,1,2A135.48,135.48,0,0,1,528.88,257Z"/><path class="cls-7" d="M486.8,301.87v2H499v-2Zm-24.36,0v2h12.18v-2Zm-24.36,0v2h12.18v-2Zm-24.36,0v2H425.9v-2Zm-24.36,0v2h12.18v-2Zm-24.36,0v2h12.18v-2Zm-24.36,0v2h12.18v-2Zm-24.35,0v2h12.17v-2Zm-24.36,0v2h12.18v-2Zm-24.36,0v2h12.18v-2Zm253.75,0H511.16v2h9.45Z"/><path class="cls-7" d="M511.16,287.87v2h12.18v-2Zm-24.36,0v2H499v-2Zm-24.36,0v2h12.18v-2Zm-24.36,0v2h12.18v-2Zm-24.36,0v2H425.9v-2Zm-24.36,0v2h12.18v-2Zm-24.36,0v2h12.18v-2Zm-24.36,0v2h12.18v-2Zm-24.35,0v2h12.17v-2Zm-24.36,0v2h12.18v-2Zm-24.36,0v2h12.18v-2Z"/><path class="cls-7" d="M511.16,258.87v2h12.18v-2Zm-24.36,0v2H499v-2Zm-24.36,0v2h12.18v-2Zm-24.36,0v2h12.18v-2Zm-24.36,0v2H425.9v-2Zm-24.36,0v2h12.18v-2Zm-24.36,0v2h12.18v-2Zm-24.36,0v2h12.18v-2Zm-24.35,0v2h12.17v-2Zm-24.36,0v2h12.18v-2Zm-24.36,0v2h12.18v-2Z"/><path class="cls-7" d="M511.16,238.87v2h12.18v-2Zm-24.36,0v2H499v-2Zm-24.36,0v2h12.18v-2Zm-24.36,0v2h12.18v-2Zm-24.36,0v2H425.9v-2Zm-24.36,0v2h12.18v-2Zm-24.36,0v2h12.18v-2Zm-24.36,0v2h12.18v-2Zm-24.35,0v2h12.17v-2Zm-24.36,0v2h12.18v-2Zm-24.36,0v2h12.18v-2Z"/><path class="cls-7" d="M514.38,195.87h-3.22v2h4.21C515.05,197.2,514.72,196.54,514.38,195.87Zm-27.58,0v2H499v-2Zm-24.36,0v2h12.18v-2Zm-24.36,0v2h12.18v-2Zm-24.36,0v2H425.9v-2Zm-24.36,0v2h12.18v-2Zm-24.36,0v2h12.18v-2Zm-24.36,0v2h12.18v-2Zm-24.35,0v2h12.17v-2Zm-24.36,0v2h12.18v-2Zm-20.55,0c-.34.67-.67,1.33-1,2h9.36v-2Z"/><path class="cls-6" d="M466.16,202.61v169c-1.71,1.1-3.44,2.15-5.2,3.17V202.61Z"/><path class="cls-6" d="M395.16,258.61V393l-2.28,0c-1,0-1.95,0-2.92,0V258.61Z"/><path class="cls-6" d="M324.16,202.61V374.43c-1.76-1-3.5-2.1-5.2-3.21V202.61Z"/><path class="cls-1" d="M69.35,432.66l-2-27.59a89.24,89.24,0,0,0-41.9-9.39c20.43,15.79,18.8,47.35,33,69a53.68,53.68,0,0,0,40,23.72l17,9.78a90,90,0,0,0-21-72.35A87.23,87.23,0,0,0,78.14,411.4C74.42,422.07,69.35,432.66,69.35,432.66Z"/><circle class="cls-3" cx="462.88" cy="197.04" r="19"/><path class="cls-8" d="M472.63,189.12a1.55,1.55,0,0,0-2.12,0,63.17,63.17,0,0,0-10.78,11l-2.31-4.46c-.88-1.72-3.47-.2-2.59,1.51l3.37,6.52a1.51,1.51,0,0,0,2.59,0,60.84,60.84,0,0,1,11.84-12.46A1.52,1.52,0,0,0,472.63,189.12Z"/><circle class="cls-3" cx="392.88" cy="253.04" r="19"/><path class="cls-8" d="M402.63,245.12a1.55,1.55,0,0,0-2.12,0,63.17,63.17,0,0,0-10.78,11l-2.31-4.46c-.88-1.72-3.47-.2-2.59,1.51l3.37,6.52a1.51,1.51,0,0,0,2.59,0,60.84,60.84,0,0,1,11.84-12.46A1.52,1.52,0,0,0,402.63,245.12Z"/><circle class="cls-3" cx="321.88" cy="201.04" r="19"/><path class="cls-8" d="M331.63,193.12a1.55,1.55,0,0,0-2.12,0,63.17,63.17,0,0,0-10.78,11l-2.31-4.46c-.88-1.72-3.47-.2-2.59,1.51l3.37,6.52a1.51,1.51,0,0,0,2.59,0,60.84,60.84,0,0,1,11.84-12.46A1.52,1.52,0,0,0,331.63,193.12Z"/><path class="cls-4" d="M594.35,187.53,606.86,141l-33.42-6.33,1.79,32-43.91,45.22a12,12,0,1,0,11.4,13.52Z"/><path class="cls-6" d="M610.28,88.76c11.35,8.95-3.21,59.05-3.21,59.05-2.26-2.47-4.88,34.1-7.63,32.85-7.84-3.54-22.19-15.74-27.73-14.75-3.16.57.15-24.18.15-24.18s.61-14.2,1.76-32.45A30.63,30.63,0,0,1,589,84S598.94,79.8,610.28,88.76Z"/><polygon class="cls-2" points="218.41 193.3 232.16 254.67 144.04 249.19 168 188.92 218.41 193.3"/><polygon class="cls-2" points="203.74 476.53 213.63 476.53 218.34 438.35 203.73 438.35 203.74 476.53"/><path class="cls-5" d="M200.38,471.65l15.65-.94v6.71l14.88,10.27a4.19,4.19,0,0,1-2.38,7.63H209.9l-3.21-6.63-1.26,6.63h-7Z"/><polygon class="cls-2" points="110.18 471.6 119.86 473.7 132.55 437.39 118.28 434.29 110.18 471.6"/><path class="cls-5" d="M107.94,466.12l15.49,2.41L122,475.08l12.36,13.19a4.19,4.19,0,0,1-3.94,7l-18.21-4-1.73-7.16-2.63,6.21L101,488.84Z"/><path class="cls-5" d="M234.41,306c-6.95,38.18-8.68,54.66-8.68,54.66s5.21,6.08,1.73,9.55,0,10.41,0,10.41l-7.81,84.17-6.28-1-15.15-2.44-5.46-.88,3.47-78.95s-3.47-7-1.73-8.69-1.74-12.15-1.74-12.15l-4.34-82.43-26.9,90.24s2.61,3.48,0,6.08-7.8,15.62-7.8,15.62l-16,56-1.36,4.75L128,449.32l-9.09-1.7-1.66-.32-3-.56-1.91-.36-.65-.11-3.15-.6,1-4.22.5-2.22,13.53-60.11.31-1.39.33-1.46s-1.73-4.34.87-6.95a6.79,6.79,0,0,0,1.73-6.08,2.26,2.26,0,0,1-.23-.29,3.5,3.5,0,0,1-.62-1.41c-.23-1.09,0-2.61,1.73-4.37a7.42,7.42,0,0,0,1.23-1.76c2.64-5,4-15.59,4-15.59s2.34-83.83,10-96.64c.41-.67,8.56-13.52,9-13.78,8.67-5.2,76.25,2,76.25,2s4.09,11,4.28,12.14C233.44,250,240.3,273.6,234.41,306Z"/><path class="cls-3" d="M213.88,104s1.46-7.59-12.59-21.64c-7.44-2.48-20.33-1-24.8,0-20.66,27.28-17,22.46-22.34,37.7-1.39,4-2.09,7.75-1.47,10.85,2.48,12.4,6.5,76,5.68,79.34s-6.61,7.44-.83,7.44,80.4-1.3,78.74-3.78S213.88,104,213.88,104Z"/><path class="cls-2" d="M302.49,204.89a8.32,8.32,0,0,1-10.76-4.75,8.7,8.7,0,0,1-.4-1.41l-29.24-4.15,10.16-11.5,26.21,5.71a8.36,8.36,0,0,1,4,16.1Z"/><path class="cls-3" d="M178.77,99.16c2.36-1.58,5-2.32,7.19-4.42,7.87,5.67,8.45-3.56,15.59,10.32s32.57,47.36,43.3,57.42,30.36,15.16,36.06,18.7a68.12,68.12,0,0,0,10.43,5.12c-2.29,4.45-3.55,9.32-6.41,13.57-16.13-2-37.27-8.43-49.16-11.58s-7.37-.8-12.26-4.5-.85-2-6.54-3.5-10-9-11.75-14.87c-4.09-4.17-7.59-8.68-11.63-12.82C188.91,134.73,183.72,116.94,178.77,99.16Z"/><circle class="cls-2" cx="197.24" cy="47.89" r="23.93"/><path class="cls-5" d="M213.23,91.64C212.09,90,203.61,74,201.09,67.88a28.24,28.24,0,0,0-.49,4l0,.5-.5.06c-.75.1-18.35,2.23-27.51-8.15-5.43-6.16-6.66-15.39-3.66-27.44a4.87,4.87,0,0,1-1.54-.59,6.62,6.62,0,0,1-2.83-4.82l-.5.14C147.74,23.64,161.78.44,176.66,12a7.1,7.1,0,0,1,3.93.22,7.29,7.29,0,0,1,4.51,6c7.69-4.05,17.87-3.39,23.13-.35,2.2,1.27,3.47,2.87,3.7,4.65,6.21.35,12.9,6.41,12.9,15v.6h-.6a13.81,13.81,0,0,0-12,7.57,17.57,17.57,0,0,0,.55,17.93,25.32,25.32,0,0,1,3.49,19.34L214,92.74Z"/><path class="cls-9" d="M282.67,495.52a1.18,1.18,0,0,1-1.18,1.19H1.19a1.19,1.19,0,0,1,0-2.38H281.48a1.18,1.18,0,0,1,1.19,1.18Z"/><path class="cls-9" d="M664.67,495.52a1.18,1.18,0,0,1-1.18,1.19H383.19a1.19,1.19,0,0,1,0-2.38H663.48a1.18,1.18,0,0,1,1.19,1.18Z"/><circle class="cls-7" cx="321.29" cy="399.17" r="10.59"/><circle class="cls-7" cx="392.29" cy="410.17" r="10.59"/><circle class="cls-7" cx="463.29" cy="397.17" r="10.59"/></g></g></svg>